{
.appVersion = "1075";
copyright = "\\(c\\) 2017 IBM Corp. All rights reserved.";
customParameters = (
{
name = vendorID;
value = "IBM ";
},
{
name = panose;
value = (
2,
11,
8,
9,
5,
0,
0,
0,
0,
0
);
},
{
name = unicodeRanges;
value = (
0,
1,
2,
3,
5,
6,
29,
31,
32,
33,
35,
36,
37,
38,
45,
60,
62
);
},
{
name = codePageRanges;
value = (
1252,
1250,
1254,
1257,
1258
);
},
{
name = glyphOrder;
value = (
.notdef,
a,
a.alt01,
b,
c,
d,
e,
f,
g,
g.alt01,
g.alt02,
h,
i,
j,
k,
l,
m,
n,
o,
p,
q,
r,
s,
t,
u,
v,
w,
x,
y,
z,
A,
B,
C,
D,
E,
F,
G,
H,
I,
J,
K,
L,
M,
N,
O,
P,
Q,
R,
S,
T,
U,
V,
W,
X,
Y,
Z,
zero,
zero.alt01,
zero.alt02,
one,
two,
three,
four,
five,
six,
seven,
eight,
nine,
ampersand,
at,
hyphen,
uni00AD,
endash,
emdash,
underscore,
period,
ellipsis,
colon,
comma,
semicolon,
quotesingle,
quotedbl,
quoteleft,
quoteright,
quotedblleft,
quotedblright,
quotesinglbase,
quotedblbase,
guilsinglleft,
guilsinglright,
guillemotleft,
guillemotright,
exclamdown,
exclam,
questiondown,
question,
parenleft,
parenright,
bracketleft,
bracketright,
braceleft,
braceright,
slash,
backslash,
fraction,
percent,
perthousand,
bar,
brokenbar,
section,
paragraph,
copyright,
registered,
trademark,
ordfeminine,
ordmasculine,
degree,
asterisk,
dagger,
daggerdbl,
numbersign,
asciicircum,
asciitilde,
plus,
minus,
plusminus,
multiply,
divide,
equal,
approxequal,
notequal,
less,
greater,
lessequal,
greaterequal,
periodcentered,
bullet,
lozenge,
logicalnot,
radical,
integral,
infinity,
uni212E,
uni2113,
uni2116,
partialdiff,
cent,
Euro,
florin,
sterling,
dollar,
yen,
uni0E3F,
uni20A1,
uni20A4,
uni20A6,
uni20A8,
uni20A9,
uni20AA,
uni20AB,
uni20AD,
uni20AE,
uni20B1,
uni20B2,
uni20B4,
uni20B5,
uni20B8,
uni20B9,
uni20BA,
uni20BD,
uni20BF,
fi,
fl,
aacute,
abreve,
acircumflex,
adieresis,
uni1EA1,
agrave,
uni1EA3,
amacron,
aogonek,
aring,
aringacute,
atilde,
uni1EAF,
uni1EB7,
uni1EB1,
uni1EB3,
uni1EB5,
uni1EA5,
uni1EAD,
uni1EA7,
uni1EA9,
uni1EAB,
aacute.alt01,
abreve.alt01,
acircumflex.alt01,

glyphs = (
{
glyphname = .notdef;
lastChange = "2017-11-24 19:45:46 +0000";
layers = (
{
layerId = "6530489A-D9A3-4CD8-A5AD-1BA8F3B39EAA";
paths = (
{
closed = 1;
nodes = (
"50 -250 LINE",
"550 -250 LINE",
"550 670 LINE",
"50 670 LINE"
);
}
);
width = 600;
}
);
note = .notdef;
},
{
glyphname = a;
lastChange = "2017-11-24 19:45:46 +0000";
layers = (
{
layerId = "6530489A-D9A3-4CD8-A5AD-1BA8F3B39EAA";
paths = (
{
closed = 1;
nodes = (
"572 0 LINE",
"572 107 LINE",
"515 107 LINE",
"515 333 LINE SMOOTH",
"515 463 OFFCURVE",
"431 528 OFFCURVE",
"290 528 CURVE SMOOTH",
"175 528 OFFCURVE",
"100 485 OFFCURVE",
"66 427 CURVE",
"147 355 LINE",
"175 393 OFFCURVE",
"211 420 OFFCURVE",
"273 420 CURVE SMOOTH",
"341 420 OFFCURVE",
"367 388 OFFCURVE",
"367 327 CURVE SMOOTH",
"367 301 LINE",
"284 301 LINE SMOOTH",
"133 301 OFFCURVE",
"52 250 OFFCURVE",
"52 142 CURVE SMOOTH",
"52 45 OFFCURVE",
"118 -12 OFFCURVE",
"218 -12 CURVE SMOOTH",
"297 -12 OFFCURVE",
"357 24 OFFCURVE",
"375 91 CURVE",
"380 91 LINE",
"386 33 OFFCURVE",
"426 0 OFFCURVE",
"487 0 CURVE SMOOTH"
);
},
{
closed = 1;
nodes = (
"227 85 OFFCURVE",
"197 104 OFFCURVE",
"197 140 CURVE SMOOTH",
"197 160 LINE SMOOTH",
"197 200 OFFCURVE",
"229 221 OFFCURVE",
"288 221 CURVE SMOOTH",
"367 221 LINE",
"367 159 LINE SMOOTH",
"367 111 OFFCURVE",
"326 85 OFFCURVE",
"274 85 CURVE SMOOTH"
);
}
);
width = 600;
}
);
note = a;
unicode = 0061;
},
{
glyphname = a.alt01;
lastChange = "2017-11-24 19:45:46 +0000";
layers = (
{
layerId = "6530489A-D9A3-4CD8-A5AD-1BA8F3B39EAA";
paths = (
{
closed = 1;
nodes = (
"393 0 LINE",
"541 0 LINE",
"541 516 LINE",
"393 516 LINE",
"393 422 LINE",
"386 422 LINE",
"360 484 OFFCURVE",
"316 528 OFFCURVE",
"233 528 CURVE SMOOTH",
"119 528 OFFCURVE",
"39 445 OFFCURVE",
"39 258 CURVE SMOOTH",
"39 71 OFFCURVE",
"119 -12 OFFCURVE",
"233 -12 CURVE SMOOTH",
"316 -12 OFFCURVE",
"360 32 OFFCURVE",
"386 94 CURVE",
"393 94 LINE"
);
},
{
closed = 1;
nodes = (
"231 103 OFFCURVE",
"193 146 OFFCURVE",
"193 218 CURVE SMOOTH",
"193 298 LINE SMOOTH",
"193 370 OFFCURVE",
"231 413 OFFCURVE",
"297 413 CURVE SMOOTH",
"349 413 OFFCURVE",
"393 388 OFFCURVE",
"393 334 CURVE SMOOTH",
"393 182 LINE SMOOTH",
"393 128 OFFCURVE",
"349 103 OFFCURVE",
"297 103 CURVE SMOOTH"
);
}
);
width = 600;
}
);
note = a.alt01;
},
{
glyphname = b;
lastChange = "2017-11-24 19:45:46 +0000";
layers = (
{
layerId = "6530489A-D9A3-4CD8-A5AD-1BA8F3B39EAA";
paths = (
{
closed = 1;
nodes = (
"59 0 LINE",
"207 0 LINE",
"207 94 LINE",
"214 94 LINE",
"240 32 OFFCURVE",
"284 -12 OFFCURVE",
"367 -12 CURVE SMOOTH",
"481 -12 OFFCURVE",
"561 71 OFFCURVE",
"561 258 CURVE SMOOTH",
"561 445 OFFCURVE",
"481 528 OFFCURVE",
"367 528 CURVE SMOOTH",
"284 528 OFFCURVE",
"240 484 OFFCURVE",
"214 422 CURVE",
"207 422 LINE",
"207 740 LINE",
"59 740 LINE"
);
},
{
closed = 1;
nodes = (
"251 103 OFFCURVE",
"207 128 OFFCURVE",
"207 182 CURVE SMOOTH",
"207 334 LINE SMOOTH",
"207 388 OFFCURVE",
"251 413 OFFCURVE",
"303 413 CURVE SMOOTH",
"369 413 OFFCURVE",
"407 370 OFFCURVE",
"407 298 CURVE SMOOTH",
"407 218 LINE SMOOTH",
"407 146 OFFCURVE",
"369 103 OFFCURVE",
"303 103 CURVE SMOOTH"
);
}
);
width = 600;
}
);
note = b;
unicode = 0062;
},
{
glyphname = c;
lastChange = "2017-11-24 19:45:46 +0000";
layers = (
{
layerId = "6530489A-D9A3-4CD8-A5AD-1BA8F3B39EAA";
paths = (
{
closed = 1;
nodes = (
"436 -12 OFFCURVE",
"506 39 OFFCURVE",
"543 114 CURVE",
"431 178 LINE",
"409 136 OFFCURVE",
"379 106 OFFCURVE",
"322 106 CURVE SMOOTH",
"252 106 OFFCURVE",
"214 148 OFFCURVE",
"214 216 CURVE SMOOTH",
"214 300 LINE SMOOTH",
"214 368 OFFCURVE",
"253 410 OFFCURVE",
"320 410 CURVE SMOOTH",
"375 410 OFFCURVE",
"403 380 OFFCURVE",
"421 340 CURVE",
"535 402 LINE",
"499 477 OFFCURVE",
"433 528 OFFCURVE",
"320 528 CURVE SMOOTH",
"159 528 OFFCURVE",
"60 425 OFFCURVE",
"60 258 CURVE SMOOTH",
"60 91 OFFCURVE",
"158 -12 OFFCURVE",
"321 -12 CURVE SMOOTH"
);
}
);
width = 600;
}
);
note = c;
unicode = 0063;
},
{
glyphname = d;
lastChange = "2017-11-24 19:45:46 +0000";
layers = (
{
layerId = "6530489A-D9A3-4CD8-A5AD-1BA8F3B39EAA";
paths = (
{
closed = 1;
nodes = (
"393 0 LINE",
"541 0 LINE",
"541 740 LINE",
"393 740 LINE",
"393 422 LINE",
"386 422 LINE",
"360 484 OFFCURVE",
"316 528 OFFCURVE",
"233 528 CURVE SMOOTH",
"119 528 OFFCURVE",
"39 445 OFFCURVE",
"39 258 CURVE SMOOTH",
"39 71 OFFCURVE",
"119 -12 OFFCURVE",
"233 -12 CURVE SMOOTH",
"316 -12 OFFCURVE",
"360 32 OFFCURVE",
"386 94 CURVE",
"393 94 LINE"
);
},
{
closed = 1;
nodes = (
"231 103 OFFCURVE",
"193 146 OFFCURVE",
"193 218 CURVE SMOOTH",
"193 298 LINE SMOOTH",
"193 370 OFFCURVE",
"231 413 OFFCURVE",
"297 413 CURVE SMOOTH",
"349 413 OFFCURVE",
"393 388 OFFCURVE",
"393 334 CURVE SMOOTH",
"393 182 LINE SMOOTH",
"393 128 OFFCURVE",
"349 103 OFFCURVE",
"297 103 CURVE SMOOTH"
);
}
);
width = 600;
}
);
note = d;
unicode = 0064;
},
{
glyphname = e;
lastChange = "2017-11-24 19:45:46 +0000";
layers = (
{
layerId = "6530489A-D9A3-4CD8-A5AD-1BA8F3B39EAA";
paths = (
{
closed = 1;
nodes = (
"425 -12 OFFCURVE",
"495 30 OFFCURVE",
"535 79 CURVE",
"455 166 LINE",
"423 128 OFFCURVE",
"380 102 OFFCURVE",
"319 102 CURVE SMOOTH",
"240 102 OFFCURVE",
"197 147 OFFCURVE",
"197 213 CURVE SMOOTH",
"197 222 LINE",
"550 222 LINE",
"550 266 LINE SMOOTH",
"550 427 OFFCURVE",
"455 528 OFFCURVE",
"301 528 CURVE SMOOTH",
"146 528 OFFCURVE",
"50 425 OFFCURVE",
"50 256 CURVE SMOOTH",
"50 91 OFFCURVE",
"141 -12 OFFCURVE",
"314 -12 CURVE SMOOTH"
);
},
{
closed = 1;
nodes = (
"366 422 OFFCURVE",
"405 380 OFFCURVE",
"405 313 CURVE SMOOTH",
"405 305 LINE",
"197 305 LINE",
"197 313 LINE SMOOTH",
"197 379 OFFCURVE",
"238 422 OFFCURVE",
"302 422 CURVE SMOOTH"
);
}
);
width = 600;
}
);
note = e;
unicode = 0065;
},
{
glyphname = f;
lastChange = "2017-11-24 19:45:46 +0000";
layers = (
{
layerId = "6530489A-D9A3-4CD8-A5AD-1BA8F3B39EAA";
paths = (
{
closed = 1;
nodes = (
"71 0 LINE",
"533 0 LINE",
"533 115 LINE",
"371 115 LINE",
"371 401 LINE",
"556 401 LINE",
"556 516 LINE",
"371 516 LINE",
"371 625 LINE",
"556 625 LINE",
"556 740 LINE",
"381 740 LINE SMOOTH",
"273 740 OFFCURVE",
"223 678 OFFCURVE",
"223 591 CURVE SMOOTH",
"223 516 LINE",
"61 516 LINE",
"61 401 LINE",
"223 401 LINE",
"223 115 LINE",
"71 115 LINE"
);
}
);
width = 600;
}
);
note = f;
unicode = 0066;
},
{
glyphname = g;
lastChange = "2017-11-24 19:45:46 +0000";
layers = (
{
layerId = "6530489A-D9A3-4CD8-A5AD-1BA8F3B39EAA";
paths = (
{
closed = 1;
nodes = (
"583 35 OFFCURVE",
"526 97 OFFCURVE",
"378 97 CURVE SMOOTH",
"260 97 LINE SMOOTH",
"219 97 OFFCURVE",
"184 99 OFFCURVE",
"184 132 CURVE SMOOTH",
"184 150 OFFCURVE",
"195 162 OFFCURVE",
"210 170 CURVE",
"235 163 OFFCURVE",
"264 160 OFFCURVE",
"294 160 CURVE SMOOTH",
"430 160 OFFCURVE",
"520 225 OFFCURVE",
"520 344 CURVE SMOOTH",
"520 417 OFFCURVE",
"487 469 OFFCURVE",
"431 498 CURVE",
"431 507 LINE",
"555 507 LINE",
"555 615 LINE",
"464 615 LINE SMOOTH",
"415 615 OFFCURVE",
"385 585 OFFCURVE",
"385 545 CURVE SMOOTH",
"385 517 LINE",
"358 524 OFFCURVE",
"327 528 OFFCURVE",
"294 528 CURVE SMOOTH",
"159 528 OFFCURVE",
"70 464 OFFCURVE",
"70 344 CURVE SMOOTH",
"70 268 OFFCURVE",
"106 214 OFFCURVE",
"167 185 CURVE",
"167 179 LINE",
"111 166 OFFCURVE",
"74 145 OFFCURVE",
"74 95 CURVE SMOOTH",
"74 50 OFFCURVE",
"102 27 OFFCURVE",
"146 14 CURVE",
"146 8 LINE",
"84 -8 OFFCURVE",
"47 -35 OFFCURVE",
"47 -93 CURVE SMOOTH",
"47 -163 OFFCURVE",
"101 -212 OFFCURVE",
"297 -212 CURVE SMOOTH",
"493 -212 OFFCURVE",
"583 -161 OFFCURVE",
"583 -52 CURVE SMOOTH"
);
},
{
closed = 1;
nodes = (
"443 -98 OFFCURVE",
"413 -117 OFFCURVE",
"346 -117 CURVE SMOOTH",
"259 -117 LINE SMOOTH",
"194 -117 OFFCURVE",
"169 -94 OFFCURVE",
"169 -62 CURVE SMOOTH",
"169 -45 OFFCURVE",
"176 -31 OFFCURVE",
"189 -20 CURVE",
"366 -20 LINE SMOOTH",
"426 -20 OFFCURVE",
"443 -36 OFFCURVE",
"443 -63 CURVE SMOOTH"
);
},
{
closed = 1;
nodes = (
"236 254 OFFCURVE",
"210 287 OFFCURVE",
"210 332 CURVE SMOOTH",
"210 356 LINE SMOOTH",
"210 401 OFFCURVE",
"236 434 OFFCURVE",
"294 434 CURVE SMOOTH",
"353 434 OFFCURVE",
"380 401 OFFCURVE",
"380 356 CURVE SMOOTH",
"380 332 LINE SMOOTH",
"380 287 OFFCURVE",
"353 254 OFFCURVE",
"294 254 CURVE SMOOTH"
);
}
);
width = 600;
}
);
note = g;
unicode = 0067;
},
{
glyphname = g.alt01;
lastChange = "2017-11-24 19:45:46 +0000";
layers = (
{
layerId = "6530489A-D9A3-4CD8-A5AD-1BA8F3B39EAA";
paths = (
{
closed = 1;
nodes = (
"541 516 LINE",
"393 516 LINE",
"393 422 LINE",
"386 422 LINE",
"360 484 OFFCURVE",
"316 528 OFFCURVE",
"233 528 CURVE SMOOTH",
"119 528 OFFCURVE",
"39 444 OFFCURVE",
"39 271 CURVE SMOOTH",
"39 98 OFFCURVE",
"119 14 OFFCURVE",
"233 14 CURVE SMOOTH",
"316 14 OFFCURVE",
"360 59 OFFCURVE",
"386 121 CURVE",
"393 121 LINE",
"393 18 LINE SMOOTH",
"393 -53 OFFCURVE",
"356 -96 OFFCURVE",
"276 -96 CURVE SMOOTH",
"225 -96 OFFCURVE",
"183 -78 OFFCURVE",
"149 -43 CURVE",
"70 -137 LINE",
"111 -180 OFFCURVE",
"177 -212 OFFCURVE",
"280 -212 CURVE SMOOTH",
"453 -212 OFFCURVE",
"541 -122 OFFCURVE",
"541 31 CURVE SMOOTH"
);
},
{
closed = 1;
nodes = (
"231 129 OFFCURVE",
"193 173 OFFCURVE",
"193 245 CURVE SMOOTH",
"193 298 LINE SMOOTH",
"193 370 OFFCURVE",
"231 413 OFFCURVE",
"297 413 CURVE SMOOTH",
"349 413 OFFCURVE",
"393 388 OFFCURVE",
"393 334 CURVE SMOOTH",
"393 208 LINE SMOOTH",
"393 154 OFFCURVE",
"349 129 OFFCURVE",
"297 129 CURVE SMOOTH"
);
}
);
width = 600;
}
);
note = g.alt01;
},
{
glyphname = g.alt02;
lastChange = "2017-11-24 19:45:46 +0000";
layers = (
{
layerId = "6530489A-D9A3-4CD8-A5AD-1BA8F3B39EAA";
paths = (
{
closed = 1;
nodes = (
"493 -212 OFFCURVE",
"583 -161 OFFCURVE",
"583 -52 CURVE SMOOTH",
"583 35 OFFCURVE",
"526 97 OFFCURVE",
"378 97 CURVE SMOOTH",
"260 97 LINE SMOOTH",
"219 97 OFFCURVE",
"184 99 OFFCURVE",
"184 132 CURVE SMOOTH",
"184 150 OFFCURVE",
"195 162 OFFCURVE",
"210 170 CURVE",
"235 163 OFFCURVE",
"264 160 OFFCURVE",
"294 160 CURVE SMOOTH",
"430 160 OFFCURVE",
"520 226 OFFCURVE",
"520 342 CURVE SMOOTH",
"520 373 OFFCURVE",
"514 397 OFFCURVE",
"498 418 CURVE",
"581 418 LINE",
"581 516 LINE",
"387 516 LINE",
"360 524 OFFCURVE",
"329 528 OFFCURVE",
"296 528 CURVE SMOOTH",
"159 528 OFFCURVE",
"70 464 OFFCURVE",
"70 345 CURVE SMOOTH",
"70 269 OFFCURVE",
"106 215 OFFCURVE",
"167 185 CURVE",
"167 179 LINE",
"111 166 OFFCURVE",
"74 145 OFFCURVE",
"74 95 CURVE SMOOTH",
"74 50 OFFCURVE",
"102 27 OFFCURVE",
"146 14 CURVE",
"146 8 LINE",
"84 -8 OFFCURVE",
"47 -35 OFFCURVE",
"47 -93 CURVE SMOOTH",
"47 -163 OFFCURVE",
"101 -212 OFFCURVE",
"297 -212 CURVE SMOOTH"
);
},
{
closed = 1;
nodes = (
"236 254 OFFCURVE",
"210 287 OFFCURVE",
"210 332 CURVE SMOOTH",
"210 356 LINE SMOOTH",
"210 401 OFFCURVE",
"236 434 OFFCURVE",
"294 434 CURVE SMOOTH",
"353 434 OFFCURVE",
"380 401 OFFCURVE",
"380 356 CURVE SMOOTH",
"380 332 LINE SMOOTH",
"380 287 OFFCURVE",
"353 254 OFFCURVE",
"294 254 CURVE SMOOTH"
);
},
{
closed = 1;
nodes = (
"443 -98 OFFCURVE",
"413 -117 OFFCURVE",
"346 -117 CURVE SMOOTH",
"259 -117 LINE SMOOTH",
"194 -117 OFFCURVE",
"169 -94 OFFCURVE",
"169 -62 CURVE SMOOTH",
"169 -45 OFFCURVE",
"176 -31 OFFCURVE",
"189 -20 CURVE",
"366 -20 LINE SMOOTH",
"426 -20 OFFCURVE",
"443 -36 OFFCURVE",
"443 -63 CURVE SMOOTH"
);
}
);
width = 600;
}
);
note = g.alt02;
},
{
glyphname = h;
lastChange = "2017-11-24 19:45:46 +0000";
layers = (
{
layerId = "6530489A-D9A3-4CD8-A5AD-1BA8F3B39EAA";
paths = (
{
closed = 1;
nodes = (
"65 0 LINE",
"213 0 LINE",
"213 339 LINE SMOOTH",
"213 389 OFFCURVE",
"258 414 OFFCURVE",
"304 414 CURVE SMOOTH",
"362 414 OFFCURVE",
"391 379 OFFCURVE",
"391 314 CURVE SMOOTH",
"391 0 LINE",
"539 0 LINE",
"539 334 LINE SMOOTH",
"539 459 OFFCURVE",
"470 528 OFFCURVE",
"371 528 CURVE SMOOTH",
"288 528 OFFCURVE",
"242 480 OFFCURVE",
"219 422 CURVE",
"213 422 LINE",
"213 740 LINE",
"65 740 LINE"
);
}
);
width = 600;
}
);
note = h;
unicode = 0068;
},
{
glyphname = i;
lastChange = "2017-11-24 19:45:46 +0000";
layers = (
{
layerId = "6530489A-D9A3-4CD8-A5AD-1BA8F3B39EAA";
paths = (
{
closed = 1;
nodes = (
"398 582 OFFCURVE",
"421 613 OFFCURVE",
"421 652 CURVE SMOOTH",
"421 681 LINE SMOOTH",
"421 721 OFFCURVE",
"398 751 OFFCURVE",
"332 751 CURVE SMOOTH",
"266 751 OFFCURVE",
"243 721 OFFCURVE",
"243 681 CURVE SMOOTH",
"243 652 LINE SMOOTH",
"243 613 OFFCURVE",
"266 582 OFFCURVE",
"332 582 CURVE SMOOTH"
);
},
{
closed = 1;
nodes = (
"94 0 LINE",
"558 0 LINE",
"558 115 LINE",
"406 115 LINE",
"406 516 LINE",
"94 516 LINE",
"94 401 LINE",
"258 401 LINE",
"258 115 LINE",
"94 115 LINE"
);
}
);
width = 600;
}
);
note = i;
unicode = 0069;
},
{
glyphname = j;
lastChange = "2017-11-24 19:45:46 +0000";
layers = (
{
layerId = "6530489A-D9A3-4CD8-A5AD-1BA8F3B39EAA";
paths = (
{
closed = 1;
nodes = (
"92 -200 LINE",
"281 -200 LINE SMOOTH",
"387 -200 OFFCURVE",
"438 -138 OFFCURVE",
"438 -51 CURVE SMOOTH",
"438 516 LINE",
"90 516 LINE",
"90 401 LINE",
"290 401 LINE",
"290 -85 LINE",
"92 -85 LINE"
);
},
{
closed = 1;
nodes = (
"429 582 OFFCURVE",
"453 613 OFFCURVE",
"453 652 CURVE SMOOTH",
"453 681 LINE SMOOTH",
"453 721 OFFCURVE",
"429 751 OFFCURVE",
"364 751 CURVE SMOOTH",
"298 751 OFFCURVE",
"275 721 OFFCURVE",
"275 681 CURVE SMOOTH",
"275 652 LINE SMOOTH",
"275 613 OFFCURVE",
"298 582 OFFCURVE",
"364 582 CURVE SMOOTH"
);
}
);
width = 600;
}
);
note = j;
unicode = 006A;
},
{
glyphname = k;
lastChange = "2017-11-24 19:45:46 +0000";
layers = (
{
layerId = "6530489A-D9A3-4CD8-A5AD-1BA8F3B39EAA";
paths = (
{
closed = 1;
nodes = (
"65 0 LINE",
"213 0 LINE",
"213 179 LINE",
"262 228 LINE",
"412 0 LINE",
"588 0 LINE",
"367 312 LINE",
"567 516 LINE",
"397 516 LINE",
"289 401 LINE",
"220 320 LINE",
"213 320 LINE",
"213 740 LINE",
"65 740 LINE"
);
}
);
width = 600;
}
);
note = k;
unicode = 006B;
},
{
glyphname = l;
lastChange = "2017-11-24 19:45:46 +0000";
layers = (
{
layerId = "6530489A-D9A3-4CD8-A5AD-1BA8F3B39EAA";
paths = (
{
closed = 1;
nodes = (
"68 0 LINE",
"532 0 LINE",
"532 115 LINE",
"374 115 LINE",
"374 740 LINE",
"68 740 LINE",
"68 625 LINE",
"226 625 LINE",
"226 115 LINE",
"68 115 LINE"
);
}
);
width = 600;
}
);
note = l;
unicode = 006C;
},
{
glyphname = m;
lastChange = "2017-11-24 19:45:46 +0000";
layers = (
{
layerId = "6530489A-D9A3-4CD8-A5AD-1BA8F3B39EAA";
paths = (
{
closed = 1;
nodes = (
"149 0 LINE",
"149 368 LINE SMOOTH",
"149 403 OFFCURVE",
"170 419 OFFCURVE",
"197 419 CURVE SMOOTH",
"223 419 OFFCURVE",
"240 402 OFFCURVE",
"240 354 CURVE SMOOTH",
"240 0 LINE",
"360 0 LINE",
"360 368 LINE SMOOTH",
"360 403 OFFCURVE",
"381 419 OFFCURVE",
"406 419 CURVE SMOOTH",
"433 419 OFFCURVE",
"451 402 OFFCURVE",
"451 354 CURVE SMOOTH",
"451 0 LINE",
"570 0 LINE",
"570 369 LINE SMOOTH",
"570 475 OFFCURVE",
"534 528 OFFCURVE",
"462 528 CURVE SMOOTH",
"398 528 OFFCURVE",
"369 487 OFFCURVE",
"352 440 CURVE",
"346 440 LINE",
"335 497 OFFCURVE",
"303 528 OFFCURVE",
"254 528 CURVE SMOOTH",
"199 528 OFFCURVE",
"172 488 OFFCURVE",
"156 440 CURVE",
"149 440 LINE",
"149 516 LINE",
"30 516 LINE",
"30 0 LINE"
);
}
);
width = 600;
}
);
note = m;
unicode = 006D;
},
{
glyphname = n;
lastChange = "2017-11-24 19:45:46 +0000";
layers = (
{
layerId = "6530489A-D9A3-4CD8-A5AD-1BA8F3B39EAA";
paths = (
{
closed = 1;
nodes = (
"213 0 LINE",
"213 339 LINE SMOOTH",
"213 389 OFFCURVE",
"258 414 OFFCURVE",
"304 414 CURVE SMOOTH",
"362 414 OFFCURVE",
"391 379 OFFCURVE",
"391 314 CURVE SMOOTH",
"391 0 LINE",
"539 0 LINE",
"539 334 LINE SMOOTH",
"539 459 OFFCURVE",
"470 528 OFFCURVE",
"371 528 CURVE SMOOTH",
"288 528 OFFCURVE",
"242 480 OFFCURVE",
"219 422 CURVE",
"213 422 LINE",
"213 516 LINE",
"65 516 LINE",
"65 0 LINE"
);
}
);
width = 600;
}
);
note = n;
unicode = 006E;
},
{
glyphname = o;
lastChange = "2017-11-24 19:45:46 +0000";
layers = (
{
layerId = "6530489A-D9A3-4CD8-A5AD-1BA8F3B39EAA";
paths = (
{
closed = 1;
nodes = (
"461 -12 OFFCURVE",
"559 91 OFFCURVE",
"559 258 CURVE SMOOTH",
"559 425 OFFCURVE",
"461 528 OFFCURVE",
"300 528 CURVE SMOOTH",
"139 528 OFFCURVE",
"41 425 OFFCURVE",
"41 258 CURVE SMOOTH",
"41 91 OFFCURVE",
"139 -12 OFFCURVE",
"300 -12 CURVE SMOOTH"
);
},
{
closed = 1;
nodes = (
"234 98 OFFCURVE",
"194 141 OFFCURVE",
"194 217 CURVE SMOOTH",
"194 299 LINE SMOOTH",
"194 375 OFFCURVE",
"234 418 OFFCURVE",
"300 418 CURVE SMOOTH",
"366 418 OFFCURVE",
"406 375 OFFCURVE",
"406 299 CURVE SMOOTH",
"406 217 LINE SMOOTH",
"406 141 OFFCURVE",
"366 98 OFFCURVE",
"300 98 CURVE SMOOTH"
);
}
);
width = 600;
}
);
note = o;
unicode = 006F;
},
{
glyphname = p;
lastChange = "2017-11-24 19:45:46 +0000";
layers = (
{
layerId = "6530489A-D9A3-4CD8-A5AD-1BA8F3B39EAA";
paths = (
{
closed = 1;
nodes = (
"59 -200 LINE",
"207 -200 LINE",
"207 94 LINE",
"214 94 LINE",
"240 32 OFFCURVE",
"284 -12 OFFCURVE",
"367 -12 CURVE SMOOTH",
"481 -12 OFFCURVE",
"561 71 OFFCURVE",
"561 258 CURVE SMOOTH",
"561 445 OFFCURVE",
"481 528 OFFCURVE",
"367 528 CURVE SMOOTH",
"284 528 OFFCURVE",
"240 484 OFFCURVE",
"214 422 CURVE",
"207 422 LINE",
"207 516 LINE",
"59 516 LINE"
);
},
{
closed = 1;
nodes = (
"251 103 OFFCURVE",
"207 128 OFFCURVE",
"207 182 CURVE SMOOTH",
"207 334 LINE SMOOTH",
"207 388 OFFCURVE",
"251 413 OFFCURVE",
"303 413 CURVE SMOOTH",
"369 413 OFFCURVE",
"407 370 OFFCURVE",
"407 298 CURVE SMOOTH",
"407 218 LINE SMOOTH",
"407 146 OFFCURVE",
"369 103 OFFCURVE",
"303 103 CURVE SMOOTH"
);
}
);
width = 600;
}
);
note = p;
unicode = 0070;
},
{
glyphname = q;
lastChange = "2017-11-24 19:45:46 +0000";
layers = (
{
layerId = "6530489A-D9A3-4CD8-A5AD-1BA8F3B39EAA";
paths = (
{
closed = 1;
nodes = (
"393 -200 LINE",
"541 -200 LINE",
"541 516 LINE",
"393 516 LINE",
"393 422 LINE",
"386 422 LINE",
"360 484 OFFCURVE",
"316 528 OFFCURVE",
"233 528 CURVE SMOOTH",
"119 528 OFFCURVE",
"39 445 OFFCURVE",
"39 258 CURVE SMOOTH",
"39 71 OFFCURVE",
"119 -12 OFFCURVE",
"233 -12 CURVE SMOOTH",
"316 -12 OFFCURVE",
"360 32 OFFCURVE",
"386 94 CURVE",
"393 94 LINE"
);
},
{
closed = 1;
nodes = (
"231 103 OFFCURVE",
"193 146 OFFCURVE",
"193 218 CURVE SMOOTH",
"193 298 LINE SMOOTH",
"193 370 OFFCURVE",
"231 413 OFFCURVE",
"297 413 CURVE SMOOTH",
"349 413 OFFCURVE",
"393 388 OFFCURVE",
"393 334 CURVE SMOOTH",
"393 182 LINE SMOOTH",
"393 128 OFFCURVE",
"349 103 OFFCURVE",
"297 103 CURVE SMOOTH"
);
}
);
width = 600;
}
);
note = q;
unicode = 0071;
},
{
glyphname = r;
lastChange = "2017-11-24 19:45:46 +0000";
layers = (
{
layerId = "6530489A-D9A3-4CD8-A5AD-1BA8F3B39EAA";
paths = (
{
closed = 1;
nodes = (
"74 0 LINE",
"511 0 LINE",
"511 115 LINE",
"341 115 LINE",
"341 293 LINE SMOOTH",
"341 351 OFFCURVE",
"386 380 OFFCURVE",
"452 380 CURVE SMOOTH",
"562 380 LINE",
"562 516 LINE",
"513 516 LINE SMOOTH",
"419 516 OFFCURVE",
"370 450 OFFCURVE",
"348 382 CURVE",
"341 382 LINE",
"341 516 LINE",
"74 516 LINE",
"74 401 LINE",
"193 401 LINE",
"193 115 LINE",
"74 115 LINE"
);
}
);
width = 600;
}
);
note = r;
unicode = 0072;
},
{
glyphname = s;
lastChange = "2017-11-24 19:45:46 +0000";
layers = (
{
layerId = "6530489A-D9A3-4CD8-A5AD-1BA8F3B39EAA";
paths = (
{
closed = 1;
nodes = (
"447 -12 OFFCURVE",
"534 56 OFFCURVE",
"534 163 CURVE SMOOTH",
"534 261 OFFCURVE",
"461 300 OFFCURVE",
"368 314 CURVE SMOOTH",
"286 327 LINE SMOOTH",
"246 333 OFFCURVE",
"222 342 OFFCURVE",
"222 372 CURVE SMOOTH",
"222 406 OFFCURVE",
"252 424 OFFCURVE",
"308 424 CURVE SMOOTH",
"375 424 OFFCURVE",
"424 398 OFFCURVE",
"454 365 CURVE",
"528 449 LINE",
"485 499 OFFCURVE",
"414 528 OFFCURVE",
"313 528 CURVE SMOOTH",
"164 528 OFFCURVE",
"77 463 OFFCURVE",
"77 355 CURVE SMOOTH",
"77 257 OFFCURVE",
"150 218 OFFCURVE",
"242 204 CURVE SMOOTH",
"325 191 LINE SMOOTH",
"365 185 OFFCURVE",
"389 176 OFFCURVE",
"389 147 CURVE SMOOTH",
"389 110 OFFCURVE",
"353 92 OFFCURVE",
"295 92 CURVE SMOOTH",
"226 92 OFFCURVE",
"172 118 OFFCURVE",
"132 162 CURVE",
"49 85 LINE",
"91 25 OFFCURVE",
"180 -12 OFFCURVE",
"294 -12 CURVE SMOOTH"
);
}
);
width = 600;
}
);
note = s;
unicode = 0073;
},
{
glyphname = t;
lastChange = "2017-11-24 19:45:46 +0000";
layers = (
{
layerId = "6530489A-D9A3-4CD8-A5AD-1BA8F3B39EAA";
paths = (
{
closed = 1;
nodes = (
"531 0 LINE",
"531 115 LINE",
"330 115 LINE",
"330 401 LINE",
"531 401 LINE",
"531 516 LINE",
"330 516 LINE",
"330 698 LINE",
"194 698 LINE",
"194 577 LINE SMOOTH",
"194 531 OFFCURVE",
"177 516 OFFCURVE",
"133 516 CURVE SMOOTH",
"42 516 LINE",
"42 401 LINE",
"182 401 LINE",
"182 149 LINE SMOOTH",
"182 62 OFFCURVE",
"233 0 OFFCURVE",
"340 0 CURVE SMOOTH"
);
}
);
width = 600;
}
);
note = t;
unicode = 0074;
},
{
glyphname = u;
lastChange = "2017-11-24 19:45:46 +0000";
layers = (
{
layerId = "6530489A-D9A3-4CD8-A5AD-1BA8F3B39EAA";
paths = (
{
closed = 1;
nodes = (
"387 0 LINE",
"535 0 LINE",
"535 516 LINE",
"387 516 LINE",
"387 177 LINE SMOOTH",
"387 127 OFFCURVE",
"342 102 OFFCURVE",
"296 102 CURVE SMOOTH",
"238 102 OFFCURVE",
"209 137 OFFCURVE",
"209 202 CURVE SMOOTH",
"209 516 LINE",
"61 516 LINE",
"61 182 LINE SMOOTH",
"61 57 OFFCURVE",
"130 -12 OFFCURVE",
"229 -12 CURVE SMOOTH",
"312 -12 OFFCURVE",
"358 36 OFFCURVE",
"381 94 CURVE",
"387 94 LINE"
);
}
);
width = 600;
}
);
note = u;
unicode = 0075;
},
{
glyphname = v;
lastChange = "2017-11-24 19:45:46 +0000";
layers = (
{
layerId = "6530489A-D9A3-4CD8-A5AD-1BA8F3B39EAA";
paths = (
{
closed = 1;
nodes = (
"388 0 LINE",
"573 516 LINE",
"423 516 LINE",
"356 295 LINE",
"307 123 LINE",
"299 123 LINE",
"250 295 LINE",
"183 516 LINE",
"27 516 LINE",
"212 0 LINE"
);
}
);
width = 600;
}
);
note = v;
unicode = 0076;
},
{
glyphname = w;
lastChange = "2017-11-24 19:45:46 +0000";
layers = (
{
layerId = "6530489A-D9A3-4CD8-A5AD-1BA8F3B39EAA";
paths = (
{
closed = 1;
nodes = (
"68 0 LINE",
"244 0 LINE",
"295 356 LINE",
"305 356 LINE",
"356 0 LINE",
"532 0 LINE",
"593 516 LINE",
"476 516 LINE",
"438 98 LINE",
"428 98 LINE",
"368 516 LINE",
"238 516 LINE",
"177 98 LINE",
"167 98 LINE",
"130 516 LINE",
"7 516 LINE"
);
}
);
width = 600;
}
);
note = w;
unicode = 0077;
},
{
glyphname = x;
lastChange = "2017-11-24 19:45:46 +0000";
layers = (
{
layerId = "6530489A-D9A3-4CD8-A5AD-1BA8F3B39EAA";
paths = (
{
closed = 1;
nodes = (
"179 0 LINE",
"245 97 LINE",
"289 166 LINE",
"297 166 LINE",
"342 97 LINE",
"407 0 LINE",
"577 0 LINE",
"384 270 LINE",
"564 516 LINE",
"409 516 LINE",
"353 433 LINE",
"310 366 LINE",
"302 366 LINE",
"260 433 LINE",
"205 516 LINE",
"36 516 LINE",
"216 262 LINE",
"23 0 LINE"
);
}
);
width = 600;
}
);
note = x;
unicode = 0078;
},
{
glyphname = y;
lastChange = "2017-11-24 19:45:46 +0000";
layers = (
{
layerId = "6530489A-D9A3-4CD8-A5AD-1BA8F3B39EAA";
paths = (
{
closed = 1;
nodes = (
"353 299 LINE",
"308 149 LINE",
"300 149 LINE",
"253 299 LINE",
"178 516 LINE",
"19 516 LINE",
"227 3 LINE",
"195 -85 LINE",
"71 -85 LINE",
"71 -200 LINE",
"173 -200 LINE SMOOTH",
"261 -200 OFFCURVE",
"308 -158 OFFCURVE",
"338 -83 CURVE SMOOTH",
"581 516 LINE",
"430 516 LINE"
);
}
);
width = 600;
}
);
note = y;
unicode = 0079;
},
{
glyphname = z;
lastChange = "2017-11-24 19:45:46 +0000";
layers = (
{
layerId = "6530489A-D9A3-4CD8-A5AD-1BA8F3B39EAA";
paths = (
{
closed = 1;
nodes = (
"534 0 LINE",
"534 115 LINE",
"237 115 LINE",
"524 393 LINE",
"524 516 LINE",
"76 516 LINE",
"76 401 LINE",
"353 401 LINE",
"66 123 LINE",
"66 0 LINE"
);
}
);
width = 600;
}
);
note = z;
unicode = 007A;
},
{
glyphname = A;
lastChange = "2017-11-24 19:45:46 +0000";
layers = (
{
layerId = "6530489A-D9A3-4CD8-A5AD-1BA8F3B39EAA";
paths = (
{
closed = 1;
nodes = (
"595 0 LINE",
"406 698 LINE",
"194 698 LINE",
"5 0 LINE",
"157 0 LINE",
"200 168 LINE",
"391 168 LINE",
"435 0 LINE"
);
},
{
closed = 1;
nodes = (
"368 289 LINE",
"224 289 LINE",
"292 553 LINE",
"300 553 LINE"
);
}
);
width = 600;
}
);
note = A;
unicode = 0041;
},
{
glyphname = B;
lastChange = "2017-11-24 19:45:46 +0000";
layers = (
{
layerId = "6530489A-D9A3-4CD8-A5AD-1BA8F3B39EAA";
paths = (
{
closed = 1;
nodes = (
"77 0 LINE",
"345 0 LINE SMOOTH",
"477 0 OFFCURVE",
"556 75 OFFCURVE",
"556 192 CURVE SMOOTH",
"556 286 OFFCURVE",
"506 338 OFFCURVE",
"420 359 CURVE",
"420 365 LINE",
"493 386 OFFCURVE",
"534 433 OFFCURVE",
"534 512 CURVE SMOOTH",
"534 626 OFFCURVE",
"458 698 OFFCURVE",
"322 698 CURVE SMOOTH",
"77 698 LINE"
);
},
{
closed = 1;
nodes = (
"223 105 LINE",
"223 302 LINE",
"299 302 LINE SMOOTH",
"370 302 OFFCURVE",
"403 281 OFFCURVE",
"403 218 CURVE SMOOTH",
"403 189 LINE SMOOTH",
"403 125 OFFCURVE",
"370 105 OFFCURVE",
"299 105 CURVE SMOOTH"
);
},
{
closed = 1;
nodes = (
"223 402 LINE",
"223 593 LINE",
"280 593 LINE SMOOTH",
"350 593 OFFCURVE",
"381 574 OFFCURVE",
"381 513 CURVE SMOOTH",
"381 483 LINE SMOOTH",
"381 422 OFFCURVE",
"350 402 OFFCURVE",
"280 402 CURVE SMOOTH"
);
}
);
width = 600;
}
);
note = B;
unicode = 0042;
},
{
glyphname = C;
lastChange = "2017-11-24 19:45:46 +0000";
layers = (
{
layerId = "6530489A-D9A3-4CD8-A5AD-1BA8F3B39EAA";
paths = (
{
closed = 1;
nodes = (
"460 -12 OFFCURVE",
"535 67 OFFCURVE",
"563 189 CURVE",
"423 223 LINE",
"408 157 OFFCURVE",
"383 109 OFFCURVE",
"313 109 CURVE SMOOTH",
"232 109 OFFCURVE",
"201 177 OFFCURVE",
"201 288 CURVE SMOOTH",
"201 410 LINE SMOOTH",
"201 521 OFFCURVE",
"232 589 OFFCURVE",
"313 589 CURVE SMOOTH",
"383 589 OFFCURVE",
"408 541 OFFCURVE",
"423 475 CURVE",
"563 509 LINE",
"535 631 OFFCURVE",
"460 710 OFFCURVE",
"316 710 CURVE SMOOTH",
"129 710 OFFCURVE",
"41 578 OFFCURVE",
"41 349 CURVE SMOOTH",
"41 120 OFFCURVE",
"129 -12 OFFCURVE",
"316 -12 CURVE SMOOTH"
);
}
);
width = 600;
}
);
note = C;
unicode = 0043;
},
{
glyphname = D;
lastChange = "2017-11-24 19:45:46 +0000";
layers = (
{
layerId = "6530489A-D9A3-4CD8-A5AD-1BA8F3B39EAA";
paths = (
{
closed = 1;
nodes = (
"64 0 LINE",
"289 0 LINE SMOOTH",
"476 0 OFFCURVE",
"566 125 OFFCURVE",
"566 349 CURVE SMOOTH",
"566 573 OFFCURVE",
"476 698 OFFCURVE",
"289 698 CURVE SMOOTH",
"64 698 LINE"
);
},
{
closed = 1;
nodes = (
"212 118 LINE",
"212 580 LINE",
"279 580 LINE SMOOTH",
"368 580 OFFCURVE",
"408 521 OFFCURVE",
"408 413 CURVE SMOOTH",
"408 286 LINE SMOOTH",
"408 177 OFFCURVE",
"368 118 OFFCURVE",
"279 118 CURVE SMOOTH"
);
}
);
width = 600;
}
);
note = D;
unicode = 0044;
},
{
glyphname = E;
lastChange = "2017-11-24 19:45:46 +0000";
layers = (
{
layerId = "6530489A-D9A3-4CD8-A5AD-1BA8F3B39EAA";
paths = (
{
closed = 1;
nodes = (
"526 0 LINE",
"526 123 LINE",
"230 123 LINE",
"230 292 LINE",
"516 292 LINE",
"516 415 LINE",
"230 415 LINE",
"230 575 LINE",
"526 575 LINE",
"526 698 LINE",
"80 698 LINE",
"80 0 LINE"
);
}
);
width = 600;
}
);
note = E;
unicode = 0045;
},
{
glyphname = F;
lastChange = "2017-11-24 19:45:46 +0000";
layers = (
{
layerId = "6530489A-D9A3-4CD8-A5AD-1BA8F3B39EAA";
paths = (
{
closed = 1;
nodes = (
"230 0 LINE",
"230 292 LINE",
"510 292 LINE",
"510 415 LINE",
"230 415 LINE",
"230 575 LINE",
"543 575 LINE",
"543 698 LINE",
"80 698 LINE",
"80 0 LINE"
);
}
);
width = 600;
}
);
note = F;
unicode = 0046;
},
{
glyphname = G;
lastChange = "2017-11-24 19:45:46 +0000";
layers = (
{
layerId = "6530489A-D9A3-4CD8-A5AD-1BA8F3B39EAA";
paths = (
{
closed = 1;
nodes = (
"411 0 LINE",
"545 0 LINE",
"545 373 LINE",
"292 373 LINE",
"292 267 LINE",
"411 267 LINE",
"411 216 LINE SMOOTH",
"411 154 OFFCURVE",
"377 109 OFFCURVE",
"310 109 CURVE SMOOTH",
"223 109 OFFCURVE",
"194 183 OFFCURVE",
"194 296 CURVE SMOOTH",
"194 410 LINE SMOOTH",
"194 522 OFFCURVE",
"222 589 OFFCURVE",
"298 589 CURVE SMOOTH",
"367 589 OFFCURVE",
"390 534 OFFCURVE",
"405 475 CURVE",
"545 509 LINE",
"517 629 OFFCURVE",
"445 710 OFFCURVE",
"301 710 CURVE SMOOTH",
"120 710 OFFCURVE",
"35 580 OFFCURVE",
"35 343 CURVE SMOOTH",
"35 121 OFFCURVE",
"109 -12 OFFCURVE",
"246 -12 CURVE SMOOTH",
"332 -12 OFFCURVE",
"379 41 OFFCURVE",
"402 99 CURVE",
"411 99 LINE"
);
}
);
width = 600;
}
);
note = G;
unicode = 0047;
},
{
glyphname = H;
lastChange = "2017-11-24 19:45:46 +0000";
layers = (
{
layerId = "6530489A-D9A3-4CD8-A5AD-1BA8F3B39EAA";
paths = (
{
closed = 1;
nodes = (
"388 0 LINE",
"539 0 LINE",
"539 698 LINE",
"388 698 LINE",
"388 415 LINE",
"212 415 LINE",
"212 698 LINE",
"61 698 LINE",
"61 0 LINE",
"212 0 LINE",
"212 292 LINE",
"388 292 LINE"
);
}
);
width = 600;
}
);
note = H;
unicode = 0048;
},
{
glyphname = I;
lastChange = "2017-11-24 19:45:46 +0000";
layers = (
{
layerId = "6530489A-D9A3-4CD8-A5AD-1BA8F3B39EAA";
paths = (
{
closed = 1;
nodes = (
"525 0 LINE",
"525 111 LINE",
"375 111 LINE",
"375 587 LINE",
"525 587 LINE",
"525 698 LINE",
"75 698 LINE",
"75 587 LINE",
"225 587 LINE",
"225 111 LINE",
"75 111 LINE",
"75 0 LINE"
);
}
);
width = 600;
}
);
note = I;
unicode = 0049;
},
{
glyphname = J;
lastChange = "2017-11-24 19:45:46 +0000";
layers = (
{
layerId = "6530489A-D9A3-4CD8-A5AD-1BA8F3B39EAA";
paths = (
{
closed = 1;
nodes = (
"129 698 LINE",
"129 575 LINE",
"359 575 LINE",
"359 210 LINE SMOOTH",
"359 142 OFFCURVE",
"329 110 OFFCURVE",
"278 110 CURVE SMOOTH",
"218 110 OFFCURVE",
"191 152 OFFCURVE",
"180 211 CURVE",
"38 182 LINE",
"60 66 OFFCURVE",
"135 -12 OFFCURVE",
"278 -12 CURVE SMOOTH",
"420 -12 OFFCURVE",
"513 69 OFFCURVE",
"511 195 CURVE",
"511 698 LINE"
);
}
);
width = 600;
}
);
note = J;
unicode = 004A;
},
{
glyphname = K;
lastChange = "2017-11-24 19:45:46 +0000";
layers = (
{
layerId = "6530489A-D9A3-4CD8-A5AD-1BA8F3B39EAA";
paths = (
{
closed = 1;
nodes = (
"434 0 LINE",
"603 0 LINE",
"384 403 LINE",
"593 698 LINE",
"425 698 LINE",
"302 522 LINE",
"226 406 LINE",
"218 406 LINE",
"218 698 LINE",
"68 698 LINE",
"68 0 LINE",
"218 0 LINE",
"218 204 LINE",
"280 291 LINE"
);
}
);
width = 600;
}
);
note = K;
unicode = 004B;
},
{
glyphname = L;
lastChange = "2017-11-24 19:45:46 +0000";
layers = (
{
layerId = "6530489A-D9A3-4CD8-A5AD-1BA8F3B39EAA";
paths = (
{
closed = 1;
nodes = (
"543 0 LINE",
"543 123 LINE",
"243 123 LINE",
"243 698 LINE",
"92 698 LINE",
"92 0 LINE"
);
}
);
width = 600;
}
);
note = L;
unicode = 004C;
},
{
glyphname = M;
lastChange = "2017-11-24 19:45:46 +0000";
layers = (
{
layerId = "6530489A-D9A3-4CD8-A5AD-1BA8F3B39EAA";
paths = (
{
closed = 1;
nodes = (
"431 0 LINE",
"561 0 LINE",
"561 698 LINE",
"396 698 LINE",
"310 463 LINE",
"302 463 LINE",
"216 698 LINE",
"39 698 LINE",
"39 0 LINE",
"169 0 LINE",
"169 311 LINE",
"161 506 LINE",
"170 506 LINE",
"300 147 LINE",
"430 506 LINE",
"439 506 LINE",
"431 311 LINE"
);
}
);
width = 600;
}
);
note = M;
unicode = 004D;
},
{
glyphname = N;
lastChange = "2017-11-24 19:45:46 +0000";
layers = (
{
layerId = "6530489A-D9A3-4CD8-A5AD-1BA8F3B39EAA";
paths = (
{
closed = 1;
nodes = (
"359 0 LINE",
"539 0 LINE",
"539 698 LINE",
"411 698 LINE",
"411 234 LINE",
"400 234 LINE",
"241 698 LINE",
"61 698 LINE",
"61 0 LINE",
"189 0 LINE",
"189 464 LINE",
"200 464 LINE"
);
}
);
width = 600;
}
);
note = N;
unicode = 004E;
},
{
glyphname = O;
lastChange = "2017-11-24 19:45:46 +0000";
layers = (
{
layerId = "6530489A-D9A3-4CD8-A5AD-1BA8F3B39EAA";
paths = (
{
closed = 1;
nodes = (
"487 -12 OFFCURVE",
"573 121 OFFCURVE",
"573 349 CURVE SMOOTH",
"573 577 OFFCURVE",
"487 710 OFFCURVE",
"300 710 CURVE SMOOTH",
"113 710 OFFCURVE",
"27 577 OFFCURVE",
"27 349 CURVE SMOOTH",
"27 121 OFFCURVE",
"113 -12 OFFCURVE",
"300 -12 CURVE SMOOTH"
);
},
{
closed = 1;
nodes = (
"215 109 OFFCURVE",
"187 176 OFFCURVE",
"187 288 CURVE SMOOTH",
"187 410 LINE SMOOTH",
"187 522 OFFCURVE",
"215 589 OFFCURVE",
"300 589 CURVE SMOOTH",
"385 589 OFFCURVE",
"413 522 OFFCURVE",
"413 410 CURVE SMOOTH",
"413 289 LINE SMOOTH",
"413 176 OFFCURVE",
"385 109 OFFCURVE",
"300 109 CURVE SMOOTH"
);
}
);
width = 600;
}
);
note = O;
unicode = 004F;
},
{
glyphname = P;
lastChange = "2017-11-24 19:45:46 +0000";
layers = (
{
layerId = "6530489A-D9A3-4CD8-A5AD-1BA8F3B39EAA";
paths = (
{
closed = 1;
nodes = (
"227 0 LINE",
"227 254 LINE",
"346 254 LINE SMOOTH",
"483 254 OFFCURVE",
"560 341 OFFCURVE",
"560 476 CURVE SMOOTH",
"560 611 OFFCURVE",
"483 698 OFFCURVE",
"346 698 CURVE SMOOTH",
"76 698 LINE",
"76 0 LINE"
);
},
{
closed = 1;
nodes = (
"227 577 LINE",
"308 577 LINE SMOOTH",
"378 577 OFFCURVE",
"402 552 OFFCURVE",
"402 491 CURVE SMOOTH",
"402 461 LINE SMOOTH",
"402 400 OFFCURVE",
"378 375 OFFCURVE",
"308 375 CURVE SMOOTH",
"227 375 LINE"
);
}
);
width = 600;
}
);
note = P;
unicode = 0050;
},
{
glyphname = Q;
lastChange = "2017-11-24 19:45:46 +0000";
layers = (
{
layerId = "6530489A-D9A3-4CD8-A5AD-1BA8F3B39EAA";
paths = (
{
closed = 1;
nodes = (
"526 -84 LINE",
"365 -84 LINE",
"365 -6 LINE",
"507 22 OFFCURVE",
"573 149 OFFCURVE",
"573 349 CURVE SMOOTH",
"573 577 OFFCURVE",
"487 710 OFFCURVE",
"300 710 CURVE SMOOTH",
"113 710 OFFCURVE",
"27 577 OFFCURVE",
"27 349 CURVE SMOOTH",
"27 149 OFFCURVE",
"93 22 OFFCURVE",
"235 -6 CURVE",
"235 -47 LINE SMOOTH",
"235 -134 OFFCURVE",
"276 -191 OFFCURVE",
"384 -191 CURVE SMOOTH",
"526 -191 LINE"
);
},
{
closed = 1;
nodes = (
"215 109 OFFCURVE",
"187 176 OFFCURVE",
"187 288 CURVE SMOOTH",
"187 410 LINE SMOOTH",
"187 522 OFFCURVE",
"215 589 OFFCURVE",
"300 589 CURVE SMOOTH",
"385 589 OFFCURVE",
"413 522 OFFCURVE",
"413 410 CURVE SMOOTH",
"413 289 LINE SMOOTH",
"413 176 OFFCURVE",
"385 109 OFFCURVE",
"300 109 CURVE SMOOTH"
);
}
);
width = 600;
}
);
note = Q;
unicode = 0051;
},
{
glyphname = R;
lastChange = "2017-11-24 19:45:46 +0000";
layers = (
{
layerId = "6530489A-D9A3-4CD8-A5AD-1BA8F3B39EAA";
paths = (
{
closed = 1;
nodes = (
"224 259 LINE",
"293 259 LINE",
"410 0 LINE",
"574 0 LINE",
"437 279 LINE",
"515 301 OFFCURVE",
"560 378 OFFCURVE",
"560 476 CURVE SMOOTH",
"560 611 OFFCURVE",
"483 698 OFFCURVE",
"346 698 CURVE SMOOTH",
"76 698 LINE",
"76 0 LINE",
"224 0 LINE"
);
},
{
closed = 1;
nodes = (
"224 375 LINE",
"224 577 LINE",
"310 577 LINE SMOOTH",
"380 577 OFFCURVE",
"404 552 OFFCURVE",
"404 491 CURVE SMOOTH",
"404 461 LINE SMOOTH",
"404 400 OFFCURVE",
"380 375 OFFCURVE",
"310 375 CURVE SMOOTH"
);
}
);
width = 600;
}
);
note = R;
unicode = 0052;
},
{
glyphname = S;
lastChange = "2017-11-24 19:45:46 +0000";
layers = (
{
layerId = "6530489A-D9A3-4CD8-A5AD-1BA8F3B39EAA";
paths = (
{
closed = 1;
nodes = (
"464 -12 OFFCURVE",
"556 84 OFFCURVE",
"556 215 CURVE SMOOTH",
"556 325 OFFCURVE",
"491 391 OFFCURVE",
"379 411 CURVE SMOOTH",
"306 424 LINE SMOOTH",
"238 436 OFFCURVE",
"210 457 OFFCURVE",
"210 505 CURVE SMOOTH",
"210 560 OFFCURVE",
"244 588 OFFCURVE",
"311 588 CURVE SMOOTH",
"374 588 OFFCURVE",
"426 563 OFFCURVE",
"463 522 CURVE",
"548 617 LINE",
"499 674 OFFCURVE",
"417 710 OFFCURVE",
"310 710 CURVE SMOOTH",
"152 710 OFFCURVE",
"59 632 OFFCURVE",
"59 498 CURVE SMOOTH",
"59 396 OFFCURVE",
"112 319 OFFCURVE",
"237 298 CURVE SMOOTH",
"310 286 LINE SMOOTH",
"378 275 OFFCURVE",
"404 252 OFFCURVE",
"404 203 CURVE SMOOTH",
"404 143 OFFCURVE",
"365 110 OFFCURVE",
"294 110 CURVE SMOOTH",
"232 110 OFFCURVE",
"169 136 OFFCURVE",
"118 192 CURVE",
"31 96 LINE",
"84 30 OFFCURVE",
"173 -12 OFFCURVE",
"289 -12 CURVE SMOOTH"
);
}
);
width = 600;
}
);
note = S;
unicode = 0053;
},
{
glyphname = T;
lastChange = "2017-11-24 19:45:46 +0000";
layers = (
{
layerId = "6530489A-D9A3-4CD8-A5AD-1BA8F3B39EAA";
paths = (
{
closed = 1;
nodes = (
"576 575 LINE",
"576 698 LINE",
"24 698 LINE",
"24 575 LINE",
"225 575 LINE",
"225 0 LINE",
"375 0 LINE",
"375 575 LINE"
);
}
);
width = 600;
}
);
note = T;
unicode = 0054;
},
{
glyphname = U;
lastChange = "2017-11-24 19:45:46 +0000";
layers = (
{
layerId = "6530489A-D9A3-4CD8-A5AD-1BA8F3B39EAA";
paths = (
{
closed = 1;
nodes = (
"55 698 LINE",
"55 276 LINE SMOOTH",
"55 85 OFFCURVE",
"97 -12 OFFCURVE",
"300 -12 CURVE SMOOTH",
"503 -12 OFFCURVE",
"545 85 OFFCURVE",
"545 276 CURVE SMOOTH",
"545 698 LINE",
"395 698 LINE",
"395 256 LINE SMOOTH",
"395 167 OFFCURVE",
"388 109 OFFCURVE",
"300 109 CURVE SMOOTH",
"212 109 OFFCURVE",
"205 167 OFFCURVE",
"205 256 CURVE SMOOTH",
"205 698 LINE"
);
}
);
width = 600;
}
);
note = U;
unicode = 0055;
},
{
glyphname = V;
lastChange = "2017-11-24 19:45:46 +0000";
layers = (
{
layerId = "6530489A-D9A3-4CD8-A5AD-1BA8F3B39EAA";
paths = (
{
closed = 1;
nodes = (
"406 0 LINE",
"591 698 LINE",
"432 698 LINE",
"349 343 LINE",
"307 142 LINE",
"299 142 LINE",
"258 343 LINE",
"176 698 LINE",
"9 698 LINE",
"194 0 LINE"
);
}
);
width = 600;
}
);
note = V;
unicode = 0056;
},
{
glyphname = W;
lastChange = "2017-11-24 19:45:46 +0000";
layers = (
{
layerId = "6530489A-D9A3-4CD8-A5AD-1BA8F3B39EAA";
paths = (
{
closed = 1;
nodes = (
"244 0 LINE",
"295 385 LINE",
"305 385 LINE",
"356 0 LINE",
"546 0 LINE",
"589 698 LINE",
"465 698 LINE",
"445 276 LINE",
"439 148 LINE",
"430 148 LINE",
"370 546 LINE",
"235 546 LINE",
"175 148 LINE",
"166 148 LINE",
"160 280 LINE",
"140 698 LINE",
"11 698 LINE",
"54 0 LINE"
);
}
);
width = 600;
}
);
note = W;
unicode = 0057;
},
{
glyphname = X;
lastChange = "2017-11-24 19:45:46 +0000";
layers = (
{
layerId = "6530489A-D9A3-4CD8-A5AD-1BA8F3B39EAA";
paths = (
{
closed = 1;
nodes = (
"395 359 LINE",
"578 698 LINE",
"421 698 LINE",
"361 587 LINE",
"309 475 LINE",
"301 475 LINE",
"250 587 LINE",
"193 698 LINE",
"22 698 LINE",
"205 361 LINE",
"9 0 LINE",
"166 0 LINE",
"240 139 LINE",
"290 249 LINE",
"299 249 LINE",
"348 139 LINE",
"420 0 LINE",
"591 0 LINE"
);
}
);
width = 600;
}
);
note = X;
unicode = 0058;
},
{
glyphname = Y;
lastChange = "2017-11-24 19:45:46 +0000";
layers = (
{
layerId = "6530489A-D9A3-4CD8-A5AD-1BA8F3B39EAA";
paths = (
{
closed = 1;
nodes = (
"375 0 LINE",
"375 247 LINE",
"596 698 LINE",
"435 698 LINE",
"361 536 LINE",
"307 399 LINE",
"299 399 LINE",
"245 536 LINE",
"171 698 LINE",
"4 698 LINE",
"225 247 LINE",
"225 0 LINE"
);
}
);
width = 600;
}
);
note = Y;
unicode = 0059;
},
{
glyphname = Z;
lastChange = "2017-11-24 19:45:46 +0000";
layers = (
{
layerId = "6530489A-D9A3-4CD8-A5AD-1BA8F3B39EAA";
paths = (
{
closed = 1;
nodes = (
"551 123 LINE",
"216 123 LINE",
"541 567 LINE",
"541 698 LINE",
"58 698 LINE",
"58 575 LINE",
"373 575 LINE",
"48 131 LINE",
"48 0 LINE",
"551 0 LINE"
);
}
);
width = 600;
}
);
note = Z;
unicode = 005A;
},
{
glyphname = zero;
lastChange = "2017-11-24 19:45:46 +0000";
layers = (
{
layerId = "6530489A-D9A3-4CD8-A5AD-1BA8F3B39EAA";
paths = (
{
closed = 1;
nodes = (
"487 -12 OFFCURVE",
"573 121 OFFCURVE",
"573 349 CURVE SMOOTH",
"573 577 OFFCURVE",
"487 710 OFFCURVE",
"300 710 CURVE SMOOTH",
"113 710 OFFCURVE",
"27 577 OFFCURVE",
"27 349 CURVE SMOOTH",
"27 121 OFFCURVE",
"113 -12 OFFCURVE",
"300 -12 CURVE SMOOTH"
);
},
{
closed = 1;
nodes = (
"211 106 OFFCURVE",
"180 173 OFFCURVE",
"180 284 CURVE SMOOTH",
"180 414 LINE SMOOTH",
"180 525 OFFCURVE",
"211 592 OFFCURVE",
"300 592 CURVE SMOOTH",
"389 592 OFFCURVE",
"420 525 OFFCURVE",
"420 414 CURVE SMOOTH",
"420 284 LINE SMOOTH",
"420 173 OFFCURVE",
"389 106 OFFCURVE",
"300 106 CURVE SMOOTH"
);
},
{
closed = 1;
nodes = (
"346 290 OFFCURVE",
"362 311 OFFCURVE",
"362 338 CURVE SMOOTH",
"362 360 LINE SMOOTH",
"362 387 OFFCURVE",
"346 408 OFFCURVE",
"300 408 CURVE SMOOTH",
"254 408 OFFCURVE",
"238 387 OFFCURVE",
"238 360 CURVE SMOOTH",
"238 338 LINE SMOOTH",
"238 311 OFFCURVE",
"254 290 OFFCURVE",
"300 290 CURVE SMOOTH"
);
}
);
width = 600;
}
);
note = zero;
unicode = 0030;
},
{
glyphname = zero.alt01;
lastChange = "2017-11-24 19:45:46 +0000";
layers = (
{
layerId = "6530489A-D9A3-4CD8-A5AD-1BA8F3B39EAA";
paths = (
{
closed = 1;
nodes = (
"487 -12 OFFCURVE",
"573 121 OFFCURVE",
"573 349 CURVE SMOOTH",
"573 577 OFFCURVE",
"487 710 OFFCURVE",
"300 710 CURVE SMOOTH",
"113 710 OFFCURVE",
"27 577 OFFCURVE",
"27 349 CURVE SMOOTH",
"27 121 OFFCURVE",
"113 -12 OFFCURVE",
"300 -12 CURVE SMOOTH"
);
},
{
closed = 1;
nodes = (
"353 597 OFFCURVE",
"387 574 OFFCURVE",
"405 533 CURVE",
"175 282 LINE",
"174 286 OFFCURVE",
"174 289 OFFCURVE",
"174 292 CURVE SMOOTH",
"174 414 LINE SMOOTH",
"174 529 OFFCURVE",
"207 597 OFFCURVE",
"300 597 CURVE SMOOTH"
);
},
{
closed = 1;
nodes = (
"247 101 OFFCURVE",
"213 124 OFFCURVE",
"195 165 CURVE",
"425 416 LINE",
"426 412 OFFCURVE",
"426 409 OFFCURVE",
"426 406 CURVE SMOOTH",
"426 284 LINE SMOOTH",
"426 169 OFFCURVE",
"393 101 OFFCURVE",
"300 101 CURVE SMOOTH"
);
}
);
width = 600;
}
);
note = zero.alt01;
},
{
glyphname = zero.alt02;
lastChange = "2017-11-24 19:45:46 +0000";
layers = (
{
layerId = "6530489A-D9A3-4CD8-A5AD-1BA8F3B39EAA";
paths = (
{
closed = 1;
nodes = (
"487 -12 OFFCURVE",
"573 121 OFFCURVE",
"573 349 CURVE SMOOTH",
"573 577 OFFCURVE",
"487 710 OFFCURVE",
"300 710 CURVE SMOOTH",
"113 710 OFFCURVE",
"27 577 OFFCURVE",
"27 349 CURVE SMOOTH",
"27 121 OFFCURVE",
"113 -12 OFFCURVE",
"300 -12 CURVE SMOOTH"
);
},
{
closed = 1;
nodes = (
"215 109 OFFCURVE",
"187 176 OFFCURVE",
"187 288 CURVE SMOOTH",
"187 410 LINE SMOOTH",
"187 522 OFFCURVE",
"215 589 OFFCURVE",
"300 589 CURVE SMOOTH",
"385 589 OFFCURVE",
"413 522 OFFCURVE",
"413 410 CURVE SMOOTH",
"413 289 LINE SMOOTH",
"413 176 OFFCURVE",
"385 109 OFFCURVE",
"300 109 CURVE SMOOTH"
);
}
);
width = 600;
}
);
note = zero.alt02;
},
{
glyphname = one;
lastChange = "2017-11-24 19:45:46 +0000";
layers = (
{
layerId = "6530489A-D9A3-4CD8-A5AD-1BA8F3B39EAA";
paths = (
{
closed = 1;
nodes = (
"562 0 LINE",
"562 121 LINE",
"404 121 LINE",
"404 698 LINE",
"246 698 LINE",
"35 583 LINE",
"92 475 LINE",
"254 564 LINE",
"254 121 LINE",
"76 121 LINE",
"76 0 LINE"
);
}
);
width = 600;
}
);
note = one;
unicode = 0031;
},
{
glyphname = two;
lastChange = "2017-11-24 19:45:46 +0000";
layers = (
{
layerId = "6530489A-D9A3-4CD8-A5AD-1BA8F3B39EAA";
paths = (
{
closed = 1;
nodes = (
"555 126 LINE",
"219 126 LINE",
"352 229 LINE SMOOTH",
"457 309 OFFCURVE",
"540 384 OFFCURVE",
"540 500 CURVE SMOOTH",
"540 621 OFFCURVE",
"452 710 OFFCURVE",
"299 710 CURVE SMOOTH",
"151 710 OFFCURVE",
"69 628 OFFCURVE",
"38 532 CURVE",
"169 482 LINE",
"184 535 OFFCURVE",
"217 580 OFFCURVE",
"284 580 CURVE SMOOTH",
"342 580 OFFCURVE",
"380 549 OFFCURVE",
"380 491 CURVE SMOOTH",
"380 481 LINE SMOOTH",
"380 428 OFFCURVE",
"349 385 OFFCURVE",
"273 320 CURVE SMOOTH",
"53 137 LINE",
"53 0 LINE",
"555 0 LINE"
);
}
);
width = 600;
}
);
note = two;
unicode = 0032;
},
{
glyphname = three;
lastChange = "2017-11-24 19:45:46 +0000";
layers = (
{
layerId = "6530489A-D9A3-4CD8-A5AD-1BA8F3B39EAA";
paths = (
{
closed = 1;
nodes = (
"207 422 LINE",
"207 297 LINE",
"272 297 LINE SMOOTH",
"350 297 OFFCURVE",
"397 268 OFFCURVE",
"397 211 CURVE SMOOTH",
"397 204 LINE SMOOTH",
"397 146 OFFCURVE",
"356 110 OFFCURVE",
"285 110 CURVE SMOOTH",
"208 110 OFFCURVE",
"166 151 OFFCURVE",
"135 208 CURVE",
"24 122 LINE",
"69 52 OFFCURVE",
"142 -12 OFFCURVE",
"282 -12 CURVE SMOOTH",
"447 -12 OFFCURVE",
"555 69 OFFCURVE",
"555 194 CURVE SMOOTH",
"555 290 OFFCURVE",
"491 347 OFFCURVE",
"406 362 CURVE",
"406 368 LINE",
"480 381 OFFCURVE",
"542 436 OFFCURVE",
"542 525 CURVE SMOOTH",
"542 637 OFFCURVE",
"443 710 OFFCURVE",
"292 710 CURVE SMOOTH",
"170 710 OFFCURVE",
"101 662 OFFCURVE",
"47 593 CURVE",
"142 505 LINE",
"177 558 OFFCURVE",
"229 588 OFFCURVE",
"286 588 CURVE SMOOTH",
"348 588 OFFCURVE",
"384 555 OFFCURVE",
"384 505 CURVE SMOOTH",
"384 498 LINE SMOOTH",
"384 455 OFFCURVE",
"350 422 OFFCURVE",
"273 422 CURVE SMOOTH"
);
}
);
width = 600;
}
);
note = three;
unicode = 0033;
},
{
glyphname = four;
lastChange = "2017-11-24 19:45:46 +0000";
layers = (
{
layerId = "6530489A-D9A3-4CD8-A5AD-1BA8F3B39EAA";
paths = (
{
closed = 1;
nodes = (
"483 0 LINE",
"483 134 LINE",
"573 134 LINE",
"573 250 LINE",
"483 250 LINE",
"483 698 LINE",
"303 698 LINE",
"25 262 LINE",
"25 134 LINE",
"339 134 LINE",
"339 0 LINE"
);
},
{
closed = 1;
nodes = (
"330 543 LINE",
"339 543 LINE",
"339 250 LINE",
"146 250 LINE"
);
}
);
width = 600;
}
);
note = four;
unicode = 0034;
},
{
glyphname = five;
lastChange = "2017-11-24 19:45:46 +0000";
layers = (
{
layerId = "6530489A-D9A3-4CD8-A5AD-1BA8F3B39EAA";
paths = (
{
closed = 1;
nodes = (
"525 698 LINE",
"92 698 LINE",
"66 303 LINE",
"189 286 LINE",
"208 307 OFFCURVE",
"244 335 OFFCURVE",
"300 335 CURVE SMOOTH",
"367 335 OFFCURVE",
"409 295 OFFCURVE",
"409 230 CURVE SMOOTH",
"409 222 LINE SMOOTH",
"409 154 OFFCURVE",
"370 110 OFFCURVE",
"296 110 CURVE SMOOTH",
"222 110 OFFCURVE",
"182 154 OFFCURVE",
"151 208 CURVE",
"42 122 LINE",
"85 52 OFFCURVE",
"158 -12 OFFCURVE",
"295 -12 CURVE SMOOTH",
"469 -12 OFFCURVE",
"567 93 OFFCURVE",
"567 234 CURVE SMOOTH",
"567 374 OFFCURVE",
"469 456 OFFCURVE",
"354 456 CURVE SMOOTH",
"268 456 OFFCURVE",
"224 411 OFFCURVE",
"195 346 CURVE",
"186 346 LINE",
"202 567 LINE",
"525 567 LINE"
);
}
);
width = 600;
}
);
note = five;
unicode = 0035;
},
{
glyphname = six;
lastChange = "2017-11-24 19:45:46 +0000";
layers = (
{
layerId = "6530489A-D9A3-4CD8-A5AD-1BA8F3B39EAA";
paths = (
{
closed = 1;
nodes = (
"465 -12 OFFCURVE",
"569 90 OFFCURVE",
"569 232 CURVE SMOOTH",
"569 365 OFFCURVE",
"479 450 OFFCURVE",
"362 450 CURVE SMOOTH",
"271 450 OFFCURVE",
"229 398 OFFCURVE",
"204 345 CURVE",
"195 348 LINE",
"224 483 OFFCURVE",
"327 577 OFFCURVE",
"500 698 CURVE",
"293 698 LINE",
"172 617 OFFCURVE",
"38 461 OFFCURVE",
"38 265 CURVE SMOOTH",
"38 97 OFFCURVE",
"136 -12 OFFCURVE",
"304 -12 CURVE SMOOTH"
);
},
{
closed = 1;
nodes = (
"232 105 OFFCURVE",
"194 145 OFFCURVE",
"194 214 CURVE SMOOTH",
"194 228 LINE SMOOTH",
"194 297 OFFCURVE",
"235 335 OFFCURVE",
"303 335 CURVE SMOOTH",
"373 335 OFFCURVE",
"413 297 OFFCURVE",
"413 228 CURVE SMOOTH",
"413 214 LINE SMOOTH",
"413 145 OFFCURVE",
"375 105 OFFCURVE",
"303 105 CURVE SMOOTH"
);
}
);
width = 600;
}
);
note = six;
unicode = 0036;
},
{
glyphname = seven;
lastChange = "2017-11-24 19:45:46 +0000";
layers = (
{
layerId = "6530489A-D9A3-4CD8-A5AD-1BA8F3B39EAA";
paths = (
{
closed = 1;
nodes = (
"322 0 LINE",
"553 568 LINE",
"553 698 LINE",
"51 698 LINE",
"51 449 LINE",
"178 449 LINE",
"178 576 LINE",
"404 576 LINE",
"164 0 LINE"
);
}
);
width = 600;
}
);
note = seven;
unicode = 0037;
},
{
glyphname = eight;
lastChange = "2017-11-24 19:45:46 +0000";
layers = (
{
layerId = "6530489A-D9A3-4CD8-A5AD-1BA8F3B39EAA";
paths = (
{
closed = 1;
nodes = (
"468 -12 OFFCURVE",
"564 74 OFFCURVE",
"564 192 CURVE SMOOTH",
"564 282 OFFCURVE",
"506 338 OFFCURVE",
"425 360 CURVE",
"425 368 LINE",
"494 393 OFFCURVE",
"543 445 OFFCURVE",
"543 526 CURVE SMOOTH",
"543 633 OFFCURVE",
"456 710 OFFCURVE",
"300 710 CURVE SMOOTH",
"144 710 OFFCURVE",
"57 633 OFFCURVE",
"57 526 CURVE SMOOTH",
"57 445 OFFCURVE",
"106 393 OFFCURVE",
"175 368 CURVE",
"175 360 LINE",
"94 338 OFFCURVE",
"36 282 OFFCURVE",
"36 192 CURVE SMOOTH",
"36 74 OFFCURVE",
"132 -12 OFFCURVE",
"300 -12 CURVE SMOOTH"
);
},
{
closed = 1;
nodes = (
"231 103 OFFCURVE",
"193 138 OFFCURVE",
"193 192 CURVE SMOOTH",
"193 212 LINE SMOOTH",
"193 267 OFFCURVE",
"230 301 OFFCURVE",
"300 301 CURVE SMOOTH",
"370 301 OFFCURVE",
"407 267 OFFCURVE",
"407 212 CURVE SMOOTH",
"407 192 LINE SMOOTH",
"407 138 OFFCURVE",
"369 103 OFFCURVE",
"300 103 CURVE SMOOTH"
);
},
{
closed = 1;
nodes = (
"234 411 OFFCURVE",
"198 444 OFFCURVE",
"198 496 CURVE SMOOTH",
"198 511 LINE SMOOTH",
"198 563 OFFCURVE",
"235 595 OFFCURVE",
"300 595 CURVE SMOOTH",
"365 595 OFFCURVE",
"402 563 OFFCURVE",
"402 511 CURVE SMOOTH",
"402 496 LINE SMOOTH",
"402 444 OFFCURVE",
"366 411 OFFCURVE",
"300 411 CURVE SMOOTH"
);
}
);
width = 600;
}
);
note = eight;
unicode = 0038;
},
{
glyphname = nine;
lastChange = "2017-11-24 19:45:46 +0000";
layers = (
{
layerId = "6530489A-D9A3-4CD8-A5AD-1BA8F3B39EAA";
paths = (
{
closed = 1;
nodes = (
"562 601 OFFCURVE",
"464 710 OFFCURVE",
"296 710 CURVE SMOOTH",
"135 710 OFFCURVE",
"31 608 OFFCURVE",
"31 466 CURVE SMOOTH",
"31 333 OFFCURVE",
"121 248 OFFCURVE",
"238 248 CURVE SMOOTH",
"329 248 OFFCURVE",
"371 300 OFFCURVE",
"396 353 CURVE",
"405 350 LINE",
"376 215 OFFCURVE",
"273 121 OFFCURVE",
"100 0 CURVE",
"307 0 LINE",
"428 81 OFFCURVE",
"562 237 OFFCURVE",
"562 433 CURVE SMOOTH"
);
},
{
closed = 1;
nodes = (
"227 363 OFFCURVE",
"187 401 OFFCURVE",
"187 470 CURVE SMOOTH",
"187 484 LINE SMOOTH",
"187 553 OFFCURVE",
"225 593 OFFCURVE",
"297 593 CURVE SMOOTH",
"368 593 OFFCURVE",
"406 553 OFFCURVE",
"406 484 CURVE SMOOTH",
"406 470 LINE SMOOTH",
"406 401 OFFCURVE",
"365 363 OFFCURVE",
"297 363 CURVE SMOOTH"
);
}
);
width = 600;
}
);
note = nine;
unicode = 0039;
},
{
glyphname = ampersand;
lastChange = "2017-11-24 19:45:46 +0000";
layers = (
{
layerId = "6530489A-D9A3-4CD8-A5AD-1BA8F3B39EAA";
paths = (
{
closed = 1;
nodes = (
"289 -12 OFFCURVE",
"345 29 OFFCURVE",
"354 97 CURVE",
"361 97 LINE",
"441 0 LINE",
"599 0 LINE",
"469 158 LINE",
"490 205 OFFCURVE",
"503 250 OFFCURVE",
"510 292 CURVE",
"580 292 LINE",
"580 402 LINE",
"402 402 LINE",
"402 358 OFFCURVE",
"399 288 OFFCURVE",
"391 243 CURVE",
"385 243 LINE",
"337 317 LINE",
"280 389 LINE SMOOTH",
"217 469 OFFCURVE",
"197 492 OFFCURVE",
"197 530 CURVE SMOOTH",
"197 535 LINE SMOOTH",
"197 573 OFFCURVE",
"224 600 OFFCURVE",
"264 600 CURVE SMOOTH",
"304 600 OFFCURVE",
"337 574 OFFCURVE",
"351 531 CURVE",
"453 586 LINE",
"432 650 OFFCURVE",
"362 710 OFFCURVE",
"262 710 CURVE SMOOTH",
"150 710 OFFCURVE",
"67 634 OFFCURVE",
"67 534 CURVE SMOOTH",
"67 483 OFFCURVE",
"89 440 OFFCURVE",
"132 381 CURVE",
"55 336 OFFCURVE",
"14 274 OFFCURVE",
"14 190 CURVE SMOOTH",
"14 82 OFFCURVE",
"82 -12 OFFCURVE",
"207 -12 CURVE SMOOTH"
);
},
{
closed = 1;
nodes = (
"187 101 OFFCURVE",
"150 135 OFFCURVE",
"150 198 CURVE SMOOTH",
"150 200 LINE SMOOTH",
"150 238 OFFCURVE",
"158 272 OFFCURVE",
"192 305 CURVE",
"321 141 LINE",
"303 111 OFFCURVE",
"274 101 OFFCURVE",
"244 101 CURVE SMOOTH"
);
}
);
width = 600;
}
);
note = ampersand;
unicode = 0026;
},
{
glyphname = at;
lastChange = "2017-11-24 19:45:46 +0000";
layers = (
{
layerId = "6530489A-D9A3-4CD8-A5AD-1BA8F3B39EAA";
paths = (
{
closed = 1;
nodes = (
"446 -17 LINE",
"341 -17 LINE SMOOTH",
"203 -17 OFFCURVE",
"150 74 OFFCURVE",
"150 229 CURVE SMOOTH",
"150 358 LINE SMOOTH",
"150 559 OFFCURVE",
"209 615 OFFCURVE",
"307 615 CURVE SMOOTH",
"390 615 OFFCURVE",
"446 576 OFFCURVE",
"446 463 CURVE SMOOTH",
"446 436 LINE",
"439 436 LINE",
"424 485 OFFCURVE",
"391 509 OFFCURVE",
"345 509 CURVE SMOOTH",
"267 509 OFFCURVE",
"221 442 OFFCURVE",
"221 294 CURVE SMOOTH",
"221 146 OFFCURVE",
"267 79 OFFCURVE",
"345 79 CURVE SMOOTH",
"391 79 OFFCURVE",
"424 103 OFFCURVE",
"439 152 CURVE",
"446 152 LINE",
"446 91 LINE",
"553 91 LINE",
"553 463 LINE SMOOTH",
"553 602 OFFCURVE",
"474 710 OFFCURVE",
"301 710 CURVE SMOOTH",
"132 710 OFFCURVE",
"38 608 OFFCURVE",
"38 305 CURVE SMOOTH",
"38 24 OFFCURVE",
"119 -113 OFFCURVE",
"341 -113 CURVE SMOOTH",
"446 -113 LINE"
);
},
{
closed = 1;
nodes = (
"353 165 OFFCURVE",
"333 187 OFFCURVE",
"333 261 CURVE SMOOTH",
"333 327 LINE SMOOTH",
"333 401 OFFCURVE",
"353 423 OFFCURVE",
"389 423 CURVE SMOOTH",
"426 423 OFFCURVE",
"446 400 OFFCURVE",
"446 364 CURVE SMOOTH",
"446 224 LINE SMOOTH",
"446 188 OFFCURVE",
"426 165 OFFCURVE",
"389 165 CURVE SMOOTH"
);
}
);
width = 600;
}
);
note = at;
unicode = 0040;
},
{
glyphname = hyphen;
lastChange = "2017-11-24 19:45:46 +0000";
layers = (
{
layerId = "6530489A-D9A3-4CD8-A5AD-1BA8F3B39EAA";
paths = (
{
closed = 1;
nodes = (
"460 234 LINE",
"460 376 LINE",
"140 376 LINE",
"140 234 LINE"
);
}
);
width = 600;
}
);
note = hyphen;
unicode = 002D;
},
{
glyphname = uni00AD;
lastChange = "2017-11-24 19:45:46 +0000";
layers = (
{
layerId = "6530489A-D9A3-4CD8-A5AD-1BA8F3B39EAA";
paths = (
{
closed = 1;
nodes = (
"460 234 LINE",
"460 376 LINE",
"140 376 LINE",
"140 234 LINE"
);
}
);
width = 600;
}
);
note = uni00AD;
unicode = 00AD;
},
{
glyphname = endash;
lastChange = "2017-11-24 19:45:46 +0000";
layers = (
{
layerId = "6530489A-D9A3-4CD8-A5AD-1BA8F3B39EAA";
paths = (
{
closed = 1;
nodes = (
"540 244 LINE",
"540 365 LINE",
"60 365 LINE",
"60 244 LINE"
);
}
);
width = 600;
}
);
note = endash;
unicode = 2013;
},
{
glyphname = emdash;
lastChange = "2017-11-24 19:45:46 +0000";
layers = (
{
layerId = "6530489A-D9A3-4CD8-A5AD-1BA8F3B39EAA";
paths = (
{
closed = 1;
nodes = (
"600 244 LINE",
"600 365 LINE",
"0 365 LINE",
"0 244 LINE"
);
}
);
width = 600;
}
);
note = emdash;
unicode = 2014;
},
{
glyphname = underscore;
lastChange = "2017-11-24 19:45:46 +0000";
layers = (
{
layerId = "6530489A-D9A3-4CD8-A5AD-1BA8F3B39EAA";
paths = (
{
closed = 1;
nodes = (
"540 -192 LINE",
"540 -71 LINE",
"60 -71 LINE",
"60 -192 LINE"
);
}
);
width = 600;
}
);
note = underscore;
unicode = 005F;
},
{
glyphname = period;
lastChange = "2017-11-24 19:45:46 +0000";
layers = (
{
layerId = "6530489A-D9A3-4CD8-A5AD-1BA8F3B39EAA";
paths = (
{
closed = 1;
nodes = (
"375 -12 OFFCURVE",
"405 26 OFFCURVE",
"405 71 CURVE SMOOTH",
"405 106 LINE SMOOTH",
"405 151 OFFCURVE",
"375 189 OFFCURVE",
"300 189 CURVE SMOOTH",
"225 189 OFFCURVE",
"195 151 OFFCURVE",
"195 106 CURVE SMOOTH",
"195 71 LINE SMOOTH",
"195 26 OFFCURVE",
"225 -12 OFFCURVE",
"300 -12 CURVE SMOOTH"
);
}
);
width = 600;
}
);
note = period;
unicode = 002E;
},
{
glyphname = ellipsis;
lastChange = "2017-11-24 19:45:46 +0000";
layers = (
{
layerId = "6530489A-D9A3-4CD8-A5AD-1BA8F3B39EAA";
paths = (
{
closed = 1;
nodes = (
"150 -7 OFFCURVE",
"174 18 OFFCURVE",
"174 47 CURVE SMOOTH",
"174 93 LINE SMOOTH",
"174 122 OFFCURVE",
"150 147 OFFCURVE",
"102 147 CURVE SMOOTH",
"52 147 OFFCURVE",
"29 122 OFFCURVE",
"29 93 CURVE SMOOTH",
"29 47 LINE SMOOTH",
"29 18 OFFCURVE",
"52 -7 OFFCURVE",
"102 -7 CURVE SMOOTH"
);
},
{
closed = 1;
nodes = (
"349 -7 OFFCURVE",
"373 18 OFFCURVE",
"373 47 CURVE SMOOTH",
"373 93 LINE SMOOTH",
"373 122 OFFCURVE",
"349 147 OFFCURVE",
"300 147 CURVE SMOOTH",
"251 147 OFFCURVE",
"227 122 OFFCURVE",
"227 93 CURVE SMOOTH",
"227 47 LINE SMOOTH",
"227 18 OFFCURVE",
"251 -7 OFFCURVE",
"300 -7 CURVE SMOOTH"
);
},
{
closed = 1;
nodes = (
"547 -7 OFFCURVE",
"571 18 OFFCURVE",
"571 47 CURVE SMOOTH",
"571 93 LINE SMOOTH",
"571 122 OFFCURVE",
"547 147 OFFCURVE",
"498 147 CURVE SMOOTH",
"450 147 OFFCURVE",
"426 122 OFFCURVE",
"426 93 CURVE SMOOTH",
"426 47 LINE SMOOTH",
"426 18 OFFCURVE",
"450 -7 OFFCURVE",
"498 -7 CURVE SMOOTH"
);
}
);
width = 600;
}
);
note = ellipsis;
unicode = 2026;
},
{
glyphname = colon;
lastChange = "2017-11-24 19:45:46 +0000";
layers = (
{
layerId = "6530489A-D9A3-4CD8-A5AD-1BA8F3B39EAA";
paths = (
{
closed = 1;
nodes = (
"375 327 OFFCURVE",
"405 365 OFFCURVE",
"405 410 CURVE SMOOTH",
"405 445 LINE SMOOTH",
"405 490 OFFCURVE",
"375 528 OFFCURVE",
"300 528 CURVE SMOOTH",
"225 528 OFFCURVE",
"195 490 OFFCURVE",
"195 445 CURVE SMOOTH",
"195 410 LINE SMOOTH",
"195 365 OFFCURVE",
"225 327 OFFCURVE",
"300 327 CURVE SMOOTH"
);
},
{
closed = 1;
nodes = (
"375 -12 OFFCURVE",
"405 26 OFFCURVE",
"405 71 CURVE SMOOTH",
"405 106 LINE SMOOTH",
"405 151 OFFCURVE",
"375 189 OFFCURVE",
"300 189 CURVE SMOOTH",
"225 189 OFFCURVE",
"195 151 OFFCURVE",
"195 106 CURVE SMOOTH",
"195 71 LINE SMOOTH",
"195 26 OFFCURVE",
"225 -12 OFFCURVE",
"300 -12 CURVE SMOOTH"
);
}
);
width = 600;
}
);
note = colon;
unicode = 003A;
},
{
glyphname = comma;
lastChange = "2017-11-24 19:45:46 +0000";
layers = (
{
layerId = "6530489A-D9A3-4CD8-A5AD-1BA8F3B39EAA";
paths = (
{
closed = 1;
nodes = (
"170 -151 LINE",
"280 -151 LINE",
"417 174 LINE",
"227 174 LINE"
);
}
);
width = 600;
}
);
note = comma;
unicode = 002C;
},
{
glyphname = semicolon;
lastChange = "2017-11-24 19:45:46 +0000";
layers = (
{
layerId = "6530489A-D9A3-4CD8-A5AD-1BA8F3B39EAA";
paths = (
{
closed = 1;
nodes = (
"375 327 OFFCURVE",
"405 365 OFFCURVE",
"405 410 CURVE SMOOTH",
"405 445 LINE SMOOTH",
"405 490 OFFCURVE",
"375 528 OFFCURVE",
"300 528 CURVE SMOOTH",
"225 528 OFFCURVE",
"195 490 OFFCURVE",
"195 445 CURVE SMOOTH",
"195 410 LINE SMOOTH",
"195 365 OFFCURVE",
"225 327 OFFCURVE",
"300 327 CURVE SMOOTH"
);
},
{
closed = 1;
nodes = (
"170 -151 LINE",
"280 -151 LINE",
"417 174 LINE",
"227 174 LINE"
);
}
);
width = 600;
}
);
note = semicolon;
unicode = 003B;
},
{
glyphname = quotesingle;
lastChange = "2017-11-24 19:45:46 +0000";
layers = (
{
layerId = "6530489A-D9A3-4CD8-A5AD-1BA8F3B39EAA";
paths = (
{
closed = 1;
nodes = (
"366 414 LINE",
"366 740 LINE",
"234 740 LINE",
"234 414 LINE"
);
}
);
width = 600;
}
);
note = quotesingle;
unicode = 0027;
},
{
glyphname = quotedbl;
lastChange = "2017-11-24 19:45:46 +0000";
layers = (
{
layerId = "6530489A-D9A3-4CD8-A5AD-1BA8F3B39EAA";
paths = (
{
closed = 1;
nodes = (
"479 414 LINE",
"479 740 LINE",
"347 740 LINE",
"347 414 LINE"
);
},
{
closed = 1;
nodes = (
"253 414 LINE",
"253 740 LINE",
"121 740 LINE",
"121 414 LINE"
);
}
);
width = 600;
}
);
note = quotedbl;
unicode = 0022;
},
{
glyphname = quoteleft;
lastChange = "2017-11-24 19:45:46 +0000";
layers = (
{
layerId = "6530489A-D9A3-4CD8-A5AD-1BA8F3B39EAA";
paths = (
{
closed = 1;
nodes = (
"162 414 LINE",
"352 414 LINE",
"409 740 LINE",
"300 740 LINE"
);
}
);
width = 600;
}
);
note = quoteleft;
unicode = 2018;
},
{
glyphname = quoteright;
lastChange = "2017-11-24 19:45:46 +0000";
layers = (
{
layerId = "6530489A-D9A3-4CD8-A5AD-1BA8F3B39EAA";
paths = (
{
closed = 1;
nodes = (
"191 414 LINE",
"300 414 LINE",
"438 740 LINE",
"248 740 LINE"
);
}
);
width = 600;
}
);
note = quoteright;
unicode = 2019;
},
{
glyphname = quotedblleft;
lastChange = "2017-11-24 19:45:46 +0000";
layers = (
{
layerId = "6530489A-D9A3-4CD8-A5AD-1BA8F3B39EAA";
paths = (
{
closed = 1;
nodes = (
"292 414 LINE",
"482 414 LINE",
"539 740 LINE",
"430 740 LINE"
);
},
{
closed = 1;
nodes = (
"33 414 LINE",
"223 414 LINE",
"280 740 LINE",
"171 740 LINE"
);
}
);
width = 600;
}
);
note = quotedblleft;
unicode = 201C;
},
{
glyphname = quotedblright;
lastChange = "2017-11-24 19:45:46 +0000";
layers = (
{
layerId = "6530489A-D9A3-4CD8-A5AD-1BA8F3B39EAA";
paths = (
{
closed = 1;
nodes = (
"321 414 LINE",
"430 414 LINE",
"568 740 LINE",
"378 740 LINE"
);
},
{
closed = 1;
nodes = (
"62 414 LINE",
"171 414 LINE",
"309 740 LINE",
"119 740 LINE"
);
}
);
width = 600;
}
);
note = quotedblright;
unicode = 201D;
},
{
glyphname = quotesinglbase;
lastChange = "2017-11-24 19:45:46 +0000";
layers = (
{
layerId = "6530489A-D9A3-4CD8-A5AD-1BA8F3B39EAA";
paths = (
{
closed = 1;
nodes = (
"170 -151 LINE",
"280 -151 LINE",
"417 174 LINE",
"227 174 LINE"
);
}
);
width = 600;
}
);
note = quotesinglbase;
unicode = 201A;
},
{
glyphname = quotedblbase;
lastChange = "2017-11-24 19:45:46 +0000";
layers = (
{
layerId = "6530489A-D9A3-4CD8-A5AD-1BA8F3B39EAA";
paths = (
{
closed = 1;
nodes = (
"303 -151 LINE",
"413 -151 LINE",
"550 174 LINE",
"360 174 LINE"
);
},
{
closed = 1;
nodes = (
"44 -151 LINE",
"154 -151 LINE",
"291 174 LINE",
"101 174 LINE"
);
}
);
width = 600;
}
);
note = quotedblbase;
unicode = 201E;
},
{
glyphname = guilsinglleft;
lastChange = "2017-11-24 19:45:46 +0000";
layers = (
{
layerId = "6530489A-D9A3-4CD8-A5AD-1BA8F3B39EAA";
paths = (
{
closed = 1;
nodes = (
"418 133 LINE",
"288 272 LINE",
"418 410 LINE",
"373 506 LINE",
"173 338 LINE",
"173 206 LINE",
"373 38 LINE"
);
}
);
width = 600;
}
);
note = guilsinglleft;
unicode = 2039;
},
{
glyphname = guilsinglright;
lastChange = "2017-11-24 19:45:46 +0000";
layers = (
{
layerId = "6530489A-D9A3-4CD8-A5AD-1BA8F3B39EAA";
paths = (
{
closed = 1;
nodes = (
"227 38 LINE",
"427 206 LINE",
"427 338 LINE",
"227 506 LINE",
"182 410 LINE",
"312 272 LINE",
"182 133 LINE"
);
}
);
width = 600;
}
);
note = guilsinglright;
unicode = 203A;
},
{
glyphname = guillemotleft;
lastChange = "2017-11-24 19:45:46 +0000";
layers = (
{
layerId = "6530489A-D9A3-4CD8-A5AD-1BA8F3B39EAA";
paths = (
{
closed = 1;
nodes = (
"551 133 LINE",
"421 272 LINE",
"551 410 LINE",
"506 506 LINE",
"306 338 LINE",
"306 206 LINE",
"506 38 LINE"
);
},
{
closed = 1;
nodes = (
"304 133 LINE",
"174 272 LINE",
"304 410 LINE",
"259 506 LINE",
"59 338 LINE",
"59 206 LINE",
"259 38 LINE"
);
}
);
width = 600;
}
);
note = guillemotleft;
unicode = 00AB;
},
{
glyphname = guillemotright;
lastChange = "2017-11-24 19:45:46 +0000";
layers = (
{
layerId = "6530489A-D9A3-4CD8-A5AD-1BA8F3B39EAA";
paths = (
{
closed = 1;
nodes = (
"341 38 LINE",
"541 206 LINE",
"541 338 LINE",
"341 506 LINE",
"296 410 LINE",
"426 272 LINE",
"296 133 LINE"
);
},
{
closed = 1;
nodes = (
"94 38 LINE",
"294 206 LINE",
"294 338 LINE",
"94 506 LINE",
"49 410 LINE",
"179 272 LINE",
"49 133 LINE"
);
}
);
width = 600;
}
);
note = guillemotright;
unicode = 00BB;
},
{
glyphname = exclamdown;
lastChange = "2017-11-24 19:45:46 +0000";
layers = (
{
layerId = "6530489A-D9A3-4CD8-A5AD-1BA8F3B39EAA";
paths = (
{
closed = 1;
nodes = (
"381 -182 LINE",
"381 21 LINE",
"324 273 LINE",
"276 273 LINE",
"219 21 LINE",
"219 -182 LINE"
);
},
{
closed = 1;
nodes = (
"371 341 OFFCURVE",
"398 376 OFFCURVE",
"398 418 CURVE SMOOTH",
"398 450 LINE SMOOTH",
"398 493 OFFCURVE",
"371 528 OFFCURVE",
"300 528 CURVE SMOOTH",
"229 528 OFFCURVE",
"202 493 OFFCURVE",
"202 450 CURVE SMOOTH",
"202 418 LINE SMOOTH",
"202 376 OFFCURVE",
"229 341 OFFCURVE",
"300 341 CURVE SMOOTH"
);
}
);
width = 600;
}
);
note = exclamdown;
unicode = 00A1;
},
{
glyphname = exclam;
lastChange = "2017-11-24 19:45:46 +0000";
layers = (
{
layerId = "6530489A-D9A3-4CD8-A5AD-1BA8F3B39EAA";
paths = (
{
closed = 1;
nodes = (
"324 243 LINE",
"381 495 LINE",
"381 698 LINE",
"219 698 LINE",
"219 495 LINE",
"276 243 LINE"
);
},
{
closed = 1;
nodes = (
"371 -12 OFFCURVE",
"398 23 OFFCURVE",
"398 66 CURVE SMOOTH",
"398 98 LINE SMOOTH",
"398 140 OFFCURVE",
"371 175 OFFCURVE",
"300 175 CURVE SMOOTH",
"229 175 OFFCURVE",
"202 140 OFFCURVE",
"202 98 CURVE SMOOTH",
"202 66 LINE SMOOTH",
"202 23 OFFCURVE",
"229 -12 OFFCURVE",
"300 -12 CURVE SMOOTH"
);
}
);
width = 600;
}
);
note = exclam;
unicode = 0021;
},
{
glyphname = questiondown;
lastChange = "2017-11-24 19:45:46 +0000";
layers = (
{
layerId = "6530489A-D9A3-4CD8-A5AD-1BA8F3B39EAA";
paths = (
{
closed = 1;
nodes = (
"447 -194 OFFCURVE",
"516 -114 OFFCURVE",
"539 -34 CURVE",
"417 17 LINE",
"404 -33 OFFCURVE",
"368 -68 OFFCURVE",
"314 -68 CURVE SMOOTH",
"266 -68 OFFCURVE",
"229 -45 OFFCURVE",
"229 10 CURVE SMOOTH",
"229 24 LINE SMOOTH",
"229 100 OFFCURVE",
"292 126 OFFCURVE",
"392 130 CURVE",
"392 283 LINE",
"252 283 LINE",
"252 211 LINE",
"156 195 OFFCURVE",
"73 124 OFFCURVE",
"73 11 CURVE SMOOTH",
"73 -110 OFFCURVE",
"167 -194 OFFCURVE",
"309 -194 CURVE SMOOTH"
);
},
{
closed = 1;
nodes = (
"390 341 OFFCURVE",
"418 376 OFFCURVE",
"418 418 CURVE SMOOTH",
"418 450 LINE SMOOTH",
"418 493 OFFCURVE",
"390 528 OFFCURVE",
"320 528 CURVE SMOOTH",
"249 528 OFFCURVE",
"221 493 OFFCURVE",
"221 450 CURVE SMOOTH",
"221 418 LINE SMOOTH",
"221 376 OFFCURVE",
"249 341 OFFCURVE",
"320 341 CURVE SMOOTH"
);
}
);
width = 600;
}
);
note = questiondown;
unicode = 00BF;
},
{
glyphname = question;
lastChange = "2017-11-24 19:45:46 +0000";
layers = (
{
layerId = "6530489A-D9A3-4CD8-A5AD-1BA8F3B39EAA";
paths = (
{
closed = 1;
nodes = (
"348 233 LINE",
"348 305 LINE",
"444 321 OFFCURVE",
"527 392 OFFCURVE",
"527 505 CURVE SMOOTH",
"527 626 OFFCURVE",
"433 710 OFFCURVE",
"291 710 CURVE SMOOTH",
"153 710 OFFCURVE",
"84 630 OFFCURVE",
"61 550 CURVE",
"183 499 LINE",
"196 549 OFFCURVE",
"232 584 OFFCURVE",
"286 584 CURVE SMOOTH",
"334 584 OFFCURVE",
"371 561 OFFCURVE",
"371 506 CURVE SMOOTH",
"371 492 LINE SMOOTH",
"371 416 OFFCURVE",
"308 390 OFFCURVE",
"208 386 CURVE",
"208 233 LINE"
);
},
{
closed = 1;
nodes = (
"351 -12 OFFCURVE",
"379 23 OFFCURVE",
"379 66 CURVE SMOOTH",
"379 98 LINE SMOOTH",
"379 140 OFFCURVE",
"351 175 OFFCURVE",
"280 175 CURVE SMOOTH",
"210 175 OFFCURVE",
"182 140 OFFCURVE",
"182 98 CURVE SMOOTH",
"182 66 LINE SMOOTH",
"182 23 OFFCURVE",
"210 -12 OFFCURVE",
"280 -12 CURVE SMOOTH"
);
}
);
width = 600;
}
);
note = question;
unicode = 003F;
},
{
glyphname = parenleft;
lastChange = "2017-11-24 19:45:46 +0000";
layers = (
{
layerId = "6530489A-D9A3-4CD8-A5AD-1BA8F3B39EAA";
paths = (
{
closed = 1;
nodes = (
"174 116 OFFCURVE",
"269 -54 OFFCURVE",
"382 -138 CURVE",
"530 -138 LINE",
"406 -53 OFFCURVE",
"298 93 OFFCURVE",
"298 260 CURVE SMOOTH",
"298 362 LINE SMOOTH",
"298 529 OFFCURVE",
"406 675 OFFCURVE",
"530 760 CURVE",
"382 760 LINE",
"269 676 OFFCURVE",
"174 506 OFFCURVE",
"174 311 CURVE SMOOTH"
);
}
);
width = 600;
}
);
note = parenleft;
unicode = 0028;
},
{
glyphname = parenright;
lastChange = "2017-11-24 19:45:46 +0000";
layers = (
{
layerId = "6530489A-D9A3-4CD8-A5AD-1BA8F3B39EAA";
paths = (
{
closed = 1;
nodes = (
"426 506 OFFCURVE",
"331 676 OFFCURVE",
"218 760 CURVE",
"70 760 LINE",
"194 675 OFFCURVE",
"302 529 OFFCURVE",
"302 362 CURVE SMOOTH",
"302 260 LINE SMOOTH",
"302 93 OFFCURVE",
"194 -53 OFFCURVE",
"70 -138 CURVE",
"218 -138 LINE",
"331 -54 OFFCURVE",
"426 116 OFFCURVE",
"426 311 CURVE SMOOTH"
);
}
);
width = 600;
}
);
note = parenright;
unicode = 0029;
},
{
glyphname = bracketleft;
lastChange = "2017-11-24 19:45:46 +0000";
layers = (
{
layerId = "6530489A-D9A3-4CD8-A5AD-1BA8F3B39EAA";
paths = (
{
closed = 1;
nodes = (
"507 -138 LINE",
"507 -39 LINE",
"302 -39 LINE",
"302 661 LINE",
"507 661 LINE",
"507 760 LINE",
"183 760 LINE",
"183 -138 LINE"
);
}
);
width = 600;
}
);
note = bracketleft;
unicode = 005B;
},
{
glyphname = bracketright;
lastChange = "2017-11-24 19:45:46 +0000";
layers = (
{
layerId = "6530489A-D9A3-4CD8-A5AD-1BA8F3B39EAA";
paths = (
{
closed = 1;
nodes = (
"93 760 LINE",
"93 661 LINE",
"298 661 LINE",
"298 -39 LINE",
"93 -39 LINE",
"93 -138 LINE",
"417 -138 LINE",
"417 760 LINE"
);
}
);
width = 600;
}
);
note = bracketright;
unicode = 005D;
},
{
glyphname = braceleft;
lastChange = "2017-11-24 19:45:46 +0000";
layers = (
{
layerId = "6530489A-D9A3-4CD8-A5AD-1BA8F3B39EAA";
paths = (
{
closed = 1;
nodes = (
"508 -138 LINE",
"508 -39 LINE",
"323 -39 LINE",
"323 9 LINE SMOOTH",
"323 59 OFFCURVE",
"343 81 OFFCURVE",
"363 107 CURVE SMOOTH",
"386 135 OFFCURVE",
"410 166 OFFCURVE",
"410 208 CURVE SMOOTH",
"410 263 OFFCURVE",
"372 298 OFFCURVE",
"292 307 CURVE",
"292 315 LINE",
"372 324 OFFCURVE",
"410 359 OFFCURVE",
"410 414 CURVE SMOOTH",
"410 456 OFFCURVE",
"386 487 OFFCURVE",
"363 515 CURVE SMOOTH",
"343 541 OFFCURVE",
"323 563 OFFCURVE",
"323 613 CURVE SMOOTH",
"323 661 LINE",
"508 661 LINE",
"508 760 LINE",
"330 760 LINE SMOOTH",
"239 760 OFFCURVE",
"204 715 OFFCURVE",
"204 652 CURVE SMOOTH",
"204 607 LINE SMOOTH",
"204 540 OFFCURVE",
"236 508 OFFCURVE",
"260 480 CURVE SMOOTH",
"282 453 OFFCURVE",
"290 436 OFFCURVE",
"290 415 CURVE SMOOTH",
"290 381 OFFCURVE",
"253 361 OFFCURVE",
"182 361 CURVE SMOOTH",
"92 361 LINE",
"92 261 LINE",
"182 261 LINE SMOOTH",
"253 261 OFFCURVE",
"290 241 OFFCURVE",
"290 207 CURVE SMOOTH",
"290 186 OFFCURVE",
"282 169 OFFCURVE",
"260 142 CURVE SMOOTH",
"236 114 OFFCURVE",
"204 82 OFFCURVE",
"204 15 CURVE SMOOTH",
"204 -30 LINE SMOOTH",
"204 -93 OFFCURVE",
"239 -138 OFFCURVE",
"330 -138 CURVE SMOOTH"
);
}
);
width = 600;
}
);
note = braceleft;
unicode = 007B;
},
{
glyphname = braceright;
lastChange = "2017-11-24 19:45:46 +0000";
layers = (
{
layerId = "6530489A-D9A3-4CD8-A5AD-1BA8F3B39EAA";
paths = (
{
closed = 1;
nodes = (
"92 760 LINE",
"92 661 LINE",
"277 661 LINE",
"277 613 LINE SMOOTH",
"277 563 OFFCURVE",
"257 541 OFFCURVE",
"237 515 CURVE SMOOTH",
"214 487 OFFCURVE",
"190 456 OFFCURVE",
"190 414 CURVE SMOOTH",
"190 359 OFFCURVE",
"228 324 OFFCURVE",
"308 315 CURVE",
"308 307 LINE",
"228 298 OFFCURVE",
"190 263 OFFCURVE",
"190 208 CURVE SMOOTH",
"190 166 OFFCURVE",
"214 135 OFFCURVE",
"237 107 CURVE SMOOTH",
"257 81 OFFCURVE",
"277 59 OFFCURVE",
"277 9 CURVE SMOOTH",
"277 -39 LINE",
"92 -39 LINE",
"92 -138 LINE",
"270 -138 LINE SMOOTH",
"361 -138 OFFCURVE",
"396 -93 OFFCURVE",
"396 -30 CURVE SMOOTH",
"396 15 LINE SMOOTH",
"396 82 OFFCURVE",
"364 114 OFFCURVE",
"340 142 CURVE SMOOTH",
"318 169 OFFCURVE",
"310 186 OFFCURVE",
"310 207 CURVE SMOOTH",
"310 241 OFFCURVE",
"347 261 OFFCURVE",
"418 261 CURVE SMOOTH",
"508 261 LINE",
"508 361 LINE",
"418 361 LINE SMOOTH",
"347 361 OFFCURVE",
"310 381 OFFCURVE",
"310 415 CURVE SMOOTH",
"310 436 OFFCURVE",
"318 453 OFFCURVE",
"340 480 CURVE SMOOTH",
"364 508 OFFCURVE",
"396 540 OFFCURVE",
"396 607 CURVE SMOOTH",
"396 652 LINE SMOOTH",
"396 715 OFFCURVE",
"361 760 OFFCURVE",
"270 760 CURVE SMOOTH"
);
}
);
width = 600;
}
);
note = braceright;
unicode = 007D;
},
{
glyphname = slash;
lastChange = "2017-11-24 19:45:46 +0000";
layers = (
{
layerId = "6530489A-D9A3-4CD8-A5AD-1BA8F3B39EAA";
paths = (
{
closed = 1;
nodes = (
"206 -138 LINE",
"527 760 LINE",
"394 760 LINE",
"73 -138 LINE"
);
}
);
width = 600;
}
);
note = slash;
unicode = 002F;
},
{
glyphname = backslash;
lastChange = "2017-11-24 19:45:46 +0000";
layers = (
{
layerId = "6530489A-D9A3-4CD8-A5AD-1BA8F3B39EAA";
paths = (
{
closed = 1;
nodes = (
"527 -138 LINE",
"206 760 LINE",
"73 760 LINE",
"394 -138 LINE"
);
}
);
width = 600;
}
);
note = backslash;
unicode = 005C;
},
{
glyphname = fraction;
lastChange = "2017-11-24 19:45:46 +0000";
layers = (
{
layerId = "6530489A-D9A3-4CD8-A5AD-1BA8F3B39EAA";
paths = (
{
closed = 1;
nodes = (
"323 398 LINE",
"426 398 LINE",
"599 698 LINE",
"496 698 LINE"
);
},
{
closed = 1;
nodes = (
"1 0 LINE",
"104 0 LINE",
"277 300 LINE",
"174 300 LINE"
);
}
);
width = 600;
}
);
note = fraction;
unicode = 2044;
},
{
glyphname = percent;
lastChange = "2017-11-24 19:45:46 +0000";
layers = (
{
layerId = "6530489A-D9A3-4CD8-A5AD-1BA8F3B39EAA";
paths = (
{
closed = 1;
nodes = (
"264 338 OFFCURVE",
"322 409 OFFCURVE",
"322 524 CURVE SMOOTH",
"322 639 OFFCURVE",
"264 710 OFFCURVE",
"165 710 CURVE SMOOTH",
"66 710 OFFCURVE",
"8 639 OFFCURVE",
"8 524 CURVE SMOOTH",
"8 409 OFFCURVE",
"66 338 OFFCURVE",
"165 338 CURVE SMOOTH"
);
},
{
closed = 1;
nodes = (
"126 425 OFFCURVE",
"113 455 OFFCURVE",
"113 502 CURVE SMOOTH",
"113 546 LINE SMOOTH",
"113 593 OFFCURVE",
"126 623 OFFCURVE",
"165 623 CURVE SMOOTH",
"204 623 OFFCURVE",
"217 593 OFFCURVE",
"217 546 CURVE SMOOTH",
"217 502 LINE SMOOTH",
"217 455 OFFCURVE",
"204 425 OFFCURVE",
"165 425 CURVE SMOOTH"
);
},
{
closed = 1;
nodes = (
"334 398 LINE",
"447 398 LINE",
"598 698 LINE",
"485 698 LINE"
);
},
{
closed = 1;
nodes = (
"2 0 LINE",
"115 0 LINE",
"266 300 LINE",
"153 300 LINE"
);
},
{
closed = 1;
nodes = (
"535 -12 OFFCURVE",
"593 59 OFFCURVE",
"593 174 CURVE SMOOTH",
"593 289 OFFCURVE",
"535 360 OFFCURVE",
"436 360 CURVE SMOOTH",
"337 360 OFFCURVE",
"279 289 OFFCURVE",
"279 174 CURVE SMOOTH",
"279 59 OFFCURVE",
"337 -12 OFFCURVE",
"436 -12 CURVE SMOOTH"
);
},
{
closed = 1;
nodes = (
"397 75 OFFCURVE",
"384 105 OFFCURVE",
"384 152 CURVE SMOOTH",
"384 196 LINE SMOOTH",
"384 243 OFFCURVE",
"397 273 OFFCURVE",
"436 273 CURVE SMOOTH",
"475 273 OFFCURVE",
"488 243 OFFCURVE",
"488 196 CURVE SMOOTH",
"488 152 LINE SMOOTH",
"488 105 OFFCURVE",
"475 75 OFFCURVE",
"436 75 CURVE SMOOTH"
);
}
);
width = 600;
}
);
note = percent;
unicode = 0025;
},
{
glyphname = perthousand;
lastChange = "2017-11-24 19:45:46 +0000";
layers = (
{
layerId = "6530489A-D9A3-4CD8-A5AD-1BA8F3B39EAA";
paths = (
{
closed = 1;
nodes = (
"244 400 OFFCURVE",
"296 462 OFFCURVE",
"296 555 CURVE SMOOTH",
"296 649 OFFCURVE",
"244 710 OFFCURVE",
"148 710 CURVE SMOOTH",
"52 710 OFFCURVE",
"0 649 OFFCURVE",
"0 555 CURVE SMOOTH",
"0 462 OFFCURVE",
"52 400 OFFCURVE",
"148 400 CURVE SMOOTH"
);
},
{
closed = 1;
nodes = (
"116 479 OFFCURVE",
"98 507 OFFCURVE",
"98 539 CURVE SMOOTH",
"98 571 LINE SMOOTH",
"98 603 OFFCURVE",
"116 631 OFFCURVE",
"148 631 CURVE SMOOTH",
"180 631 OFFCURVE",
"198 603 OFFCURVE",
"198 571 CURVE SMOOTH",
"198 539 LINE SMOOTH",
"198 507 OFFCURVE",
"180 479 OFFCURVE",
"148 479 CURVE SMOOTH"
);
},
{
closed = 1;
nodes = (
"79 276 LINE",
"541 418 LINE",
"521 485 LINE",
"59 343 LINE"
);
},
{
closed = 1;
nodes = (
"293 -12 OFFCURVE",
"328 6 OFFCURVE",
"349 33 CURVE",
"357 33 LINE",
"378 5 OFFCURVE",
"412 -12 OFFCURVE",
"454 -12 CURVE SMOOTH",
"544 -12 OFFCURVE",
"600 49 OFFCURVE",
"600 143 CURVE SMOOTH",
"600 236 OFFCURVE",
"545 298 OFFCURVE",
"454 298 CURVE SMOOTH",
"413 298 OFFCURVE",
"378 280 OFFCURVE",
"357 253 CURVE",
"349 253 LINE",
"328 281 OFFCURVE",
"294 298 OFFCURVE",
"252 298 CURVE SMOOTH",
"162 298 OFFCURVE",
"106 237 OFFCURVE",
"106 143 CURVE SMOOTH",
"106 50 OFFCURVE",
"161 -12 OFFCURVE",
"252 -12 CURVE SMOOTH"
);
},
{
closed = 1;
nodes = (
"222 67 OFFCURVE",
"204 95 OFFCURVE",
"204 127 CURVE SMOOTH",
"204 159 LINE SMOOTH",
"204 191 OFFCURVE",
"222 219 OFFCURVE",
"254 219 CURVE SMOOTH",
"286 219 OFFCURVE",
"304 191 OFFCURVE",
"304 159 CURVE SMOOTH",
"304 127 LINE SMOOTH",
"304 95 OFFCURVE",
"286 67 OFFCURVE",
"254 67 CURVE SMOOTH"
);
},
{
closed = 1;
nodes = (
"420 67 OFFCURVE",
"402 95 OFFCURVE",
"402 127 CURVE SMOOTH",
"402 159 LINE SMOOTH",
"402 191 OFFCURVE",
"420 219 OFFCURVE",
"452 219 CURVE SMOOTH",
"484 219 OFFCURVE",
"502 191 OFFCURVE",
"502 159 CURVE SMOOTH",
"502 127 LINE SMOOTH",
"502 95 OFFCURVE",
"484 67 OFFCURVE",
"452 67 CURVE SMOOTH"
);
}
);
width = 600;
}
);
note = perthousand;
unicode = 2030;
},
{
glyphname = bar;
lastChange = "2017-11-24 19:45:46 +0000";
layers = (
{
layerId = "6530489A-D9A3-4CD8-A5AD-1BA8F3B39EAA";
paths = (
{
closed = 1;
nodes = (
"363 -138 LINE",
"363 760 LINE",
"237 760 LINE",
"237 -138 LINE"
);
}
);
width = 600;
}
);
note = bar;
unicode = 007C;
},
{
glyphname = brokenbar;
lastChange = "2017-11-24 19:45:46 +0000";
layers = (
{
layerId = "6530489A-D9A3-4CD8-A5AD-1BA8F3B39EAA";
paths = (
{
closed = 1;
nodes = (
"363 401 LINE",
"363 760 LINE",
"237 760 LINE",
"237 401 LINE"
);
},
{
closed = 1;
nodes = (
"363 -138 LINE",
"363 221 LINE",
"237 221 LINE",
"237 -138 LINE"
);
}
);
width = 600;
}
);
note = brokenbar;
unicode = 00A6;
},
{
glyphname = section;
lastChange = "2017-11-24 19:45:46 +0000";
layers = (
{
layerId = "6530489A-D9A3-4CD8-A5AD-1BA8F3B39EAA";
paths = (
{
closed = 1;
nodes = (
"511 59 OFFCURVE",
"487 108 OFFCURVE",
"432 143 CURVE",
"432 159 LINE",
"507 190 OFFCURVE",
"542 239 OFFCURVE",
"542 296 CURVE SMOOTH",
"542 355 OFFCURVE",
"503 415 OFFCURVE",
"388 446 CURVE SMOOTH",
"310 467 LINE SMOOTH",
"249 483 OFFCURVE",
"221 501 OFFCURVE",
"221 537 CURVE SMOOTH",
"221 578 OFFCURVE",
"259 605 OFFCURVE",
"317 605 CURVE SMOOTH",
"367 605 OFFCURVE",
"411 585 OFFCURVE",
"446 550 CURVE",
"519 638 LINE",
"461 691 OFFCURVE",
"387 710 OFFCURVE",
"318 710 CURVE SMOOTH",
"187 710 OFFCURVE",
"96 640 OFFCURVE",
"96 531 CURVE SMOOTH",
"96 475 OFFCURVE",
"120 426 OFFCURVE",
"175 391 CURVE",
"175 375 LINE",
"100 344 OFFCURVE",
"65 295 OFFCURVE",
"65 238 CURVE SMOOTH",
"65 179 OFFCURVE",
"104 119 OFFCURVE",
"219 88 CURVE SMOOTH",
"297 67 LINE SMOOTH",
"358 51 OFFCURVE",
"386 33 OFFCURVE",
"386 -3 CURVE SMOOTH",
"386 -44 OFFCURVE",
"348 -71 OFFCURVE",
"290 -71 CURVE SMOOTH",
"240 -71 OFFCURVE",
"196 -51 OFFCURVE",
"161 -16 CURVE",
"88 -104 LINE",
"146 -157 OFFCURVE",
"220 -176 OFFCURVE",
"289 -176 CURVE SMOOTH",
"420 -176 OFFCURVE",
"511 -106 OFFCURVE",
"511 3 CURVE SMOOTH"
);
},
{
closed = 1;
nodes = (
"419 221 OFFCURVE",
"405 194 OFFCURVE",
"381 168 CURVE",
"371 172 OFFCURVE",
"360 176 OFFCURVE",
"348 179 CURVE SMOOTH",
"271 200 LINE SMOOTH",
"205 218 OFFCURVE",
"188 248 OFFCURVE",
"188 282 CURVE SMOOTH",
"188 313 OFFCURVE",
"202 340 OFFCURVE",
"226 366 CURVE",
"236 362 OFFCURVE",
"247 358 OFFCURVE",
"259 355 CURVE SMOOTH",
"336 334 LINE SMOOTH",
"402 316 OFFCURVE",
"419 286 OFFCURVE",
"419 252 CURVE SMOOTH"
);
}
);
width = 600;
}
);
note = section;
unicode = 00A7;
},
{
glyphname = paragraph;
lastChange = "2017-11-24 19:45:46 +0000";
layers = (
{
layerId = "6530489A-D9A3-4CD8-A5AD-1BA8F3B39EAA";
paths = (
{
closed = 1;
nodes = (
"245 -149 LINE",
"364 -149 LINE",
"364 582 LINE",
"433 582 LINE",
"433 -149 LINE",
"552 -149 LINE",
"552 698 LINE",
"245 698 LINE SMOOTH",
"121 698 OFFCURVE",
"20 603 OFFCURVE",
"20 472 CURVE SMOOTH",
"20 341 OFFCURVE",
"121 246 OFFCURVE",
"245 246 CURVE"
);
}
);
width = 600;
}
);
note = paragraph;
unicode = 00B6;
},
{
glyphname = copyright;
lastChange = "2017-11-24 19:45:46 +0000";
layers = (
{
layerId = "6530489A-D9A3-4CD8-A5AD-1BA8F3B39EAA";
paths = (
{
closed = 1;
nodes = (
"467 18 OFFCURVE",
"600 145 OFFCURVE",
"600 349 CURVE SMOOTH",
"600 553 OFFCURVE",
"467 680 OFFCURVE",
"300 680 CURVE SMOOTH",
"133 680 OFFCURVE",
"0 553 OFFCURVE",
"0 349 CURVE SMOOTH",
"0 145 OFFCURVE",
"133 18 OFFCURVE",
"300 18 CURVE SMOOTH"
);
},
{
closed = 1;
nodes = (
"163 73 OFFCURVE",
"63 182 OFFCURVE",
"63 319 CURVE SMOOTH",
"63 379 LINE SMOOTH",
"63 516 OFFCURVE",
"163 625 OFFCURVE",
"300 625 CURVE SMOOTH",
"437 625 OFFCURVE",
"537 516 OFFCURVE",
"537 379 CURVE SMOOTH",
"537 319 LINE SMOOTH",
"537 182 OFFCURVE",
"437 73 OFFCURVE",
"300 73 CURVE SMOOTH"
);
},
{
closed = 1;
nodes = (
"399 153 OFFCURVE",
"446 201 OFFCURVE",
"469 255 CURVE",
"384 298 LINE",
"370 269 OFFCURVE",
"349 246 OFFCURVE",
"312 246 CURVE SMOOTH",
"271 246 OFFCURVE",
"247 274 OFFCURVE",
"247 313 CURVE SMOOTH",
"247 386 LINE SMOOTH",
"247 424 OFFCURVE",
"271 452 OFFCURVE",
"311 452 CURVE SMOOTH",
"345 452 OFFCURVE",
"365 431 OFFCURVE",
"378 400 CURVE",
"463 443 LINE",
"439 503 OFFCURVE",
"391 545 OFFCURVE",
"309 545 CURVE SMOOTH",
"201 545 OFFCURVE",
"125 468 OFFCURVE",
"125 348 CURVE SMOOTH",
"125 231 OFFCURVE",
"198 153 OFFCURVE",
"309 153 CURVE SMOOTH"
);
}
);
width = 600;
}
);
note = copyright;
unicode = 00A9;
},
{
glyphname = registered;
lastChange = "2017-11-24 19:45:46 +0000";
layers = (
{
layerId = "6530489A-D9A3-4CD8-A5AD-1BA8F3B39EAA";
paths = (
{
closed = 1;
nodes = (
"402 346 OFFCURVE",
"483 424 OFFCURVE",
"483 528 CURVE SMOOTH",
"483 632 OFFCURVE",
"402 710 OFFCURVE",
"300 710 CURVE SMOOTH",
"198 710 OFFCURVE",
"117 632 OFFCURVE",
"117 528 CURVE SMOOTH",
"117 424 OFFCURVE",
"198 346 OFFCURVE",
"300 346 CURVE SMOOTH"
);
},
{
closed = 1;
nodes = (
"223 387 OFFCURVE",
"165 439 OFFCURVE",
"165 518 CURVE SMOOTH",
"165 538 LINE SMOOTH",
"165 617 OFFCURVE",
"223 669 OFFCURVE",
"300 669 CURVE SMOOTH",
"377 669 OFFCURVE",
"435 617 OFFCURVE",
"435 538 CURVE SMOOTH",
"435 518 LINE SMOOTH",
"435 439 OFFCURVE",
"377 387 OFFCURVE",
"300 387 CURVE SMOOTH"
);
},
{
closed = 1;
nodes = (
"278 490 LINE",
"300 490 LINE",
"330 436 LINE",
"391 436 LINE",
"352 501 LINE",
"373 511 OFFCURVE",
"386 530 OFFCURVE",
"386 558 CURVE SMOOTH",
"386 594 OFFCURVE",
"364 621 OFFCURVE",
"314 621 CURVE SMOOTH",
"222 621 LINE",
"222 436 LINE",
"278 436 LINE"
);
},
{
closed = 1;
nodes = (
"278 531 LINE",
"278 578 LINE",
"302 578 LINE SMOOTH",
"318 578 OFFCURVE",
"328 570 OFFCURVE",
"328 558 CURVE SMOOTH",
"328 551 LINE SMOOTH",
"328 538 OFFCURVE",
"318 531 OFFCURVE",
"302 531 CURVE SMOOTH"
);
}
);
width = 600;
}
);
note = registered;
unicode = 00AE;
},
{
glyphname = trademark;
lastChange = "2017-11-24 19:45:46 +0000";
layers = (
{
layerId = "6530489A-D9A3-4CD8-A5AD-1BA8F3B39EAA";
paths = (
{
closed = 1;
nodes = (
"168 409 LINE",
"168 637 LINE",
"237 637 LINE",
"237 698 LINE",
"13 698 LINE",
"13 637 LINE",
"82 637 LINE",
"82 409 LINE"
);
},
{
closed = 1;
nodes = (
"330 409 LINE",
"330 506 LINE",
"322 599 LINE",
"326 599 LINE",
"405 453 LINE",
"484 599 LINE",
"488 599 LINE",
"480 506 LINE",
"480 409 LINE",
"552 409 LINE",
"552 698 LINE",
"467 698 LINE",
"411 591 LINE",
"405 591 LINE",
"349 698 LINE",
"258 698 LINE",
"258 409 LINE"
);
}
);
width = 600;
}
);
note = trademark;
unicode = 2122;
},
{
glyphname = ordfeminine;
lastChange = "2017-11-24 19:45:46 +0000";
layers = (
{
layerId = "6530489A-D9A3-4CD8-A5AD-1BA8F3B39EAA";
paths = (
{
closed = 1;
nodes = (
"489 340 LINE",
"489 415 LINE",
"449 415 LINE",
"449 573 LINE SMOOTH",
"449 664 OFFCURVE",
"390 710 OFFCURVE",
"292 710 CURVE SMOOTH",
"211 710 OFFCURVE",
"159 680 OFFCURVE",
"135 639 CURVE",
"191 589 LINE",
"211 615 OFFCURVE",
"236 634 OFFCURVE",
"280 634 CURVE SMOOTH",
"327 634 OFFCURVE",
"345 612 OFFCURVE",
"345 569 CURVE SMOOTH",
"345 551 LINE",
"287 551 LINE SMOOTH",
"182 551 OFFCURVE",
"125 515 OFFCURVE",
"125 440 CURVE SMOOTH",
"125 372 OFFCURVE",
"171 332 OFFCURVE",
"241 332 CURVE SMOOTH",
"296 332 OFFCURVE",
"338 357 OFFCURVE",
"351 404 CURVE",
"355 404 LINE",
"359 363 OFFCURVE",
"387 340 OFFCURVE",
"429 340 CURVE SMOOTH"
);
},
{
closed = 1;
nodes = (
"345 495 LINE",
"345 452 LINE SMOOTH",
"345 418 OFFCURVE",
"317 400 OFFCURVE",
"280 400 CURVE SMOOTH",
"247 400 OFFCURVE",
"226 413 OFFCURVE",
"226 438 CURVE SMOOTH",
"226 452 LINE SMOOTH",
"226 480 OFFCURVE",
"249 495 OFFCURVE",
"290 495 CURVE SMOOTH"
);
}
);
width = 600;
}
);
note = ordfeminine;
unicode = 00AA;
},
{
glyphname = ordmasculine;
lastChange = "2017-11-24 19:45:46 +0000";
layers = (
{
layerId = "6530489A-D9A3-4CD8-A5AD-1BA8F3B39EAA";
paths = (
{
closed = 1;
nodes = (
"413 332 OFFCURVE",
"481 404 OFFCURVE",
"481 521 CURVE SMOOTH",
"481 638 OFFCURVE",
"413 710 OFFCURVE",
"300 710 CURVE SMOOTH",
"187 710 OFFCURVE",
"119 638 OFFCURVE",
"119 521 CURVE SMOOTH",
"119 404 OFFCURVE",
"187 332 OFFCURVE",
"300 332 CURVE SMOOTH"
);
},
{
closed = 1;
nodes = (
"254 409 OFFCURVE",
"226 439 OFFCURVE",
"226 492 CURVE SMOOTH",
"226 550 LINE SMOOTH",
"226 603 OFFCURVE",
"254 633 OFFCURVE",
"300 633 CURVE SMOOTH",
"346 633 OFFCURVE",
"374 603 OFFCURVE",
"374 550 CURVE SMOOTH",
"374 492 LINE SMOOTH",
"374 439 OFFCURVE",
"346 409 OFFCURVE",
"300 409 CURVE SMOOTH"
);
}
);
width = 600;
}
);
note = ordmasculine;
unicode = 00BA;
},
{
glyphname = degree;
lastChange = "2017-11-24 19:45:46 +0000";
layers = (
{
layerId = "6530489A-D9A3-4CD8-A5AD-1BA8F3B39EAA";
paths = (
{
closed = 1;
nodes = (
"406 334 OFFCURVE",
"488 415 OFFCURVE",
"488 522 CURVE SMOOTH",
"488 629 OFFCURVE",
"406 710 OFFCURVE",
"300 710 CURVE SMOOTH",
"194 710 OFFCURVE",
"112 629 OFFCURVE",
"112 522 CURVE SMOOTH",
"112 415 OFFCURVE",
"194 334 OFFCURVE",
"300 334 CURVE SMOOTH"
);
},
{
closed = 1;
nodes = (
"248 429 OFFCURVE",
"214 470 OFFCURVE",
"214 522 CURVE SMOOTH",
"214 574 OFFCURVE",
"248 615 OFFCURVE",
"300 615 CURVE SMOOTH",
"352 615 OFFCURVE",
"386 574 OFFCURVE",
"386 522 CURVE SMOOTH",
"386 470 OFFCURVE",
"352 429 OFFCURVE",
"300 429 CURVE SMOOTH"
);
}
);
width = 600;
}
);
note = degree;
unicode = 00B0;
},
{
glyphname = asterisk;
lastChange = "2017-11-24 19:45:46 +0000";
layers = (
{
layerId = "6530489A-D9A3-4CD8-A5AD-1BA8F3B39EAA";
paths = (
{
closed = 1;
nodes = (
"300 189 LINE",
"409 40 LINE",
"513 109 LINE",
"399 259 LINE",
"570 317 LINE",
"531 432 LINE",
"364 371 LINE",
"364 548 LINE",
"236 548 LINE",
"236 371 LINE",
"69 432 LINE",
"30 317 LINE",
"201 259 LINE",
"87 109 LINE",
"191 40 LINE"
);
}
);
width = 600;
}
);
note = asterisk;
unicode = 002A;
},
{
glyphname = dagger;
lastChange = "2017-11-24 19:45:46 +0000";
layers = (
{
layerId = "6530489A-D9A3-4CD8-A5AD-1BA8F3B39EAA";
paths = (
{
closed = 1;
nodes = (
"363 -200 LINE",
"363 408 LINE",
"539 408 LINE",
"539 516 LINE",
"363 516 LINE",
"363 740 LINE",
"237 740 LINE",
"237 516 LINE",
"61 516 LINE",
"61 408 LINE",
"237 408 LINE",
"237 -200 LINE"
);
}
);
width = 600;
}
);
note = dagger;
unicode = 2020;
},
{
glyphname = daggerdbl;
lastChange = "2017-11-24 19:45:46 +0000";
layers = (
{
layerId = "6530489A-D9A3-4CD8-A5AD-1BA8F3B39EAA";
paths = (
{
closed = 1;
nodes = (
"363 -200 LINE",
"363 24 LINE",
"539 24 LINE",
"539 132 LINE",
"363 132 LINE",
"363 408 LINE",
"539 408 LINE",
"539 516 LINE",
"363 516 LINE",
"363 740 LINE",
"237 740 LINE",
"237 516 LINE",
"61 516 LINE",
"61 408 LINE",
"237 408 LINE",
"237 132 LINE",
"61 132 LINE",
"61 24 LINE",
"237 24 LINE",
"237 -200 LINE"
);
}
);
width = 600;
}
);
note = daggerdbl;
unicode = 2021;
},
{
glyphname = numbersign;
lastChange = "2017-11-24 19:45:46 +0000";
layers = (
{
layerId = "6530489A-D9A3-4CD8-A5AD-1BA8F3B39EAA";
paths = (
{
closed = 1;
nodes = (
"83 0 LINE",
"200 0 LINE",
"323 698 LINE",
"206 698 LINE",
"172 504 LINE",
"47 504 LINE",
"47 394 LINE",
"152 394 LINE",
"137 304 LINE",
"9 304 LINE",
"9 194 LINE",
"117 194 LINE"
);
},
{
closed = 1;
nodes = (
"277 0 LINE",
"394 0 LINE",
"428 194 LINE",
"553 194 LINE",
"553 304 LINE",
"448 304 LINE",
"463 394 LINE",
"591 394 LINE",
"591 504 LINE",
"483 504 LINE",
"517 698 LINE",
"400 698 LINE"
);
}
);
width = 600;
}
);
note = numbersign;
unicode = 0023;
},
{
glyphname = asciicircum;
lastChange = "2017-11-24 19:45:46 +0000";
layers = (
{
layerId = "6530489A-D9A3-4CD8-A5AD-1BA8F3B39EAA";
paths = (
{
closed = 1;
nodes = (
"573 293 LINE",
"379 698 LINE",
"222 698 LINE",
"27 293 LINE",
"138 239 LINE",
"291 562 LINE",
"303 562 LINE",
"456 239 LINE"
);
}
);
width = 600;
}
);
note = asciicircum;
unicode = 005E;
},
{
glyphname = asciitilde;
lastChange = "2017-11-24 19:45:46 +0000";
layers = (
{
layerId = "6530489A-D9A3-4CD8-A5AD-1BA8F3B39EAA";
paths = (
{
closed = 1;
nodes = (
"485 210 OFFCURVE",
"527 238 OFFCURVE",
"552 272 CURVE",
"502 356 LINE",
"473 337 OFFCURVE",
"453 329 OFFCURVE",
"423 329 CURVE SMOOTH",
"381 329 OFFCURVE",
"347 345 OFFCURVE",
"310 363 CURVE SMOOTH",
"264 385 OFFCURVE",
"231 400 OFFCURVE",
"182 400 CURVE SMOOTH",
"115 400 OFFCURVE",
"73 372 OFFCURVE",
"48 338 CURVE",
"98 254 LINE",
"127 273 OFFCURVE",
"147 281 OFFCURVE",
"177 281 CURVE SMOOTH",
"219 281 OFFCURVE",
"253 265 OFFCURVE",
"290 247 CURVE SMOOTH",
"336 225 OFFCURVE",
"369 210 OFFCURVE",
"418 210 CURVE SMOOTH"
);
}
);
width = 600;
}
);
note = asciitilde;
unicode = 007E;
},
{
glyphname = plus;
lastChange = "2017-11-24 19:45:46 +0000";
layers = (
{
layerId = "6530489A-D9A3-4CD8-A5AD-1BA8F3B39EAA";
paths = (
{
closed = 1;
nodes = (
"364 62 LINE",
"364 246 LINE",
"538 246 LINE",
"538 364 LINE",
"364 364 LINE",
"364 548 LINE",
"236 548 LINE",
"236 364 LINE",
"62 364 LINE",
"62 246 LINE",
"236 246 LINE",
"236 62 LINE"
);
}
);
width = 600;
}
);
note = plus;
unicode = 002B;
},
{
glyphname = minus;
lastChange = "2017-11-24 19:45:46 +0000";
layers = (
{
layerId = "6530489A-D9A3-4CD8-A5AD-1BA8F3B39EAA";
paths = (
{
closed = 1;
nodes = (
"538 246 LINE",
"538 364 LINE",
"62 364 LINE",
"62 246 LINE"
);
}
);
width = 600;
}
);
note = minus;
unicode = 2212;
},
{
glyphname = plusminus;
lastChange = "2017-11-24 19:45:46 +0000";
layers = (
{
layerId = "6530489A-D9A3-4CD8-A5AD-1BA8F3B39EAA";
paths = (
{
closed = 1;
nodes = (
"364 184 LINE",
"364 350 LINE",
"538 350 LINE",
"538 468 LINE",
"364 468 LINE",
"364 634 LINE",
"236 634 LINE",
"236 468 LINE",
"62 468 LINE",
"62 350 LINE",
"236 350 LINE",
"236 184 LINE"
);
},
{
closed = 1;
nodes = (
"538 0 LINE",
"538 119 LINE",
"62 119 LINE",
"62 0 LINE"
);
}
);
width = 600;
}
);
note = plusminus;
unicode = 00B1;
},
{
glyphname = multiply;
lastChange = "2017-11-24 19:45:46 +0000";
layers = (
{
layerId = "6530489A-D9A3-4CD8-A5AD-1BA8F3B39EAA";
paths = (
{
closed = 1;
nodes = (
"445 75 LINE",
"530 160 LINE",
"385 305 LINE",
"530 450 LINE",
"445 535 LINE",
"300 390 LINE",
"155 535 LINE",
"70 450 LINE",
"215 305 LINE",
"70 160 LINE",
"155 75 LINE",
"300 220 LINE"
);
}
);
width = 600;
}
);
note = multiply;
unicode = 00D7;
},
{
glyphname = divide;
lastChange = "2017-11-24 19:45:46 +0000";
layers = (
{
layerId = "6530489A-D9A3-4CD8-A5AD-1BA8F3B39EAA";
paths = (
{
closed = 1;
nodes = (
"538 246 LINE",
"538 364 LINE",
"62 364 LINE",
"62 246 LINE"
);
},
{
closed = 1;
nodes = (
"363 29 OFFCURVE",
"388 59 OFFCURVE",
"388 98 CURVE SMOOTH",
"388 122 LINE SMOOTH",
"388 160 OFFCURVE",
"363 191 OFFCURVE",
"300 191 CURVE SMOOTH",
"237 191 OFFCURVE",
"212 160 OFFCURVE",
"212 122 CURVE SMOOTH",
"212 98 LINE SMOOTH",
"212 59 OFFCURVE",
"237 29 OFFCURVE",
"300 29 CURVE SMOOTH"
);
},
{
closed = 1;
nodes = (
"363 419 OFFCURVE",
"388 450 OFFCURVE",
"388 488 CURVE SMOOTH",
"388 512 LINE SMOOTH",
"388 551 OFFCURVE",
"363 581 OFFCURVE",
"300 581 CURVE SMOOTH",
"237 581 OFFCURVE",
"212 551 OFFCURVE",
"212 512 CURVE SMOOTH",
"212 488 LINE SMOOTH",
"212 450 OFFCURVE",
"237 419 OFFCURVE",
"300 419 CURVE SMOOTH"
);
}
);
width = 600;
}
);
note = divide;
unicode = 00F7;
},
{
glyphname = equal;
lastChange = "2017-11-24 19:45:46 +0000";
layers = (
{
layerId = "6530489A-D9A3-4CD8-A5AD-1BA8F3B39EAA";
paths = (
{
closed = 1;
nodes = (
"538 361 LINE",
"538 479 LINE",
"62 479 LINE",
"62 361 LINE"
);
},
{
closed = 1;
nodes = (
"538 131 LINE",
"538 249 LINE",
"62 249 LINE",
"62 131 LINE"
);
}
);
width = 600;
}
);
note = equal;
unicode = 003D;
},
{
glyphname = approxequal;
lastChange = "2017-11-24 19:45:46 +0000";
layers = (
{
layerId = "6530489A-D9A3-4CD8-A5AD-1BA8F3B39EAA";
paths = (
{
closed = 1;
nodes = (
"485 94 OFFCURVE",
"527 122 OFFCURVE",
"552 156 CURVE",
"502 240 LINE",
"473 221 OFFCURVE",
"453 213 OFFCURVE",
"423 213 CURVE SMOOTH",
"381 213 OFFCURVE",
"347 229 OFFCURVE",
"310 247 CURVE SMOOTH",
"264 269 OFFCURVE",
"231 284 OFFCURVE",
"182 284 CURVE SMOOTH",
"115 284 OFFCURVE",
"73 256 OFFCURVE",
"48 222 CURVE",
"98 138 LINE",
"127 157 OFFCURVE",
"147 165 OFFCURVE",
"177 165 CURVE SMOOTH",
"219 165 OFFCURVE",
"253 149 OFFCURVE",
"290 131 CURVE SMOOTH",
"336 109 OFFCURVE",
"369 94 OFFCURVE",
"418 94 CURVE SMOOTH"
);
},
{
closed = 1;
nodes = (
"485 325 OFFCURVE",
"527 353 OFFCURVE",
"552 387 CURVE",
"502 471 LINE",
"473 452 OFFCURVE",
"453 444 OFFCURVE",
"423 444 CURVE SMOOTH",
"381 444 OFFCURVE",
"347 460 OFFCURVE",
"310 478 CURVE SMOOTH",
"264 500 OFFCURVE",
"231 515 OFFCURVE",
"182 515 CURVE SMOOTH",
"115 515 OFFCURVE",
"73 487 OFFCURVE",
"48 453 CURVE",
"98 369 LINE",
"127 388 OFFCURVE",
"147 396 OFFCURVE",
"177 396 CURVE SMOOTH",
"219 396 OFFCURVE",
"253 380 OFFCURVE",
"290 362 CURVE SMOOTH",
"336 340 OFFCURVE",
"369 325 OFFCURVE",
"418 325 CURVE SMOOTH"
);
}
);
width = 600;
}
);
note = approxequal;
unicode = 2248;
},
{
glyphname = notequal;
lastChange = "2017-11-24 19:45:46 +0000";
layers = (
{
layerId = "6530489A-D9A3-4CD8-A5AD-1BA8F3B39EAA";
paths = (
{
closed = 1;
nodes = (
"217 36 LINE",
"269 131 LINE",
"538 131 LINE",
"538 249 LINE",
"327 249 LINE",
"390 361 LINE",
"538 361 LINE",
"538 479 LINE",
"457 479 LINE",
"509 574 LINE",
"383 574 LINE",
"331 479 LINE",
"62 479 LINE",
"62 361 LINE",
"273 361 LINE",
"210 249 LINE",
"62 249 LINE",
"62 131 LINE",
"143 131 LINE",
"91 36 LINE"
);
}
);
width = 600;
}
);
note = notequal;
unicode = 2260;
},
{
glyphname = less;
lastChange = "2017-11-24 19:45:46 +0000";
layers = (
{
layerId = "6530489A-D9A3-4CD8-A5AD-1BA8F3B39EAA";
paths = (
{
closed = 1;
nodes = (
"515 6 LINE",
"515 144 LINE",
"218 301 LINE",
"218 309 LINE",
"515 466 LINE",
"515 604 LINE",
"85 374 LINE",
"85 236 LINE"
);
}
);
width = 600;
}
);
note = less;
unicode = 003C;
},
{
glyphname = greater;
lastChange = "2017-11-24 19:45:46 +0000";
layers = (
{
layerId = "6530489A-D9A3-4CD8-A5AD-1BA8F3B39EAA";
paths = (
{
closed = 1;
nodes = (
"85 6 LINE",
"515 236 LINE",
"515 374 LINE",
"85 604 LINE",
"85 466 LINE",
"382 309 LINE",
"382 301 LINE",
"85 144 LINE"
);
}
);
width = 600;
}
);
note = greater;
unicode = 003E;
},
{
glyphname = lessequal;
lastChange = "2017-11-24 19:45:46 +0000";
layers = (
{
layerId = "6530489A-D9A3-4CD8-A5AD-1BA8F3B39EAA";
paths = (
{
closed = 1;
nodes = (
"515 0 LINE",
"515 116 LINE",
"85 116 LINE",
"85 0 LINE"
);
},
{
closed = 1;
nodes = (
"515 595 LINE",
"85 438 LINE",
"85 301 LINE",
"515 144 LINE",
"515 270 LINE",
"226 366 LINE",
"226 373 LINE",
"515 471 LINE"
);
}
);
width = 600;
}
);
note = lessequal;
unicode = 2264;
},
{
glyphname = greaterequal;
lastChange = "2017-11-24 19:45:46 +0000";
layers = (
{
layerId = "6530489A-D9A3-4CD8-A5AD-1BA8F3B39EAA";
paths = (
{
closed = 1;
nodes = (
"85 144 LINE",
"515 301 LINE",
"515 438 LINE",
"85 595 LINE",
"85 473 LINE",
"373 375 LINE",
"373 368 LINE",
"85 272 LINE"
);
},
{
closed = 1;
nodes = (
"85 0 LINE",
"515 0 LINE",
"515 116 LINE",
"85 116 LINE"
);
}
);
width = 600;
}
);
note = greaterequal;
unicode = 2265;
},
{
glyphname = periodcentered;
lastChange = "2017-11-24 19:45:46 +0000";
layers = (
{
layerId = "6530489A-D9A3-4CD8-A5AD-1BA8F3B39EAA";
paths = (
{
closed = 1;
nodes = (
"375 204 OFFCURVE",
"405 242 OFFCURVE",
"405 287 CURVE SMOOTH",
"405 322 LINE SMOOTH",
"405 367 OFFCURVE",
"375 405 OFFCURVE",
"300 405 CURVE SMOOTH",
"225 405 OFFCURVE",
"195 367 OFFCURVE",
"195 322 CURVE SMOOTH",
"195 287 LINE SMOOTH",
"195 242 OFFCURVE",
"225 204 OFFCURVE",
"300 204 CURVE SMOOTH"
);
}
);
width = 600;
}
);
note = periodcentered;
unicode = 00B7;
},
{
glyphname = bullet;
lastChange = "2017-11-24 19:45:46 +0000";
layers = (
{
layerId = "6530489A-D9A3-4CD8-A5AD-1BA8F3B39EAA";
paths = (
{
closed = 1;
nodes = (
"413 156 OFFCURVE",
"454 212 OFFCURVE",
"454 287 CURVE SMOOTH",
"454 321 LINE SMOOTH",
"454 396 OFFCURVE",
"413 452 OFFCURVE",
"300 452 CURVE SMOOTH",
"187 452 OFFCURVE",
"146 396 OFFCURVE",
"146 321 CURVE SMOOTH",
"146 287 LINE SMOOTH",
"146 212 OFFCURVE",
"187 156 OFFCURVE",
"300 156 CURVE SMOOTH"
);
}
);
width = 600;
}
);
note = bullet;
unicode = 2022;
},
{
glyphname = lozenge;
lastChange = "2017-11-24 19:45:46 +0000";
layers = (
{
layerId = "6530489A-D9A3-4CD8-A5AD-1BA8F3B39EAA";
paths = (
{
closed = 1;
nodes = (
"354 0 LINE",
"572 349 LINE",
"354 698 LINE",
"246 698 LINE",
"28 349 LINE",
"246 0 LINE"
);
},
{
closed = 1;
nodes = (
"297 123 LINE",
"159 349 LINE",
"297 575 LINE",
"303 575 LINE",
"441 349 LINE",
"303 123 LINE"
);
}
);
width = 600;
}
);
note = lozenge;
unicode = 25CA;
},
{
glyphname = logicalnot;
lastChange = "2017-11-24 19:45:46 +0000";
layers = (
{
layerId = "6530489A-D9A3-4CD8-A5AD-1BA8F3B39EAA";
paths = (
{
closed = 1;
nodes = (
"522 54 LINE",
"522 364 LINE",
"62 364 LINE",
"62 246 LINE",
"401 246 LINE",
"401 54 LINE"
);
}
);
width = 600;
}
);
note = logicalnot;
unicode = 00AC;
},
{
glyphname = radical;
lastChange = "2017-11-24 19:45:46 +0000";
layers = (
{
layerId = "6530489A-D9A3-4CD8-A5AD-1BA8F3B39EAA";
paths = (
{
closed = 1;
nodes = (
"390 0 LINE",
"596 698 LINE",
"472 698 LINE",
"363 320 LINE",
"307 105 LINE",
"299 105 LINE",
"247 320 LINE",
"190 516 LINE",
"15 516 LINE",
"15 392 LINE",
"95 392 LINE",
"213 0 LINE"
);
}
);
width = 600;
}
);
note = radical;
unicode = 221A;
},
{
glyphname = integral;
lastChange = "2017-11-24 19:45:46 +0000";
layers = (
{
layerId = "6530489A-D9A3-4CD8-A5AD-1BA8F3B39EAA";
paths = (
{
closed = 1;
nodes = (
"28 -200 LINE",
"203 -200 LINE SMOOTH",
"310 -200 OFFCURVE",
"361 -138 OFFCURVE",
"361 -51 CURVE SMOOTH",
"361 625 LINE",
"546 625 LINE",
"546 740 LINE",
"371 740 LINE SMOOTH",
"263 740 OFFCURVE",
"213 678 OFFCURVE",
"213 591 CURVE SMOOTH",
"213 -85 LINE",
"28 -85 LINE"
);
}
);
width = 600;
}
);
note = integral;
unicode = 222B;
},
{
glyphname = infinity;
lastChange = "2017-11-24 19:45:46 +0000";
layers = (
{
layerId = "6530489A-D9A3-4CD8-A5AD-1BA8F3B39EAA";
paths = (
{
closed = 1;
nodes = (
"217 126 OFFCURVE",
"269 165 OFFCURVE",
"280 255 CURVE",
"284 255 LINE",
"314 163 OFFCURVE",
"363 126 OFFCURVE",
"431 126 CURVE SMOOTH",
"531 126 OFFCURVE",
"589 192 OFFCURVE",
"589 305 CURVE SMOOTH",
"589 418 OFFCURVE",
"534 484 OFFCURVE",
"439 484 CURVE SMOOTH",
"383 484 OFFCURVE",
"331 445 OFFCURVE",
"320 355 CURVE",
"316 355 LINE",
"286 447 OFFCURVE",
"237 484 OFFCURVE",
"169 484 CURVE SMOOTH",
"69 484 OFFCURVE",
"11 418 OFFCURVE",
"11 305 CURVE SMOOTH",
"11 192 OFFCURVE",
"66 126 OFFCURVE",
"161 126 CURVE SMOOTH"
);
},
{
closed = 1;
nodes = (
"147 228 OFFCURVE",
"127 253 OFFCURVE",
"127 298 CURVE SMOOTH",
"127 312 LINE SMOOTH",
"127 357 OFFCURVE",
"147 382 OFFCURVE",
"174 382 CURVE SMOOTH",
"217 382 OFFCURVE",
"239 339 OFFCURVE",
"256 293 CURVE",
"243 259 OFFCURVE",
"217 228 OFFCURVE",
"174 228 CURVE SMOOTH"
);
},
{
closed = 1;
nodes = (
"383 228 OFFCURVE",
"361 271 OFFCURVE",
"344 317 CURVE",
"357 351 OFFCURVE",
"383 382 OFFCURVE",
"426 382 CURVE SMOOTH",
"453 382 OFFCURVE",
"473 357 OFFCURVE",
"473 312 CURVE SMOOTH",
"473 298 LINE SMOOTH",
"473 253 OFFCURVE",
"453 228 OFFCURVE",
"426 228 CURVE SMOOTH"
);
}
);
width = 600;
}
);
note = infinity;
unicode = 221E;
},
{
glyphname = uni212E;
lastChange = "2017-11-24 19:45:46 +0000";
layers = (
{
layerId = "6530489A-D9A3-4CD8-A5AD-1BA8F3B39EAA";
paths = (
{
closed = 1;
nodes = (
"185 349 LINE",
"574 349 LINE",
"574 556 OFFCURVE",
"466 710 OFFCURVE",
"300 710 CURVE SMOOTH",
"134 710 OFFCURVE",
"26 556 OFFCURVE",
"26 349 CURVE SMOOTH",
"26 142 OFFCURVE",
"134 -12 OFFCURVE",
"300 -12 CURVE SMOOTH",
"426 -12 OFFCURVE",
"501 62 OFFCURVE",
"549 151 CURVE",
"497 180 LINE",
"456 101 OFFCURVE",
"398 44 OFFCURVE",
"300 44 CURVE SMOOTH",
"254 44 OFFCURVE",
"209 62 OFFCURVE",
"185 85 CURVE"
);
},
{
closed = 1;
nodes = (
"185 401 LINE",
"185 618 LINE",
"210 641 OFFCURVE",
"254 656 OFFCURVE",
"300 656 CURVE SMOOTH",
"346 656 OFFCURVE",
"390 641 OFFCURVE",
"415 618 CURVE",
"415 401 LINE"
);
}
);
width = 600;
}
);
note = uni212E;
unicode = 212E;
},
{
glyphname = uni2113;
lastChange = "2017-11-24 19:45:46 +0000";
layers = (
{
layerId = "6530489A-D9A3-4CD8-A5AD-1BA8F3B39EAA";
paths = (
{
closed = 1;
nodes = (
"446 -12 OFFCURVE",
"516 57 OFFCURVE",
"555 158 CURVE",
"435 219 LINE",
"396 140 OFFCURVE",
"372 116 OFFCURVE",
"332 116 CURVE SMOOTH",
"295 116 OFFCURVE",
"272 137 OFFCURVE",
"272 187 CURVE SMOOTH",
"272 228 LINE",
"424 345 OFFCURVE",
"498 437 OFFCURVE",
"498 562 CURVE SMOOTH",
"498 680 OFFCURVE",
"433 752 OFFCURVE",
"316 752 CURVE SMOOTH",
"212 752 OFFCURVE",
"132 695 OFFCURVE",
"132 546 CURVE SMOOTH",
"132 302 LINE",
"110 287 OFFCURVE",
"69 258 OFFCURVE",
"32 238 CURVE",
"96 135 LINE",
"105 140 OFFCURVE",
"131 157 OFFCURVE",
"139 162 CURVE",
"139 159 LINE SMOOTH",
"139 53 OFFCURVE",
"225 -12 OFFCURVE",
"334 -12 CURVE SMOOTH"
);
},
{
closed = 1;
nodes = (
"344 621 OFFCURVE",
"362 603 OFFCURVE",
"362 560 CURVE SMOOTH",
"362 550 LINE SMOOTH",
"362 478 OFFCURVE",
"324 425 OFFCURVE",
"272 378 CURVE",
"272 551 LINE SMOOTH",
"272 603 OFFCURVE",
"296 621 OFFCURVE",
"320 621 CURVE SMOOTH"
);
}
);
width = 600;
}
);
note = uni2113;
unicode = 2113;
},
{
glyphname = uni2116;
lastChange = "2017-11-24 19:45:46 +0000";
layers = (
{
layerId = "6530489A-D9A3-4CD8-A5AD-1BA8F3B39EAA";
paths = (
{
closed = 1;
nodes = (
"558 325 OFFCURVE",
"597 387 OFFCURVE",
"597 516 CURVE SMOOTH",
"597 644 OFFCURVE",
"558 706 OFFCURVE",
"481 706 CURVE SMOOTH",
"401 706 OFFCURVE",
"361 644 OFFCURVE",
"361 516 CURVE SMOOTH",
"361 387 OFFCURVE",
"400 325 OFFCURVE",
"481 325 CURVE SMOOTH"
);
},
{
closed = 1;
nodes = (
"105 0 LINE",
"105 598 LINE",
"117 598 LINE",
"134 335 LINE",
"160 0 LINE",
"335 0 LINE",
"335 698 LINE",
"247 698 LINE",
"247 100 LINE",
"235 100 LINE",
"218 363 LINE",
"192 698 LINE",
"17 698 LINE",
"17 0 LINE"
);
},
{
closed = 1;
nodes = (
"449 403 OFFCURVE",
"445 430 OFFCURVE",
"445 478 CURVE SMOOTH",
"445 553 LINE SMOOTH",
"445 601 OFFCURVE",
"449 628 OFFCURVE",
"481 628 CURVE SMOOTH",
"512 628 OFFCURVE",
"517 601 OFFCURVE",
"517 553 CURVE SMOOTH",
"517 478 LINE SMOOTH",
"517 429 OFFCURVE",
"512 403 OFFCURVE",
"481 403 CURVE SMOOTH"
);
},
{
closed = 1;
nodes = (
"589 226 LINE",
"589 303 LINE",
"369 303 LINE",
"369 226 LINE"
);
}
);
width = 600;
}
);
note = uni2116;
unicode = 2116;
},
{
glyphname = partialdiff;
lastChange = "2017-11-24 19:45:46 +0000";
layers = (
{
layerId = "6530489A-D9A3-4CD8-A5AD-1BA8F3B39EAA";
paths = (
{
closed = 1;
nodes = (
"559 489 OFFCURVE",
"436 623 OFFCURVE",
"312 698 CURVE",
"94 698 LINE",
"260 608 OFFCURVE",
"368 518 OFFCURVE",
"406 412 CURVE",
"397 408 LINE",
"365 467 OFFCURVE",
"315 504 OFFCURVE",
"241 504 CURVE SMOOTH",
"119 504 OFFCURVE",
"41 404 OFFCURVE",
"41 255 CURVE SMOOTH",
"41 89 OFFCURVE",
"139 -12 OFFCURVE",
"302 -12 CURVE SMOOTH",
"455 -12 OFFCURVE",
"559 77 OFFCURVE",
"559 274 CURVE SMOOTH"
);
},
{
closed = 1;
nodes = (
"234 98 OFFCURVE",
"194 141 OFFCURVE",
"194 217 CURVE SMOOTH",
"194 273 LINE SMOOTH",
"194 349 OFFCURVE",
"234 392 OFFCURVE",
"300 392 CURVE SMOOTH",
"366 392 OFFCURVE",
"406 349 OFFCURVE",
"406 273 CURVE SMOOTH",
"406 217 LINE SMOOTH",
"406 141 OFFCURVE",
"366 98 OFFCURVE",
"300 98 CURVE SMOOTH"
);
}
);
width = 600;
}
);
note = partialdiff;
unicode = 2202;
},
{
glyphname = cent;
lastChange = "2017-11-24 19:45:46 +0000";
layers = (
{
layerId = "6530489A-D9A3-4CD8-A5AD-1BA8F3B39EAA";
paths = (
{
closed = 1;
nodes = (
"372 -114 LINE",
"372 -8 LINE",
"457 5 OFFCURVE",
"512 51 OFFCURVE",
"543 114 CURVE",
"438 173 LINE",
"422 143 OFFCURVE",
"397 116 OFFCURVE",
"363 104 CURVE",
"363 411 LINE",
"394 398 OFFCURVE",
"415 372 OFFCURVE",
"428 344 CURVE",
"535 402 LINE",
"505 465 OFFCURVE",
"454 511 OFFCURVE",
"372 524 CURVE",
"372 630 LINE",
"258 630 LINE",
"258 522 LINE",
"134 499 OFFCURVE",
"60 402 OFFCURVE",
"60 258 CURVE SMOOTH",
"60 114 OFFCURVE",
"133 17 OFFCURVE",
"258 -6 CURVE",
"258 -114 LINE"
);
},
{
closed = 1;
nodes = (
"202 300 LINE SMOOTH",
"202 353 OFFCURVE",
"225 393 OFFCURVE",
"268 410 CURVE",
"268 106 LINE",
"224 124 OFFCURVE",
"202 164 OFFCURVE",
"202 216 CURVE SMOOTH"
);
}
);
width = 600;
}
);
note = cent;
unicode = 00A2;
},
{
glyphname = Euro;
lastChange = "2017-11-24 19:45:46 +0000";
layers = (
{
layerId = "6530489A-D9A3-4CD8-A5AD-1BA8F3B39EAA";
paths = (
{
closed = 1;
nodes = (
"472 -12 OFFCURVE",
"529 48 OFFCURVE",
"573 109 CURVE",
"464 185 LINE",
"435 133 OFFCURVE",
"397 107 OFFCURVE",
"342 107 CURVE SMOOTH",
"268 107 OFFCURVE",
"223 150 OFFCURVE",
"207 223 CURVE",
"429 223 LINE",
"429 313 LINE",
"201 313 LINE",
"201 385 LINE",
"429 385 LINE",
"429 475 LINE",
"207 475 LINE",
"223 548 OFFCURVE",
"268 591 OFFCURVE",
"342 591 CURVE SMOOTH",
"397 591 OFFCURVE",
"435 565 OFFCURVE",
"464 513 CURVE",
"573 589 LINE",
"529 650 OFFCURVE",
"472 710 OFFCURVE",
"336 710 CURVE SMOOTH",
"153 710 OFFCURVE",
"45 577 OFFCURVE",
"45 349 CURVE SMOOTH",
"45 121 OFFCURVE",
"153 -12 OFFCURVE",
"336 -12 CURVE SMOOTH"
);
}
);
width = 600;
}
);
note = Euro;
unicode = 20AC;
},
{
glyphname = florin;
lastChange = "2017-11-24 19:45:46 +0000";
layers = (
{
layerId = "6530489A-D9A3-4CD8-A5AD-1BA8F3B39EAA";
paths = (
{
closed = 1;
nodes = (
"-50 -200 LINE",
"134 -200 LINE SMOOTH",
"241 -200 OFFCURVE",
"291 -148 OFFCURVE",
"305 -61 CURVE SMOOTH",
"369 323 LINE",
"543 323 LINE",
"561 438 LINE",
"389 438 LINE",
"413 583 LINE",
"598 583 LINE",
"617 698 LINE",
"432 698 LINE SMOOTH",
"324 698 OFFCURVE",
"275 646 OFFCURVE",
"261 559 CURVE SMOOTH",
"241 438 LINE",
"77 438 LINE",
"58 323 LINE",
"221 323 LINE",
"153 -85 LINE",
"-31 -85 LINE"
);
}
);
width = 600;
}
);
note = florin;
unicode = 0192;
},
{
glyphname = sterling;
lastChange = "2017-11-24 19:45:46 +0000";
layers = (
{
layerId = "6530489A-D9A3-4CD8-A5AD-1BA8F3B39EAA";
paths = (
{
closed = 1;
nodes = (
"553 0 LINE",
"553 128 LINE",
"224 128 LINE",
"224 137 LINE",
"260 156 OFFCURVE",
"302 194 OFFCURVE",
"302 262 CURVE SMOOTH",
"302 269 LINE",
"442 269 LINE",
"442 379 LINE",
"267 379 LINE",
"253 411 OFFCURVE",
"239 443 OFFCURVE",
"239 480 CURVE SMOOTH",
"239 544 OFFCURVE",
"278 581 OFFCURVE",
"340 581 CURVE SMOOTH",
"395 581 OFFCURVE",
"429 552 OFFCURVE",
"460 512 CURVE",
"559 605 LINE",
"508 672 OFFCURVE",
"436 710 OFFCURVE",
"335 710 CURVE SMOOTH",
"186 710 OFFCURVE",
"86 627 OFFCURVE",
"86 504 CURVE SMOOTH",
"86 456 OFFCURVE",
"101 416 OFFCURVE",
"117 379 CURVE",
"46 379 LINE",
"46 269 LINE",
"153 269 LINE",
"154 265 OFFCURVE",
"154 261 OFFCURVE",
"154 257 CURVE SMOOTH",
"154 201 OFFCURVE",
"122 159 OFFCURVE",
"69 136 CURVE",
"69 0 LINE"
);
}
);
width = 600;
}
);
note = sterling;
unicode = 00A3;
},
{
glyphname = dollar;
lastChange = "2017-11-24 19:45:46 +0000";
layers = (
{
layerId = "6530489A-D9A3-4CD8-A5AD-1BA8F3B39EAA";
paths = (
{
closed = 1;
nodes = (
"253 -113 LINE",
"367 -113 LINE",
"367 -5 LINE",
"496 18 OFFCURVE",
"568 102 OFFCURVE",
"568 212 CURVE SMOOTH",
"568 313 OFFCURVE",
"507 385 OFFCURVE",
"380 409 CURVE SMOOTH",
"357 413 LINE",
"357 580 LINE",
"399 571 OFFCURVE",
"435 551 OFFCURVE",
"463 520 CURVE",
"549 616 LINE",
"509 662 OFFCURVE",
"450 696 OFFCURVE",
"367 707 CURVE",
"367 811 LINE",
"253 811 LINE",
"253 706 LINE",
"124 689 OFFCURVE",
"52 614 OFFCURVE",
"52 502 CURVE SMOOTH",
"52 400 OFFCURVE",
"112 324 OFFCURVE",
"240 301 CURVE SMOOTH",
"263 297 LINE",
"263 113 LINE",
"209 121 OFFCURVE",
"159 146 OFFCURVE",
"117 191 CURVE",
"30 96 LINE",
"77 37 OFFCURVE",
"154 -2 OFFCURVE",
"253 -10 CURVE"
);
},
{
closed = 1;
nodes = (
"193 549 OFFCURVE",
"214 575 OFFCURVE",
"263 583 CURVE",
"263 432 LINE",
"214 445 OFFCURVE",
"193 465 OFFCURVE",
"193 507 CURVE SMOOTH"
);
},
{
closed = 1;
nodes = (
"428 156 OFFCURVE",
"405 125 OFFCURVE",
"357 114 CURVE",
"357 279 LINE",
"406 267 OFFCURVE",
"428 247 OFFCURVE",
"428 202 CURVE SMOOTH"
);
}
);
width = 600;
}
);
note = dollar;
unicode = 0024;
},
{
glyphname = yen;
lastChange = "2017-11-24 19:45:46 +0000";
layers = (
{
layerId = "6530489A-D9A3-4CD8-A5AD-1BA8F3B39EAA";
paths = (
{
closed = 1;
nodes = (
"56 0 LINE",
"544 0 LINE",
"544 113 LINE",
"371 113 LINE",
"371 221 LINE",
"544 221 LINE",
"544 334 LINE",
"441 334 LINE",
"600 698 LINE",
"449 698 LINE",
"307 334 LINE",
"297 334 LINE",
"156 698 LINE",
"0 698 LINE",
"160 334 LINE",
"56 334 LINE",
"56 221 LINE",
"229 221 LINE",
"229 113 LINE",
"56 113 LINE"
);
}
);
width = 600;
}
);
note = yen;
unicode = 00A5;
},
{
glyphname = uni0E3F;
lastChange = "2017-11-24 19:45:46 +0000";
layers = (
{
layerId = "6530489A-D9A3-4CD8-A5AD-1BA8F3B39EAA";
paths = (
{
closed = 1;
nodes = (
"358 0 LINE",
"359 0 LINE SMOOTH",
"490 0 OFFCURVE",
"568 75 OFFCURVE",
"568 192 CURVE SMOOTH",
"568 285 OFFCURVE",
"518 339 OFFCURVE",
"433 359 CURVE",
"433 365 LINE",
"508 386 OFFCURVE",
"548 434 OFFCURVE",
"548 512 CURVE SMOOTH",
"548 617 OFFCURVE",
"479 691 OFFCURVE",
"358 697 CURVE",
"358 811 LINE",
"244 811 LINE",
"244 698 LINE",
"64 698 LINE",
"64 0 LINE",
"244 0 LINE",
"244 -113 LINE",
"358 -113 LINE"
);
},
{
closed = 1;
nodes = (
"198 401 LINE",
"198 594 LINE",
"254 594 LINE",
"254 401 LINE"
);
},
{
closed = 1;
nodes = (
"348 590 LINE",
"385 581 OFFCURVE",
"404 558 OFFCURVE",
"404 514 CURVE SMOOTH",
"404 481 LINE SMOOTH",
"404 437 OFFCURVE",
"385 414 OFFCURVE",
"348 405 CURVE"
);
},
{
closed = 1;
nodes = (
"198 104 LINE",
"198 302 LINE",
"254 302 LINE",
"254 104 LINE"
);
},
{
closed = 1;
nodes = (
"348 301 LINE",
"398 296 OFFCURVE",
"424 275 OFFCURVE",
"424 221 CURVE SMOOTH",
"424 185 LINE SMOOTH",
"424 131 OFFCURVE",
"398 110 OFFCURVE",
"348 105 CURVE"
);
}
);
width = 600;
}
);
note = uni0E3F;
unicode = 0E3F;
},
{
glyphname = uni20A1;
lastChange = "2017-11-24 19:45:46 +0000";
layers = (
{
layerId = "6530489A-D9A3-4CD8-A5AD-1BA8F3B39EAA";
paths = (
{
closed = 1;
nodes = (
"311 -113 LINE",
"382 -113 LINE",
"389 -5 LINE",
"471 13 OFFCURVE",
"533 62 OFFCURVE",
"569 152 CURVE",
"456 206 LINE",
"442 167 OFFCURVE",
"423 140 OFFCURVE",
"397 123 CURVE",
"427 548 LINE",
"438 533 OFFCURVE",
"448 514 OFFCURVE",
"456 492 CURVE",
"569 546 LINE",
"540 617 OFFCURVE",
"495 663 OFFCURVE",
"437 688 CURVE",
"446 811 LINE",
"375 811 LINE",
"368 706 LINE",
"352 709 OFFCURVE",
"335 710 OFFCURVE",
"318 710 CURVE",
"325 811 LINE",
"254 811 LINE",
"247 703 LINE",
"107 673 OFFCURVE",
"41 548 OFFCURVE",
"41 349 CURVE SMOOTH",
"41 175 OFFCURVE",
"92 57 OFFCURVE",
"199 10 CURVE",
"190 -113 LINE",
"261 -113 LINE",
"268 -9 LINE",
"283 -11 OFFCURVE",
"299 -12 OFFCURVE",
"316 -12 CURVE SMOOTH",
"318 -12 LINE"
);
},
{
closed = 1;
nodes = (
"313 598 LINE SMOOTH",
"330 598 OFFCURVE",
"346 596 OFFCURVE",
"361 592 CURVE",
"327 100 LINE",
"313 100 LINE SMOOTH",
"299 100 OFFCURVE",
"286 102 OFFCURVE",
"275 104 CURVE",
"309 598 LINE"
);
},
{
closed = 1;
nodes = (
"183 410 LINE SMOOTH",
"183 486 OFFCURVE",
"198 546 OFFCURVE",
"239 577 CURVE",
"210 154 LINE",
"190 187 OFFCURVE",
"183 234 OFFCURVE",
"183 288 CURVE SMOOTH"
);
}
);
width = 600;
}
);
note = uni20A1;
unicode = 20A1;
},
{
glyphname = uni20A4;
lastChange = "2017-11-24 19:45:46 +0000";
layers = (
{
layerId = "6530489A-D9A3-4CD8-A5AD-1BA8F3B39EAA";
paths = (
{
closed = 1;
nodes = (
"553 128 LINE",
"224 128 LINE",
"224 137 LINE",
"247 149 OFFCURVE",
"273 169 OFFCURVE",
"288 200 CURVE",
"424 200 LINE",
"424 289 LINE",
"300 289 LINE",
"296 313 OFFCURVE",
"287 336 OFFCURVE",
"278 357 CURVE",
"424 357 LINE",
"424 446 LINE",
"243 446 LINE",
"240 457 OFFCURVE",
"239 468 OFFCURVE",
"239 480 CURVE SMOOTH",
"239 544 OFFCURVE",
"278 581 OFFCURVE",
"340 581 CURVE SMOOTH",
"395 581 OFFCURVE",
"429 552 OFFCURVE",
"460 512 CURVE",
"559 605 LINE",
"508 672 OFFCURVE",
"436 710 OFFCURVE",
"335 710 CURVE SMOOTH",
"186 710 OFFCURVE",
"86 627 OFFCURVE",
"86 504 CURVE SMOOTH",
"86 483 OFFCURVE",
"89 464 OFFCURVE",
"93 446 CURVE",
"49 446 LINE",
"49 357 LINE",
"127 357 LINE",
"137 334 OFFCURVE",
"146 312 OFFCURVE",
"151 289 CURVE",
"49 289 LINE",
"49 200 LINE",
"141 200 LINE",
"127 172 OFFCURVE",
"102 150 OFFCURVE",
"69 136 CURVE",
"69 0 LINE",
"553 0 LINE"
);
}
);
width = 600;
}
);
note = uni20A4;
unicode = 20A4;
},
{
glyphname = uni20A6;
lastChange = "2017-11-24 19:45:46 +0000";
layers = (
{
layerId = "6530489A-D9A3-4CD8-A5AD-1BA8F3B39EAA";
paths = (
{
closed = 1;
nodes = (
"344 0 LINE",
"532 0 LINE",
"532 231 LINE",
"577 231 LINE",
"577 325 LINE",
"532 325 LINE",
"532 373 LINE",
"577 373 LINE",
"577 467 LINE",
"532 467 LINE",
"532 698 LINE",
"422 698 LINE",
"422 460 LINE",
"322 460 LINE",
"256 698 LINE",
"68 698 LINE",
"68 467 LINE",
"23 467 LINE",
"23 373 LINE",
"68 373 LINE",
"68 325 LINE",
"23 325 LINE",
"23 231 LINE",
"68 231 LINE",
"68 0 LINE",
"178 0 LINE",
"178 238 LINE",
"278 238 LINE"
);
},
{
closed = 1;
nodes = (
"178 318 LINE",
"178 564 LINE",
"188 564 LINE",
"256 318 LINE"
);
},
{
closed = 1;
nodes = (
"344 380 LINE",
"422 380 LINE",
"422 134 LINE",
"412 134 LINE"
);
}
);
width = 600;
}
);
note = uni20A6;
unicode = 20A6;
},
{
glyphname = uni20A8;
lastChange = "2017-11-24 19:45:46 +0000";
layers = (
{
layerId = "6530489A-D9A3-4CD8-A5AD-1BA8F3B39EAA";
paths = (
{
closed = 1;
nodes = (
"156 0 LINE",
"156 321 LINE",
"169 321 LINE",
"227 128 LINE SMOOTH",
"258 25 OFFCURVE",
"321 -12 OFFCURVE",
"417 -12 CURVE SMOOTH",
"537 -12 OFFCURVE",
"590 45 OFFCURVE",
"590 128 CURVE SMOOTH",
"590 183 OFFCURVE",
"567 220 OFFCURVE",
"524 263 CURVE SMOOTH",
"509 278 LINE SMOOTH",
"485 302 OFFCURVE",
"475 317 OFFCURVE",
"475 341 CURVE SMOOTH",
"475 368 OFFCURVE",
"488 379 OFFCURVE",
"513 379 CURVE SMOOTH",
"531 379 OFFCURVE",
"546 373 OFFCURVE",
"562 362 CURVE",
"600 449 LINE",
"571 468 OFFCURVE",
"533 476 OFFCURVE",
"500 476 CURVE SMOOTH",
"416 476 OFFCURVE",
"357 424 OFFCURVE",
"357 337 CURVE SMOOTH",
"357 283 OFFCURVE",
"380 246 OFFCURVE",
"423 203 CURVE SMOOTH",
"438 188 LINE SMOOTH",
"462 164 OFFCURVE",
"472 148 OFFCURVE",
"472 126 CURVE SMOOTH",
"472 99 OFFCURVE",
"457 86 OFFCURVE",
"426 86 CURVE SMOOTH",
"380 86 OFFCURVE",
"358 116 OFFCURVE",
"342 166 CURVE SMOOTH",
"284 347 LINE",
"341 380 OFFCURVE",
"368 446 OFFCURVE",
"368 516 CURVE SMOOTH",
"368 631 OFFCURVE",
"303 698 OFFCURVE",
"187 698 CURVE SMOOTH",
"37 698 LINE",
"37 0 LINE"
);
},
{
closed = 1;
nodes = (
"156 419 LINE",
"156 597 LINE",
"190 597 LINE SMOOTH",
"231 597 OFFCURVE",
"248 578 OFFCURVE",
"248 529 CURVE SMOOTH",
"248 487 LINE SMOOTH",
"248 438 OFFCURVE",
"231 419 OFFCURVE",
"190 419 CURVE SMOOTH"
);
}
);
width = 600;
}
);
note = uni20A8;
unicode = 20A8;
},
{
glyphname = uni20A9;
lastChange = "2017-11-24 19:45:46 +0000";
layers = (
{
layerId = "6530489A-D9A3-4CD8-A5AD-1BA8F3B39EAA";
paths = (
{
closed = 1;
nodes = (
"77 0 LINE",
"257 0 LINE",
"288 444 LINE",
"312 444 LINE",
"343 0 LINE",
"523 0 LINE",
"532 270 LINE",
"592 270 LINE",
"592 361 LINE",
"535 361 LINE",
"537 437 LINE",
"592 437 LINE",
"592 529 LINE",
"540 529 LINE",
"546 698 LINE",
"423 698 LINE",
"423 522 LINE",
"180 522 LINE",
"180 698 LINE",
"54 698 LINE",
"60 529 LINE",
"8 529 LINE",
"8 437 LINE",
"63 437 LINE",
"65 361 LINE",
"8 361 LINE",
"8 270 LINE",
"68 270 LINE"
);
},
{
closed = 1;
nodes = (
"172 93 LINE",
"172 444 LINE",
"222 444 LINE",
"197 93 LINE"
);
},
{
closed = 1;
nodes = (
"406 93 LINE",
"381 444 LINE",
"431 444 LINE",
"431 93 LINE"
);
}
);
width = 600;
}
);
note = uni20A9;
unicode = 20A9;
},
{
glyphname = uni20AA;
lastChange = "2017-11-24 19:45:46 +0000";
layers = (
{
layerId = "6530489A-D9A3-4CD8-A5AD-1BA8F3B39EAA";
paths = (
{
closed = 1;
nodes = (
"184 0 LINE",
"381 0 LINE SMOOTH",
"491 0 OFFCURVE",
"570 65 OFFCURVE",
"570 198 CURVE SMOOTH",
"570 698 LINE",
"467 698 LINE",
"467 199 LINE SMOOTH",
"467 120 OFFCURVE",
"420 90 OFFCURVE",
"364 90 CURVE SMOOTH",
"279 90 LINE",
"279 531 LINE",
"184 531 LINE"
);
},
{
closed = 1;
nodes = (
"137 0 LINE",
"137 608 LINE",
"223 608 LINE SMOOTH",
"279 608 OFFCURVE",
"325 578 OFFCURVE",
"325 499 CURVE SMOOTH",
"325 167 LINE",
"420 167 LINE",
"420 500 LINE SMOOTH",
"420 633 OFFCURVE",
"343 698 OFFCURVE",
"233 698 CURVE SMOOTH",
"34 698 LINE",
"34 0 LINE"
);
}
);
width = 600;
}
);
note = uni20AA;
unicode = 20AA;
},
{
glyphname = uni20AB;
lastChange = "2017-11-24 19:45:46 +0000";
layers = (
{
layerId = "6530489A-D9A3-4CD8-A5AD-1BA8F3B39EAA";
paths = (
{
closed = 1;
nodes = (
"379 166 LINE",
"519 166 LINE",
"519 584 LINE",
"569 584 LINE",
"569 689 LINE",
"519 689 LINE",
"519 740 LINE",
"379 740 LINE",
"379 689 LINE",
"253 689 LINE",
"253 584 LINE",
"379 584 LINE",
"379 447 LINE",
"373 447 LINE",
"351 499 OFFCURVE",
"314 544 OFFCURVE",
"236 544 CURVE SMOOTH",
"139 544 OFFCURVE",
"70 484 OFFCURVE",
"70 350 CURVE SMOOTH",
"70 216 OFFCURVE",
"139 156 OFFCURVE",
"236 156 CURVE SMOOTH",
"314 156 OFFCURVE",
"351 201 OFFCURVE",
"373 253 CURVE",
"379 253 LINE"
);
},
{
closed = 1;
nodes = (
"241 260 OFFCURVE",
"214 295 OFFCURVE",
"214 341 CURVE SMOOTH",
"214 359 LINE SMOOTH",
"214 405 OFFCURVE",
"241 440 OFFCURVE",
"296 440 CURVE SMOOTH",
"349 440 OFFCURVE",
"379 408 OFFCURVE",
"379 376 CURVE SMOOTH",
"379 324 LINE SMOOTH",
"379 292 OFFCURVE",
"349 260 OFFCURVE",
"296 260 CURVE SMOOTH"
);
},
{
closed = 1;
nodes = (
"542 0 LINE",
"542 107 LINE",
"82 107 LINE",
"82 0 LINE"
);
}
);
width = 600;
}
);
note = uni20AB;
unicode = 20AB;
},
{
glyphname = uni20AD;
lastChange = "2017-11-24 19:45:46 +0000";
layers = (
{
layerId = "6530489A-D9A3-4CD8-A5AD-1BA8F3B39EAA";
paths = (
{
closed = 1;
nodes = (
"219 296 LINE",
"259 296 LINE",
"433 0 LINE",
"601 0 LINE",
"420 296 LINE",
"555 296 LINE",
"555 416 LINE",
"410 416 LINE",
"585 698 LINE",
"424 698 LINE",
"259 416 LINE",
"219 416 LINE",
"219 698 LINE",
"69 698 LINE",
"69 416 LINE",
"19 416 LINE",
"19 296 LINE",
"69 296 LINE",
"69 0 LINE",
"219 0 LINE"
);
}
);
width = 600;
}
);
note = uni20AD;
unicode = 20AD;
},
{
glyphname = uni20AE;
lastChange = "2017-11-24 19:45:46 +0000";
layers = (
{
layerId = "6530489A-D9A3-4CD8-A5AD-1BA8F3B39EAA";
paths = (
{
closed = 1;
nodes = (
"500 234 LINE",
"500 334 LINE",
"371 278 LINE",
"371 362 LINE",
"500 418 LINE",
"500 518 LINE",
"371 462 LINE",
"371 581 LINE",
"576 581 LINE",
"576 698 LINE",
"24 698 LINE",
"24 581 LINE",
"229 581 LINE",
"229 400 LINE",
"100 344 LINE",
"100 244 LINE",
"229 300 LINE",
"229 216 LINE",
"100 160 LINE",
"100 60 LINE",
"229 116 LINE",
"229 0 LINE",
"371 0 LINE",
"371 178 LINE"
);
}
);
width = 600;
}
);
note = uni20AE;
unicode = 20AE;
},
{
glyphname = uni20B1;
lastChange = "2017-11-24 19:45:46 +0000";
layers = (
{
layerId = "6530489A-D9A3-4CD8-A5AD-1BA8F3B39EAA";
paths = (
{
closed = 1;
nodes = (
"218 171 LINE",
"318 171 LINE SMOOTH",
"424 171 OFFCURVE",
"492 213 OFFCURVE",
"518 317 CURVE",
"579 317 LINE",
"579 411 LINE",
"531 411 LINE",
"531 460 LINE",
"579 460 LINE",
"579 554 LINE",
"518 554 LINE",
"491 656 OFFCURVE",
"423 698 OFFCURVE",
"318 698 CURVE SMOOTH",
"76 698 LINE",
"76 554 LINE",
"25 554 LINE",
"25 460 LINE",
"76 460 LINE",
"76 411 LINE",
"25 411 LINE",
"25 317 LINE",
"76 317 LINE",
"76 0 LINE",
"218 0 LINE"
);
},
{
closed = 1;
nodes = (
"218 604 LINE",
"293 604 LINE SMOOTH",
"348 604 OFFCURVE",
"372 587 OFFCURVE",
"382 549 CURVE",
"218 549 LINE"
);
},
{
closed = 1;
nodes = (
"218 407 LINE",
"218 464 LINE",
"387 464 LINE",
"387 407 LINE"
);
},
{
closed = 1;
nodes = (
"218 266 LINE",
"218 322 LINE",
"383 322 LINE",
"374 283 OFFCURVE",
"350 266 OFFCURVE",
"293 266 CURVE SMOOTH"
);
}
);
width = 600;
}
);
note = uni20B1;
unicode = 20B1;
},
{
glyphname = uni20B2;
lastChange = "2017-11-24 19:45:46 +0000";
layers = (
{
layerId = "6530489A-D9A3-4CD8-A5AD-1BA8F3B39EAA";
paths = (
{
closed = 1;
nodes = (
"180 -113 LINE",
"296 -113 LINE",
"310 -13 LINE",
"459 -9 OFFCURVE",
"545 88 OFFCURVE",
"545 234 CURVE SMOOTH",
"545 373 LINE",
"354 373 LINE",
"382 568 LINE",
"404 549 OFFCURVE",
"417 522 OFFCURVE",
"426 492 CURVE",
"539 532 LINE",
"515 612 OFFCURVE",
"473 665 OFFCURVE",
"410 691 CURVE",
"426 811 LINE",
"310 811 LINE",
"296 710 LINE",
"117 707 OFFCURVE",
"35 576 OFFCURVE",
"35 350 CURVE SMOOTH",
"35 169 OFFCURVE",
"87 49 OFFCURVE",
"197 5 CURVE"
);
},
{
closed = 1;
nodes = (
"224 132 LINE",
"196 161 OFFCURVE",
"184 212 OFFCURVE",
"184 287 CURVE SMOOTH",
"184 410 LINE SMOOTH",
"184 527 OFFCURVE",
"215 588 OFFCURVE",
"290 594 CURVE"
);
},
{
closed = 1;
nodes = (
"339 267 LINE",
"416 267 LINE",
"416 218 LINE SMOOTH",
"416 157 OFFCURVE",
"388 107 OFFCURVE",
"316 102 CURVE"
);
}
);
width = 600;
}
);
note = uni20B2;
unicode = 20B2;
},
{
glyphname = uni20B4;
lastChange = "2017-11-24 19:45:46 +0000";
layers = (
{
layerId = "6530489A-D9A3-4CD8-A5AD-1BA8F3B39EAA";
paths = (
{
closed = 1;
nodes = (
"405 -12 OFFCURVE",
"483 27 OFFCURVE",
"530 84 CURVE",
"454 173 LINE",
"405 121 OFFCURVE",
"361 102 OFFCURVE",
"316 102 CURVE SMOOTH",
"257 102 OFFCURVE",
"223 134 OFFCURVE",
"223 188 CURVE SMOOTH",
"223 202 OFFCURVE",
"225 217 OFFCURVE",
"231 230 CURVE",
"573 230 LINE",
"573 312 LINE",
"311 312 LINE",
"311 318 LINE",
"460 402 LINE",
"573 402 LINE",
"573 484 LINE",
"497 484 LINE",
"502 498 OFFCURVE",
"505 520 OFFCURVE",
"505 538 CURVE SMOOTH",
"505 630 OFFCURVE",
"429 710 OFFCURVE",
"295 710 CURVE SMOOTH",
"211 710 OFFCURVE",
"142 678 OFFCURVE",
"98 627 CURVE",
"173 538 LINE",
"205 572 OFFCURVE",
"242 593 OFFCURVE",
"289 593 CURVE SMOOTH",
"340 593 OFFCURVE",
"370 568 OFFCURVE",
"370 516 CURVE SMOOTH",
"370 502 OFFCURVE",
"368 493 OFFCURVE",
"364 484 CURVE",
"27 484 LINE",
"27 402 LINE",
"293 402 LINE",
"293 396 LINE",
"144 312 LINE",
"27 312 LINE",
"27 230 LINE",
"95 230 LINE",
"89 216 OFFCURVE",
"87 198 OFFCURVE",
"87 181 CURVE SMOOTH",
"87 75 OFFCURVE",
"163 -12 OFFCURVE",
"308 -12 CURVE SMOOTH"
);
}
);
width = 600;
}
);
note = uni20B4;
unicode = 20B4;
},
{
glyphname = uni20B5;
lastChange = "2017-11-24 19:45:46 +0000";
layers = (
{
layerId = "6530489A-D9A3-4CD8-A5AD-1BA8F3B39EAA";
paths = (
{
closed = 1;
nodes = (
"186 -113 LINE",
"301 -113 LINE",
"315 -12 LINE",
"316 -12 LINE SMOOTH",
"460 -12 OFFCURVE",
"535 67 OFFCURVE",
"563 189 CURVE",
"431 221 LINE",
"417 157 OFFCURVE",
"388 103 OFFCURVE",
"321 101 CURVE",
"388 576 LINE",
"414 558 OFFCURVE",
"428 528 OFFCURVE",
"439 495 CURVE",
"556 534 LINE",
"535 606 OFFCURVE",
"493 667 OFFCURVE",
"415 695 CURVE",
"431 811 LINE",
"316 811 LINE",
"302 710 LINE",
"126 702 OFFCURVE",
"41 574 OFFCURVE",
"41 349 CURVE SMOOTH",
"41 172 OFFCURVE",
"93 53 OFFCURVE",
"203 8 CURVE"
);
},
{
closed = 1;
nodes = (
"230 137 LINE",
"203 168 OFFCURVE",
"191 219 OFFCURVE",
"191 288 CURVE SMOOTH",
"191 410 LINE SMOOTH",
"191 535 OFFCURVE",
"230 586 OFFCURVE",
"295 596 CURVE"
);
}
);
width = 600;
}
);
note = uni20B5;
unicode = 20B5;
},
{
glyphname = uni20B8;
lastChange = "2017-11-24 19:45:46 +0000";
layers = (
{
layerId = "6530489A-D9A3-4CD8-A5AD-1BA8F3B39EAA";
paths = (
{
closed = 1;
nodes = (
"555 593 LINE",
"555 698 LINE",
"45 698 LINE",
"45 593 LINE"
);
},
{
closed = 1;
nodes = (
"556 416 LINE",
"556 521 LINE",
"44 521 LINE",
"44 416 LINE",
"225 416 LINE",
"225 0 LINE",
"375 0 LINE",
"375 416 LINE"
);
}
);
width = 600;
}
);
note = uni20B8;
unicode = 20B8;
},
{
glyphname = uni20B9;
lastChange = "2017-11-24 19:45:46 +0000";
layers = (
{
layerId = "6530489A-D9A3-4CD8-A5AD-1BA8F3B39EAA";
paths = (
{
closed = 1;
nodes = (
"529 0 LINE",
"319 273 LINE",
"386 302 OFFCURVE",
"426 352 OFFCURVE",
"433 427 CURVE",
"564 427 LINE",
"564 519 LINE",
"424 519 LINE",
"410 559 OFFCURVE",
"382 579 OFFCURVE",
"354 584 CURVE",
"354 589 LINE",
"564 589 LINE",
"564 698 LINE",
"46 698 LINE",
"46 589 LINE",
"167 589 LINE SMOOTH",
"232 589 OFFCURVE",
"282 570 OFFCURVE",
"288 519 CURVE",
"46 519 LINE",
"46 427 LINE",
"288 427 LINE",
"283 373 OFFCURVE",
"233 355 OFFCURVE",
"167 355 CURVE SMOOTH",
"46 355 LINE",
"46 246 LINE",
"168 246 LINE",
"352 0 LINE"
);
}
);
width = 600;
}
);
note = uni20B9;
unicode = 20B9;
},
{
glyphname = uni20BA;
lastChange = "2017-11-24 19:45:46 +0000";
layers = (
{
layerId = "6530489A-D9A3-4CD8-A5AD-1BA8F3B39EAA";
paths = (
{
closed = 1;
nodes = (
"109 0 LINE",
"313 0 LINE SMOOTH",
"498 0 OFFCURVE",
"578 135 OFFCURVE",
"578 305 CURVE",
"436 305 LINE",
"436 166 OFFCURVE",
"390 122 OFFCURVE",
"294 122 CURVE SMOOTH",
"248 122 LINE",
"248 264 LINE",
"409 338 LINE",
"409 442 LINE",
"248 368 LINE",
"248 434 LINE",
"409 508 LINE",
"409 612 LINE",
"248 538 LINE",
"248 698 LINE",
"109 698 LINE",
"109 473 LINE",
"39 441 LINE",
"39 337 LINE",
"109 369 LINE",
"109 303 LINE",
"39 271 LINE",
"39 167 LINE",
"109 199 LINE"
);
}
);
width = 600;
}
);
note = uni20BA;
unicode = 20BA;
},
{
glyphname = uni20BD;
lastChange = "2017-11-24 19:45:46 +0000";
layers = (
{
layerId = "6530489A-D9A3-4CD8-A5AD-1BA8F3B39EAA";
paths = (
{
closed = 1;
nodes = (
"449 114 LINE",
"449 223 LINE",
"243 223 LINE",
"243 275 LINE",
"352 275 LINE SMOOTH",
"489 275 OFFCURVE",
"565 357 OFFCURVE",
"565 486 CURVE SMOOTH",
"565 615 OFFCURVE",
"489 698 OFFCURVE",
"352 698 CURVE SMOOTH",
"92 698 LINE",
"92 384 LINE",
"32 384 LINE",
"32 275 LINE",
"92 275 LINE",
"92 223 LINE",
"32 223 LINE",
"32 114 LINE",
"92 114 LINE",
"92 0 LINE",
"243 0 LINE",
"243 114 LINE"
);
},
{
closed = 1;
nodes = (
"243 587 LINE",
"314 587 LINE SMOOTH",
"384 587 OFFCURVE",
"408 562 OFFCURVE",
"408 501 CURVE SMOOTH",
"408 470 LINE SMOOTH",
"408 409 OFFCURVE",
"384 384 OFFCURVE",
"314 384 CURVE SMOOTH",
"243 384 LINE"
);
}
);
width = 600;
}
);
note = uni20BD;
unicode = 20BD;
},
{
glyphname = uni20BF;
lastChange = "2017-11-24 19:45:46 +0000";
layers = (
{
layerId = "6530489A-D9A3-4CD8-A5AD-1BA8F3B39EAA";
paths = (
{
closed = 1;
nodes = (
"313 -113 LINE",
"397 -113 LINE",
"397 4 LINE",
"497 22 OFFCURVE",
"556 91 OFFCURVE",
"556 192 CURVE SMOOTH",
"556 286 OFFCURVE",
"507 338 OFFCURVE",
"420 359 CURVE",
"420 365 LINE",
"496 387 OFFCURVE",
"534 434 OFFCURVE",
"534 512 CURVE SMOOTH",
"534 603 OFFCURVE",
"486 667 OFFCURVE",
"397 689 CURVE",
"397 811 LINE",
"313 811 LINE",
"313 698 LINE",
"252 698 LINE",
"252 811 LINE",
"168 811 LINE",
"168 698 LINE",
"77 698 LINE",
"77 0 LINE",
"168 0 LINE",
"168 -113 LINE",
"252 -113 LINE",
"252 0 LINE",
"313 0 LINE"
);
},
{
closed = 1;
nodes = (
"223 597 LINE",
"280 597 LINE SMOOTH",
"350 597 OFFCURVE",
"381 576 OFFCURVE",
"381 514 CURVE SMOOTH",
"381 485 LINE SMOOTH",
"381 424 OFFCURVE",
"350 402 OFFCURVE",
"280 402 CURVE SMOOTH",
"223 402 LINE"
);
},
{
closed = 1;
nodes = (
"223 302 LINE",
"299 302 LINE SMOOTH",
"371 302 OFFCURVE",
"403 280 OFFCURVE",
"403 217 CURVE SMOOTH",
"403 187 LINE SMOOTH",
"403 124 OFFCURVE",
"371 101 OFFCURVE",
"299 101 CURVE SMOOTH",
"223 101 LINE"
);
}
);
width = 600;
}
);
note = uni20BF;
unicode = 20BF;
},
{
glyphname = fi;
lastChange = "2017-11-24 19:45:46 +0000";
layers = (
{
layerId = "6530489A-D9A3-4CD8-A5AD-1BA8F3B39EAA";
paths = (
{
closed = 1;
nodes = (
"75 0 LINE",
"223 0 LINE",
"223 401 LINE",
"387 401 LINE",
"387 0 LINE",
"535 0 LINE",
"535 516 LINE",
"223 516 LINE",
"223 625 LINE",
"329 625 LINE",
"329 740 LINE",
"232 740 LINE SMOOTH",
"125 740 OFFCURVE",
"75 678 OFFCURVE",
"75 591 CURVE SMOOTH",
"75 516 LINE",
"31 516 LINE",
"31 401 LINE",
"75 401 LINE"
);
},
{
closed = 1;
nodes = (
"527 582 OFFCURVE",
"550 613 OFFCURVE",
"550 652 CURVE SMOOTH",
"550 681 LINE SMOOTH",
"550 721 OFFCURVE",
"527 751 OFFCURVE",
"461 751 CURVE SMOOTH",
"395 751 OFFCURVE",
"372 721 OFFCURVE",
"372 681 CURVE SMOOTH",
"372 652 LINE SMOOTH",
"372 613 OFFCURVE",
"395 582 OFFCURVE",
"461 582 CURVE SMOOTH"
);
}
);
width = 600;
}
);
note = fi;
unicode = FB01;
},
{
glyphname = fl;
lastChange = "2017-11-24 19:45:46 +0000";
layers = (
{
layerId = "6530489A-D9A3-4CD8-A5AD-1BA8F3B39EAA";
paths = (
{
closed = 1;
nodes = (
"75 0 LINE",
"223 0 LINE",
"223 401 LINE",
"331 401 LINE",
"331 516 LINE",
"223 516 LINE",
"223 625 LINE",
"330 625 LINE",
"330 740 LINE",
"232 740 LINE SMOOTH",
"125 740 OFFCURVE",
"75 678 OFFCURVE",
"75 591 CURVE SMOOTH",
"75 516 LINE",
"31 516 LINE",
"31 401 LINE",
"75 401 LINE"
);
},
{
closed = 1;
nodes = (
"387 0 LINE",
"535 0 LINE",
"535 740 LINE",
"387 740 LINE"
);
}
);
width = 600;
}
);
note = fl;
unicode = FB02;
},
{
glyphname = aacute;
lastChange = "2017-11-24 19:45:46 +0000";
layers = (
{
layerId = "6530489A-D9A3-4CD8-A5AD-1BA8F3B39EAA";
paths = (
{
closed = 1;
nodes = (
"442 746 LINE",
"319 807 LINE",
"220 613 LINE",
"308 570 LINE"
);
},
{
closed = 1;
nodes = (
"572 0 LINE",
"572 107 LINE",
"515 107 LINE",
"515 333 LINE SMOOTH",
"515 463 OFFCURVE",
"431 528 OFFCURVE",
"290 528 CURVE SMOOTH",
"175 528 OFFCURVE",
"100 485 OFFCURVE",
"66 427 CURVE",
"147 355 LINE",
"175 393 OFFCURVE",
"211 420 OFFCURVE",
"273 420 CURVE SMOOTH",
"341 420 OFFCURVE",
"367 388 OFFCURVE",
"367 327 CURVE SMOOTH",
"367 301 LINE",
"284 301 LINE SMOOTH",
"133 301 OFFCURVE",
"52 250 OFFCURVE",
"52 142 CURVE SMOOTH",
"52 45 OFFCURVE",
"118 -12 OFFCURVE",
"218 -12 CURVE SMOOTH",
"297 -12 OFFCURVE",
"357 24 OFFCURVE",
"375 91 CURVE",
"380 91 LINE",
"386 33 OFFCURVE",
"426 0 OFFCURVE",
"487 0 CURVE SMOOTH"
);
},
{
closed = 1;
nodes = (
"227 85 OFFCURVE",
"197 104 OFFCURVE",
"197 140 CURVE SMOOTH",
"197 160 LINE SMOOTH",
"197 200 OFFCURVE",
"229 221 OFFCURVE",
"288 221 CURVE SMOOTH",
"367 221 LINE",
"367 159 LINE SMOOTH",
"367 111 OFFCURVE",
"326 85 OFFCURVE",
"274 85 CURVE SMOOTH"
);
}
);
width = 600;
}
);
note = aacute;
unicode = 00E1;
},
{
glyphname = abreve;
lastChange = "2017-11-24 19:45:46 +0000";
layers = (
{
layerId = "6530489A-D9A3-4CD8-A5AD-1BA8F3B39EAA";
paths = (
{
closed = 1;
nodes = (
"412 570 OFFCURVE",
"461 668 OFFCURVE",
"486 740 CURVE",
"403 782 LINE",
"382 750 LINE SMOOTH",
"351 702 OFFCURVE",
"331 673 OFFCURVE",
"292 673 CURVE SMOOTH",
"253 673 OFFCURVE",
"233 702 OFFCURVE",
"202 750 CURVE SMOOTH",
"181 782 LINE",
"98 740 LINE",
"123 668 OFFCURVE",
"172 570 OFFCURVE",
"292 570 CURVE SMOOTH"
);
},
{
closed = 1;
nodes = (
"572 0 LINE",
"572 107 LINE",
"515 107 LINE",
"515 333 LINE SMOOTH",
"515 463 OFFCURVE",
"431 528 OFFCURVE",
"290 528 CURVE SMOOTH",
"175 528 OFFCURVE",
"100 485 OFFCURVE",
"66 427 CURVE",
"147 355 LINE",
"175 393 OFFCURVE",
"211 420 OFFCURVE",
"273 420 CURVE SMOOTH",
"341 420 OFFCURVE",
"367 388 OFFCURVE",
"367 327 CURVE SMOOTH",
"367 301 LINE",
"284 301 LINE SMOOTH",
"133 301 OFFCURVE",
"52 250 OFFCURVE",
"52 142 CURVE SMOOTH",
"52 45 OFFCURVE",
"118 -12 OFFCURVE",
"218 -12 CURVE SMOOTH",
"297 -12 OFFCURVE",
"357 24 OFFCURVE",
"375 91 CURVE",
"380 91 LINE",
"386 33 OFFCURVE",
"426 0 OFFCURVE",
"487 0 CURVE SMOOTH"
);
},
{
closed = 1;
nodes = (
"227 85 OFFCURVE",
"197 104 OFFCURVE",
"197 140 CURVE SMOOTH",
"197 160 LINE SMOOTH",
"197 200 OFFCURVE",
"229 221 OFFCURVE",
"288 221 CURVE SMOOTH",
"367 221 LINE",
"367 159 LINE SMOOTH",
"367 111 OFFCURVE",
"326 85 OFFCURVE",
"274 85 CURVE SMOOTH"
);
}
);
width = 600;
}
);
note = abreve;
unicode = 0103;
},
{
glyphname = acircumflex;
lastChange = "2017-11-24 19:45:46 +0000";
layers = (
{
layerId = "6530489A-D9A3-4CD8-A5AD-1BA8F3B39EAA";
paths = (
{
closed = 1;
nodes = (
"230 786 LINE",
"98 627 LINE",
"169 569 LINE",
"290 684 LINE",
"411 569 LINE",
"486 627 LINE",
"354 786 LINE"
);
},
{
closed = 1;
nodes = (
"572 0 LINE",
"572 107 LINE",
"515 107 LINE",
"515 333 LINE SMOOTH",
"515 463 OFFCURVE",
"431 528 OFFCURVE",
"290 528 CURVE SMOOTH",
"175 528 OFFCURVE",
"100 485 OFFCURVE",
"66 427 CURVE",
"147 355 LINE",
"175 393 OFFCURVE",
"211 420 OFFCURVE",
"273 420 CURVE SMOOTH",
"341 420 OFFCURVE",
"367 388 OFFCURVE",
"367 327 CURVE SMOOTH",
"367 301 LINE",
"284 301 LINE SMOOTH",
"133 301 OFFCURVE",
"52 250 OFFCURVE",
"52 142 CURVE SMOOTH",
"52 45 OFFCURVE",
"118 -12 OFFCURVE",
"218 -12 CURVE SMOOTH",
"297 -12 OFFCURVE",
"357 24 OFFCURVE",
"375 91 CURVE",
"380 91 LINE",
"386 33 OFFCURVE",
"426 0 OFFCURVE",
"487 0 CURVE SMOOTH"
);
},
{
closed = 1;
nodes = (
"227 85 OFFCURVE",
"197 104 OFFCURVE",
"197 140 CURVE SMOOTH",
"197 160 LINE SMOOTH",
"197 200 OFFCURVE",
"229 221 OFFCURVE",
"288 221 CURVE SMOOTH",
"367 221 LINE",
"367 159 LINE SMOOTH",
"367 111 OFFCURVE",
"326 85 OFFCURVE",
"274 85 CURVE SMOOTH"
);
}
);
width = 600;
}
);
note = acircumflex;
unicode = 00E2;
},
{
glyphname = adieresis;
lastChange = "2017-11-24 19:45:46 +0000";
layers = (
{
layerId = "6530489A-D9A3-4CD8-A5AD-1BA8F3B39EAA";
paths = (
{
closed = 1;
nodes = (
"242 591 OFFCURVE",
"263 619 OFFCURVE",
"263 654 CURVE SMOOTH",
"263 680 LINE SMOOTH",
"263 715 OFFCURVE",
"242 742 OFFCURVE",
"182 742 CURVE SMOOTH",
"123 742 OFFCURVE",
"102 715 OFFCURVE",
"102 680 CURVE SMOOTH",
"102 654 LINE SMOOTH",
"102 619 OFFCURVE",
"123 591 OFFCURVE",
"182 591 CURVE SMOOTH"
);
},
{
closed = 1;
nodes = (
"461 591 OFFCURVE",
"482 619 OFFCURVE",
"482 654 CURVE SMOOTH",
"482 680 LINE SMOOTH",
"482 715 OFFCURVE",
"461 742 OFFCURVE",
"402 742 CURVE SMOOTH",
"342 742 OFFCURVE",
"321 715 OFFCURVE",
"321 680 CURVE SMOOTH",
"321 654 LINE SMOOTH",
"321 619 OFFCURVE",
"342 591 OFFCURVE",
"402 591 CURVE SMOOTH"
);
},
{
closed = 1;
nodes = (
"572 0 LINE",
"572 107 LINE",
"515 107 LINE",
"515 333 LINE SMOOTH",
"515 463 OFFCURVE",
"431 528 OFFCURVE",
"290 528 CURVE SMOOTH",
"175 528 OFFCURVE",
"100 485 OFFCURVE",
"66 427 CURVE",
"147 355 LINE",
"175 393 OFFCURVE",
"211 420 OFFCURVE",
"273 420 CURVE SMOOTH",
"341 420 OFFCURVE",
"367 388 OFFCURVE",
"367 327 CURVE SMOOTH",
"367 301 LINE",
"284 301 LINE SMOOTH",
"133 301 OFFCURVE",
"52 250 OFFCURVE",
"52 142 CURVE SMOOTH",
"52 45 OFFCURVE",
"118 -12 OFFCURVE",
"218 -12 CURVE SMOOTH",
"297 -12 OFFCURVE",
"357 24 OFFCURVE",
"375 91 CURVE",
"380 91 LINE",
"386 33 OFFCURVE",
"426 0 OFFCURVE",
"487 0 CURVE SMOOTH"
);
},
{
closed = 1;
nodes = (
"227 85 OFFCURVE",
"197 104 OFFCURVE",
"197 140 CURVE SMOOTH",
"197 160 LINE SMOOTH",
"197 200 OFFCURVE",
"229 221 OFFCURVE",
"288 221 CURVE SMOOTH",
"367 221 LINE",
"367 159 LINE SMOOTH",
"367 111 OFFCURVE",
"326 85 OFFCURVE",
"274 85 CURVE SMOOTH"
);
}
);
width = 600;
}
);
note = adieresis;
unicode = 00E4;
},
{
glyphname = uni1EA1;
lastChange = "2017-11-24 19:45:46 +0000";
layers = (
{
layerId = "6530489A-D9A3-4CD8-A5AD-1BA8F3B39EAA";
paths = (
{
closed = 1;
nodes = (
"351 -203 OFFCURVE",
"373 -176 OFFCURVE",
"373 -141 CURVE SMOOTH",
"373 -115 LINE SMOOTH",
"373 -79 OFFCURVE",
"351 -52 OFFCURVE",
"292 -52 CURVE SMOOTH",
"233 -52 OFFCURVE",
"211 -79 OFFCURVE",
"211 -115 CURVE SMOOTH",
"211 -141 LINE SMOOTH",
"211 -176 OFFCURVE",
"233 -203 OFFCURVE",
"292 -203 CURVE SMOOTH"
);
},
{
closed = 1;
nodes = (
"572 0 LINE",
"572 107 LINE",
"515 107 LINE",
"515 333 LINE SMOOTH",
"515 463 OFFCURVE",
"431 528 OFFCURVE",
"290 528 CURVE SMOOTH",
"175 528 OFFCURVE",
"100 485 OFFCURVE",
"66 427 CURVE",
"147 355 LINE",
"175 393 OFFCURVE",
"211 420 OFFCURVE",
"273 420 CURVE SMOOTH",
"341 420 OFFCURVE",
"367 388 OFFCURVE",
"367 327 CURVE SMOOTH",
"367 301 LINE",
"284 301 LINE SMOOTH",
"133 301 OFFCURVE",
"52 250 OFFCURVE",
"52 142 CURVE SMOOTH",
"52 45 OFFCURVE",
"118 -12 OFFCURVE",
"218 -12 CURVE SMOOTH",
"297 -12 OFFCURVE",
"357 24 OFFCURVE",
"375 91 CURVE",
"380 91 LINE",
"386 33 OFFCURVE",
"426 0 OFFCURVE",
"487 0 CURVE SMOOTH"
);
},
{
closed = 1;
nodes = (
"227 85 OFFCURVE",
"197 104 OFFCURVE",
"197 140 CURVE SMOOTH",
"197 160 LINE SMOOTH",
"197 200 OFFCURVE",
"229 221 OFFCURVE",
"288 221 CURVE SMOOTH",
"367 221 LINE",
"367 159 LINE SMOOTH",
"367 111 OFFCURVE",
"326 85 OFFCURVE",
"274 85 CURVE SMOOTH"
);
}
);
width = 600;
}
);
note = uni1EA1;
unicode = 1EA1;
},
{
glyphname = agrave;
lastChange = "2017-11-24 19:45:46 +0000";
layers = (
{
layerId = "6530489A-D9A3-4CD8-A5AD-1BA8F3B39EAA";
paths = (
{
closed = 1;
nodes = (
"276 570 LINE",
"364 613 LINE",
"265 807 LINE",
"142 746 LINE"
);
},
{
closed = 1;
nodes = (
"572 0 LINE",
"572 107 LINE",
"515 107 LINE",
"515 333 LINE SMOOTH",
"515 463 OFFCURVE",
"431 528 OFFCURVE",
"290 528 CURVE SMOOTH",
"175 528 OFFCURVE",
"100 485 OFFCURVE",
"66 427 CURVE",
"147 355 LINE",
"175 393 OFFCURVE",
"211 420 OFFCURVE",
"273 420 CURVE SMOOTH",
"341 420 OFFCURVE",
"367 388 OFFCURVE",
"367 327 CURVE SMOOTH",
"367 301 LINE",
"284 301 LINE SMOOTH",
"133 301 OFFCURVE",
"52 250 OFFCURVE",
"52 142 CURVE SMOOTH",
"52 45 OFFCURVE",
"118 -12 OFFCURVE",
"218 -12 CURVE SMOOTH",
"297 -12 OFFCURVE",
"357 24 OFFCURVE",
"375 91 CURVE",
"380 91 LINE",
"386 33 OFFCURVE",
"426 0 OFFCURVE",
"487 0 CURVE SMOOTH"
);
},
{
closed = 1;
nodes = (
"227 85 OFFCURVE",
"197 104 OFFCURVE",
"197 140 CURVE SMOOTH",
"197 160 LINE SMOOTH",
"197 200 OFFCURVE",
"229 221 OFFCURVE",
"288 221 CURVE SMOOTH",
"367 221 LINE",
"367 159 LINE SMOOTH",
"367 111 OFFCURVE",
"326 85 OFFCURVE",
"274 85 CURVE SMOOTH"
);
}
);
width = 600;
}
);
note = agrave;
unicode = 00E0;
},
{
glyphname = uni1EA3;
lastChange = "2017-11-24 19:45:46 +0000";
layers = (
{
layerId = "6530489A-D9A3-4CD8-A5AD-1BA8F3B39EAA";
paths = (
{
closed = 1;
nodes = (
"172 687 LINE",
"294 687 LINE",
"253 595 LINE",
"328 560 LINE",
"356 594 LINE SMOOTH",
"389 634 OFFCURVE",
"413 681 OFFCURVE",
"413 720 CURVE SMOOTH",
"413 759 OFFCURVE",
"390 793 OFFCURVE",
"315 793 CURVE SMOOTH",
"172 793 LINE"
);
},
{
closed = 1;
nodes = (
"572 0 LINE",
"572 107 LINE",
"515 107 LINE",
"515 333 LINE SMOOTH",
"515 463 OFFCURVE",
"431 528 OFFCURVE",
"290 528 CURVE SMOOTH",
"175 528 OFFCURVE",
"100 485 OFFCURVE",
"66 427 CURVE",
"147 355 LINE",
"175 393 OFFCURVE",
"211 420 OFFCURVE",
"273 420 CURVE SMOOTH",
"341 420 OFFCURVE",
"367 388 OFFCURVE",
"367 327 CURVE SMOOTH",
"367 301 LINE",
"284 301 LINE SMOOTH",
"133 301 OFFCURVE",
"52 250 OFFCURVE",
"52 142 CURVE SMOOTH",
"52 45 OFFCURVE",
"118 -12 OFFCURVE",
"218 -12 CURVE SMOOTH",
"297 -12 OFFCURVE",
"357 24 OFFCURVE",
"375 91 CURVE",
"380 91 LINE",
"386 33 OFFCURVE",
"426 0 OFFCURVE",
"487 0 CURVE SMOOTH"
);
},
{
closed = 1;
nodes = (
"227 85 OFFCURVE",
"197 104 OFFCURVE",
"197 140 CURVE SMOOTH",
"197 160 LINE SMOOTH",
"197 200 OFFCURVE",
"229 221 OFFCURVE",
"288 221 CURVE SMOOTH",
"367 221 LINE",
"367 159 LINE SMOOTH",
"367 111 OFFCURVE",
"326 85 OFFCURVE",
"274 85 CURVE SMOOTH"
);
}
);
width = 600;
}
);
note = uni1EA3;
unicode = 1EA3;
},
{
glyphname = amacron;
lastChange = "2017-11-24 19:45:46 +0000";
layers = (
{
layerId = "6530489A-D9A3-4CD8-A5AD-1BA8F3B39EAA";
paths = (
{
closed = 1;
nodes = (
"139 615 LINE",
"445 615 LINE",
"445 718 LINE",
"139 718 LINE"
);
},
{
closed = 1;
nodes = (
"572 0 LINE",
"572 107 LINE",
"515 107 LINE",
"515 333 LINE SMOOTH",
"515 463 OFFCURVE",
"431 528 OFFCURVE",
"290 528 CURVE SMOOTH",
"175 528 OFFCURVE",
"100 485 OFFCURVE",
"66 427 CURVE",
"147 355 LINE",
"175 393 OFFCURVE",
"211 420 OFFCURVE",
"273 420 CURVE SMOOTH",
"341 420 OFFCURVE",
"367 388 OFFCURVE",
"367 327 CURVE SMOOTH",
"367 301 LINE",
"284 301 LINE SMOOTH",
"133 301 OFFCURVE",
"52 250 OFFCURVE",
"52 142 CURVE SMOOTH",
"52 45 OFFCURVE",
"118 -12 OFFCURVE",
"218 -12 CURVE SMOOTH",
"297 -12 OFFCURVE",
"357 24 OFFCURVE",
"375 91 CURVE",
"380 91 LINE",
"386 33 OFFCURVE",
"426 0 OFFCURVE",
"487 0 CURVE SMOOTH"
);
},
{
closed = 1;
nodes = (
"227 85 OFFCURVE",
"197 104 OFFCURVE",
"197 140 CURVE SMOOTH",
"197 160 LINE SMOOTH",
"197 200 OFFCURVE",
"229 221 OFFCURVE",
"288 221 CURVE SMOOTH",
"367 221 LINE",
"367 159 LINE SMOOTH",
"367 111 OFFCURVE",
"326 85 OFFCURVE",
"274 85 CURVE SMOOTH"
);
}
);
width = 600;
}
);
note = amacron;
unicode = 0101;
},
{
glyphname = aogonek;
lastChange = "2017-11-24 19:45:46 +0000";
layers = (
{
layerId = "6530489A-D9A3-4CD8-A5AD-1BA8F3B39EAA";
paths = (
{
closed = 1;
nodes = (
"572 107 LINE",
"515 107 LINE",
"515 333 LINE SMOOTH",
"515 463 OFFCURVE",
"431 528 OFFCURVE",
"290 528 CURVE SMOOTH",
"175 528 OFFCURVE",
"100 485 OFFCURVE",
"66 427 CURVE",
"147 355 LINE",
"175 393 OFFCURVE",
"211 420 OFFCURVE",
"273 420 CURVE SMOOTH",
"341 420 OFFCURVE",
"367 388 OFFCURVE",
"367 327 CURVE SMOOTH",
"367 301 LINE",
"284 301 LINE SMOOTH",
"133 301 OFFCURVE",
"52 250 OFFCURVE",
"52 142 CURVE SMOOTH",
"52 45 OFFCURVE",
"118 -12 OFFCURVE",
"218 -12 CURVE SMOOTH",
"297 -12 OFFCURVE",
"357 24 OFFCURVE",
"375 91 CURVE",
"380 91 LINE",
"385 36 OFFCURVE",
"420 4 OFFCURVE",
"475 0 CURVE",
"477 -4 LINE",
"403 -38 OFFCURVE",
"358 -71 OFFCURVE",
"358 -127 CURVE SMOOTH",
"358 -191 OFFCURVE",
"416 -212 OFFCURVE",
"482 -212 CURVE SMOOTH",
"545 -212 OFFCURVE",
"587 -193 OFFCURVE",
"604 -161 CURVE",
"551 -110 LINE",
"537 -126 OFFCURVE",
"520 -138 OFFCURVE",
"496 -138 CURVE SMOOTH",
"476 -138 OFFCURVE",
"458 -130 OFFCURVE",
"458 -105 CURVE SMOOTH",
"458 -81 OFFCURVE",
"474 -60 OFFCURVE",
"572 0 CURVE"
);
},
{
closed = 1;
nodes = (
"367 221 LINE",
"367 159 LINE SMOOTH",
"367 111 OFFCURVE",
"326 85 OFFCURVE",
"273 85 CURVE SMOOTH",
"227 85 OFFCURVE",
"197 104 OFFCURVE",
"197 140 CURVE SMOOTH",
"197 160 LINE SMOOTH",
"197 200 OFFCURVE",
"229 221 OFFCURVE",
"288 221 CURVE SMOOTH"
);
}
);
width = 600;
}
);
note = aogonek;
unicode = 0105;
},
{
glyphname = aring;
lastChange = "2017-11-24 19:45:46 +0000";
layers = (
{
layerId = "6530489A-D9A3-4CD8-A5AD-1BA8F3B39EAA";
paths = (
{
closed = 1;
nodes = (
"375 549 OFFCURVE",
"440 610 OFFCURVE",
"440 692 CURVE SMOOTH",
"440 775 OFFCURVE",
"375 835 OFFCURVE",
"292 835 CURVE SMOOTH",
"209 835 OFFCURVE",
"144 774 OFFCURVE",
"144 692 CURVE SMOOTH",
"144 609 OFFCURVE",
"209 549 OFFCURVE",
"292 549 CURVE SMOOTH"
);
},
{
closed = 1;
nodes = (
"259 624 OFFCURVE",
"241 643 OFFCURVE",
"241 675 CURVE SMOOTH",
"241 709 LINE SMOOTH",
"241 740 OFFCURVE",
"259 760 OFFCURVE",
"292 760 CURVE SMOOTH",
"325 760 OFFCURVE",
"343 741 OFFCURVE",
"343 709 CURVE SMOOTH",
"343 675 LINE SMOOTH",
"343 644 OFFCURVE",
"325 624 OFFCURVE",
"292 624 CURVE SMOOTH"
);
},
{
closed = 1;
nodes = (
"572 0 LINE",
"572 107 LINE",
"515 107 LINE",
"515 333 LINE SMOOTH",
"515 463 OFFCURVE",
"431 528 OFFCURVE",
"290 528 CURVE SMOOTH",
"175 528 OFFCURVE",
"100 485 OFFCURVE",
"66 427 CURVE",
"147 355 LINE",
"175 393 OFFCURVE",
"211 420 OFFCURVE",
"273 420 CURVE SMOOTH",
"341 420 OFFCURVE",
"367 388 OFFCURVE",
"367 327 CURVE SMOOTH",
"367 301 LINE",
"284 301 LINE SMOOTH",
"133 301 OFFCURVE",
"52 250 OFFCURVE",
"52 142 CURVE SMOOTH",
"52 45 OFFCURVE",
"118 -12 OFFCURVE",
"218 -12 CURVE SMOOTH",
"297 -12 OFFCURVE",
"357 24 OFFCURVE",
"375 91 CURVE",
"380 91 LINE",
"386 33 OFFCURVE",
"426 0 OFFCURVE",
"487 0 CURVE SMOOTH"
);
},
{
closed = 1;
nodes = (
"227 85 OFFCURVE",
"197 104 OFFCURVE",
"197 140 CURVE SMOOTH",
"197 160 LINE SMOOTH",
"197 200 OFFCURVE",
"229 221 OFFCURVE",
"288 221 CURVE SMOOTH",
"367 221 LINE",
"367 159 LINE SMOOTH",
"367 111 OFFCURVE",
"326 85 OFFCURVE",
"274 85 CURVE SMOOTH"
);
}
);
width = 600;
}
);
note = aring;
unicode = 00E5;
},
{
glyphname = aringacute;
lastChange = "2017-11-24 19:45:46 +0000";
layers = (
{
layerId = "6530489A-D9A3-4CD8-A5AD-1BA8F3B39EAA";
paths = (
{
closed = 1;
nodes = (
"435 899 LINE",
"361 980 LINE",
"232 863 LINE",
"285 806 LINE"
);
},
{
closed = 1;
nodes = (
"377 555 OFFCURVE",
"444 600 OFFCURVE",
"444 675 CURVE SMOOTH",
"444 751 OFFCURVE",
"377 795 OFFCURVE",
"292 795 CURVE SMOOTH",
"207 795 OFFCURVE",
"140 750 OFFCURVE",
"140 675 CURVE SMOOTH",
"140 599 OFFCURVE",
"207 555 OFFCURVE",
"292 555 CURVE SMOOTH"
);
},
{
closed = 1;
nodes = (
"256 625 OFFCURVE",
"237 638 OFFCURVE",
"237 670 CURVE SMOOTH",
"237 680 LINE SMOOTH",
"237 711 OFFCURVE",
"256 725 OFFCURVE",
"292 725 CURVE SMOOTH",
"328 725 OFFCURVE",
"347 712 OFFCURVE",
"347 680 CURVE SMOOTH",
"347 670 LINE SMOOTH",
"347 639 OFFCURVE",
"328 625 OFFCURVE",
"292 625 CURVE SMOOTH"
);
},
{
closed = 1;
nodes = (
"572 0 LINE",
"572 107 LINE",
"515 107 LINE",
"515 333 LINE SMOOTH",
"515 463 OFFCURVE",
"431 528 OFFCURVE",
"290 528 CURVE SMOOTH",
"175 528 OFFCURVE",
"100 485 OFFCURVE",
"66 427 CURVE",
"147 355 LINE",
"175 393 OFFCURVE",
"211 420 OFFCURVE",
"273 420 CURVE SMOOTH",
"341 420 OFFCURVE",
"367 388 OFFCURVE",
"367 327 CURVE SMOOTH",
"367 301 LINE",
"284 301 LINE SMOOTH",
"133 301 OFFCURVE",
"52 250 OFFCURVE",
"52 142 CURVE SMOOTH",
"52 45 OFFCURVE",
"118 -12 OFFCURVE",
"218 -12 CURVE SMOOTH",
"297 -12 OFFCURVE",
"357 24 OFFCURVE",
"375 91 CURVE",
"380 91 LINE",
"386 33 OFFCURVE",
"426 0 OFFCURVE",
"487 0 CURVE SMOOTH"
);
},
{
closed = 1;
nodes = (
"227 85 OFFCURVE",
"197 104 OFFCURVE",
"197 140 CURVE SMOOTH",
"197 160 LINE SMOOTH",
"197 200 OFFCURVE",
"229 221 OFFCURVE",
"288 221 CURVE SMOOTH",
"367 221 LINE",
"367 159 LINE SMOOTH",
"367 111 OFFCURVE",
"326 85 OFFCURVE",
"274 85 CURVE SMOOTH"
);
}
);
width = 600;
}
);
note = aringacute;
unicode = 01FB;
},
{
glyphname = atilde;
lastChange = "2017-11-24 19:45:46 +0000";
layers = (
{
layerId = "6530489A-D9A3-4CD8-A5AD-1BA8F3B39EAA";
paths = (
{
closed = 1;
nodes = (
"421 592 OFFCURVE",
"458 620 OFFCURVE",
"482 656 CURVE",
"430 724 LINE",
"409 707 OFFCURVE",
"394 699 OFFCURVE",
"371 699 CURVE SMOOTH",
"345 699 OFFCURVE",
"322 709 OFFCURVE",
"293 721 CURVE SMOOTH",
"268 732 OFFCURVE",
"246 741 OFFCURVE",
"216 741 CURVE SMOOTH",
"163 741 OFFCURVE",
"126 713 OFFCURVE",
"102 677 CURVE",
"154 609 LINE",
"175 626 OFFCURVE",
"190 634 OFFCURVE",
"213 634 CURVE SMOOTH",
"239 634 OFFCURVE",
"262 624 OFFCURVE",
"291 612 CURVE SMOOTH",
"316 601 OFFCURVE",
"338 592 OFFCURVE",
"368 592 CURVE SMOOTH"
);
},
{
closed = 1;
nodes = (
"572 0 LINE",
"572 107 LINE",
"515 107 LINE",
"515 333 LINE SMOOTH",
"515 463 OFFCURVE",
"431 528 OFFCURVE",
"290 528 CURVE SMOOTH",
"175 528 OFFCURVE",
"100 485 OFFCURVE",
"66 427 CURVE",
"147 355 LINE",
"175 393 OFFCURVE",
"211 420 OFFCURVE",
"273 420 CURVE SMOOTH",
"341 420 OFFCURVE",
"367 388 OFFCURVE",
"367 327 CURVE SMOOTH",
"367 301 LINE",
"284 301 LINE SMOOTH",
"133 301 OFFCURVE",
"52 250 OFFCURVE",
"52 142 CURVE SMOOTH",
"52 45 OFFCURVE",
"118 -12 OFFCURVE",
"218 -12 CURVE SMOOTH",
"297 -12 OFFCURVE",
"357 24 OFFCURVE",
"375 91 CURVE",
"380 91 LINE",
"386 33 OFFCURVE",
"426 0 OFFCURVE",
"487 0 CURVE SMOOTH"
);
},
{
closed = 1;
nodes = (
"227 85 OFFCURVE",
"197 104 OFFCURVE",
"197 140 CURVE SMOOTH",
"197 160 LINE SMOOTH",
"197 200 OFFCURVE",
"229 221 OFFCURVE",
"288 221 CURVE SMOOTH",
"367 221 LINE",
"367 159 LINE SMOOTH",
"367 111 OFFCURVE",
"326 85 OFFCURVE",
"274 85 CURVE SMOOTH"
);
}
);
width = 600;
}
);
note = atilde;
unicode = 00E3;
},
{
glyphname = uni1EAF;
lastChange = "2017-11-24 19:45:46 +0000";
layers = (
{
layerId = "6530489A-D9A3-4CD8-A5AD-1BA8F3B39EAA";
paths = (
{
closed = 1;
nodes = (
"414 563 OFFCURVE",
"468 644 OFFCURVE",
"494 712 CURVE",
"419 759 LINE",
"398 731 LINE SMOOTH",
"359 679 OFFCURVE",
"334 664 OFFCURVE",
"292 664 CURVE SMOOTH",
"250 664 OFFCURVE",
"225 679 OFFCURVE",
"186 731 CURVE SMOOTH",
"165 759 LINE",
"90 712 LINE",
"116 644 OFFCURVE",
"170 563 OFFCURVE",
"292 563 CURVE SMOOTH"
);
},
{
closed = 1;
nodes = (
"445 900 LINE",
"331 957 LINE",
"232 763 LINE",
"311 724 LINE"
);
},
{
closed = 1;
nodes = (
"572 0 LINE",
"572 107 LINE",
"515 107 LINE",
"515 333 LINE SMOOTH",
"515 463 OFFCURVE",
"431 528 OFFCURVE",
"290 528 CURVE SMOOTH",
"175 528 OFFCURVE",
"100 485 OFFCURVE",
"66 427 CURVE",
"147 355 LINE",
"175 393 OFFCURVE",
"211 420 OFFCURVE",
"273 420 CURVE SMOOTH",
"341 420 OFFCURVE",
"367 388 OFFCURVE",
"367 327 CURVE SMOOTH",
"367 301 LINE",
"284 301 LINE SMOOTH",
"133 301 OFFCURVE",
"52 250 OFFCURVE",
"52 142 CURVE SMOOTH",
"52 45 OFFCURVE",
"118 -12 OFFCURVE",
"218 -12 CURVE SMOOTH",
"297 -12 OFFCURVE",
"357 24 OFFCURVE",
"375 91 CURVE",
"380 91 LINE",
"386 33 OFFCURVE",
"426 0 OFFCURVE",
"487 0 CURVE SMOOTH"
);
},
{
closed = 1;
nodes = (
"227 85 OFFCURVE",
"197 104 OFFCURVE",
"197 140 CURVE SMOOTH",
"197 160 LINE SMOOTH",
"197 200 OFFCURVE",
"229 221 OFFCURVE",
"288 221 CURVE SMOOTH",
"367 221 LINE",
"367 159 LINE SMOOTH",
"367 111 OFFCURVE",
"326 85 OFFCURVE",
"274 85 CURVE SMOOTH"
);
}
);
width = 600;
}
);
note = uni1EAF;
unicode = 1EAF;
},
{
glyphname = uni1EB7;
lastChange = "2017-11-24 19:45:46 +0000";
layers = (
{
layerId = "6530489A-D9A3-4CD8-A5AD-1BA8F3B39EAA";
paths = (
{
closed = 1;
nodes = (
"351 -203 OFFCURVE",
"373 -176 OFFCURVE",
"373 -141 CURVE SMOOTH",
"373 -115 LINE SMOOTH",
"373 -79 OFFCURVE",
"351 -52 OFFCURVE",
"292 -52 CURVE SMOOTH",
"233 -52 OFFCURVE",
"211 -79 OFFCURVE",
"211 -115 CURVE SMOOTH",
"211 -141 LINE SMOOTH",
"211 -176 OFFCURVE",
"233 -203 OFFCURVE",
"292 -203 CURVE SMOOTH"
);
},
{
closed = 1;
nodes = (
"412 570 OFFCURVE",
"461 668 OFFCURVE",
"486 740 CURVE",
"403 782 LINE",
"382 750 LINE SMOOTH",
"351 702 OFFCURVE",
"331 673 OFFCURVE",
"292 673 CURVE SMOOTH",
"253 673 OFFCURVE",
"233 702 OFFCURVE",
"202 750 CURVE SMOOTH",
"181 782 LINE",
"98 740 LINE",
"123 668 OFFCURVE",
"172 570 OFFCURVE",
"292 570 CURVE SMOOTH"
);
},
{
closed = 1;
nodes = (
"572 0 LINE",
"572 107 LINE",
"515 107 LINE",
"515 333 LINE SMOOTH",
"515 463 OFFCURVE",
"431 528 OFFCURVE",
"290 528 CURVE SMOOTH",
"175 528 OFFCURVE",
"100 485 OFFCURVE",
"66 427 CURVE",
"147 355 LINE",
"175 393 OFFCURVE",
"211 420 OFFCURVE",
"273 420 CURVE SMOOTH",
"341 420 OFFCURVE",
"367 388 OFFCURVE",
"367 327 CURVE SMOOTH",
"367 301 LINE",
"284 301 LINE SMOOTH",
"133 301 OFFCURVE",
"52 250 OFFCURVE",
"52 142 CURVE SMOOTH",
"52 45 OFFCURVE",
"118 -12 OFFCURVE",
"218 -12 CURVE SMOOTH",
"297 -12 OFFCURVE",
"357 24 OFFCURVE",
"375 91 CURVE",
"380 91 LINE",
"386 33 OFFCURVE",
"426 0 OFFCURVE",
"487 0 CURVE SMOOTH"
);
},
{
closed = 1;
nodes = (
"227 85 OFFCURVE",
"197 104 OFFCURVE",
"197 140 CURVE SMOOTH",
"197 160 LINE SMOOTH",
"197 200 OFFCURVE",
"229 221 OFFCURVE",
"288 221 CURVE SMOOTH",
"367 221 LINE",
"367 159 LINE SMOOTH",
"367 111 OFFCURVE",
"326 85 OFFCURVE",
"274 85 CURVE SMOOTH"
);
}
);
width = 600;
}
);
note = uni1EB7;
unicode = 1EB7;
},
{
glyphname = uni1EB1;
lastChange = "2017-11-24 19:45:46 +0000";
layers = (
{
layerId = "6530489A-D9A3-4CD8-A5AD-1BA8F3B39EAA";
paths = (
{
closed = 1;
nodes = (
"414 563 OFFCURVE",
"468 644 OFFCURVE",
"494 712 CURVE",
"419 759 LINE",
"398 731 LINE SMOOTH",
"359 679 OFFCURVE",
"334 664 OFFCURVE",
"292 664 CURVE SMOOTH",
"250 664 OFFCURVE",
"225 679 OFFCURVE",
"186 731 CURVE SMOOTH",
"165 759 LINE",
"90 712 LINE",
"116 644 OFFCURVE",
"170 563 OFFCURVE",
"292 563 CURVE SMOOTH"
);
},
{
closed = 1;
nodes = (
"273 724 LINE",
"352 763 LINE",
"253 957 LINE",
"139 900 LINE"
);
},
{
closed = 1;
nodes = (
"572 0 LINE",
"572 107 LINE",
"515 107 LINE",
"515 333 LINE SMOOTH",
"515 463 OFFCURVE",
"431 528 OFFCURVE",
"290 528 CURVE SMOOTH",
"175 528 OFFCURVE",
"100 485 OFFCURVE",
"66 427 CURVE",
"147 355 LINE",
"175 393 OFFCURVE",
"211 420 OFFCURVE",
"273 420 CURVE SMOOTH",
"341 420 OFFCURVE",
"367 388 OFFCURVE",
"367 327 CURVE SMOOTH",
"367 301 LINE",
"284 301 LINE SMOOTH",
"133 301 OFFCURVE",
"52 250 OFFCURVE",
"52 142 CURVE SMOOTH",
"52 45 OFFCURVE",
"118 -12 OFFCURVE",
"218 -12 CURVE SMOOTH",
"297 -12 OFFCURVE",
"357 24 OFFCURVE",
"375 91 CURVE",
"380 91 LINE",
"386 33 OFFCURVE",
"426 0 OFFCURVE",
"487 0 CURVE SMOOTH"
);
},
{
closed = 1;
nodes = (
"227 85 OFFCURVE",
"197 104 OFFCURVE",
"197 140 CURVE SMOOTH",
"197 160 LINE SMOOTH",
"197 200 OFFCURVE",
"229 221 OFFCURVE",
"288 221 CURVE SMOOTH",
"367 221 LINE",
"367 159 LINE SMOOTH",
"367 111 OFFCURVE",
"326 85 OFFCURVE",
"274 85 CURVE SMOOTH"
);
}
);
width = 600;
}
);
note = uni1EB1;
unicode = 1EB1;
},
{
glyphname = uni1EB3;
lastChange = "2017-11-24 19:45:46 +0000";
layers = (
{
layerId = "6530489A-D9A3-4CD8-A5AD-1BA8F3B39EAA";
paths = (
{
closed = 1;
nodes = (
"414 563 OFFCURVE",
"468 644 OFFCURVE",
"494 712 CURVE",
"419 759 LINE",
"398 731 LINE SMOOTH",
"359 679 OFFCURVE",
"334 664 OFFCURVE",
"292 664 CURVE SMOOTH",
"250 664 OFFCURVE",
"225 679 OFFCURVE",
"186 731 CURVE SMOOTH",
"165 759 LINE",
"90 712 LINE",
"116 644 OFFCURVE",
"170 563 OFFCURVE",
"292 563 CURVE SMOOTH"
);
},
{
closed = 1;
nodes = (
"162 842 LINE",
"284 842 LINE",
"241 743 LINE",
"307 711 LINE",
"334 744 LINE SMOOTH",
"367 785 OFFCURVE",
"396 831 OFFCURVE",
"396 871 CURVE SMOOTH",
"396 909 OFFCURVE",
"373 943 OFFCURVE",
"298 943 CURVE SMOOTH",
"162 943 LINE"
);
},
{
closed = 1;
nodes = (
"572 0 LINE",
"572 107 LINE",
"515 107 LINE",
"515 333 LINE SMOOTH",
"515 463 OFFCURVE",
"431 528 OFFCURVE",
"290 528 CURVE SMOOTH",
"175 528 OFFCURVE",
"100 485 OFFCURVE",
"66 427 CURVE",
"147 355 LINE",
"175 393 OFFCURVE",
"211 420 OFFCURVE",
"273 420 CURVE SMOOTH",
"341 420 OFFCURVE",
"367 388 OFFCURVE",
"367 327 CURVE SMOOTH",
"367 301 LINE",
"284 301 LINE SMOOTH",
"133 301 OFFCURVE",
"52 250 OFFCURVE",
"52 142 CURVE SMOOTH",
"52 45 OFFCURVE",
"118 -12 OFFCURVE",
"218 -12 CURVE SMOOTH",
"297 -12 OFFCURVE",
"357 24 OFFCURVE",
"375 91 CURVE",
"380 91 LINE",
"386 33 OFFCURVE",
"426 0 OFFCURVE",
"487 0 CURVE SMOOTH"
);
},
{
closed = 1;
nodes = (
"227 85 OFFCURVE",
"197 104 OFFCURVE",
"197 140 CURVE SMOOTH",
"197 160 LINE SMOOTH",
"197 200 OFFCURVE",
"229 221 OFFCURVE",
"288 221 CURVE SMOOTH",
"367 221 LINE",
"367 159 LINE SMOOTH",
"367 111 OFFCURVE",
"326 85 OFFCURVE",
"274 85 CURVE SMOOTH"
);
}
);
width = 600;
}
);
note = uni1EB3;
unicode = 1EB3;
},
{
glyphname = uni1EB5;
lastChange = "2017-11-24 19:45:46 +0000";
layers = (
{
layerId = "6530489A-D9A3-4CD8-A5AD-1BA8F3B39EAA";
paths = (
{
closed = 1;
nodes = (
"414 563 OFFCURVE",
"468 644 OFFCURVE",
"494 712 CURVE",
"419 759 LINE",
"398 731 LINE SMOOTH",
"359 679 OFFCURVE",
"334 664 OFFCURVE",
"292 664 CURVE SMOOTH",
"250 664 OFFCURVE",
"225 679 OFFCURVE",
"186 731 CURVE SMOOTH",
"165 759 LINE",
"90 712 LINE",
"116 644 OFFCURVE",
"170 563 OFFCURVE",
"292 563 CURVE SMOOTH"
);
},
{
closed = 1;
nodes = (
"420 778 OFFCURVE",
"457 806 OFFCURVE",
"481 842 CURVE",
"431 906 LINE",
"410 889 OFFCURVE",
"395 881 OFFCURVE",
"372 881 CURVE SMOOTH",
"346 881 OFFCURVE",
"323 891 OFFCURVE",
"294 903 CURVE SMOOTH",
"269 914 OFFCURVE",
"247 923 OFFCURVE",
"217 923 CURVE SMOOTH",
"164 923 OFFCURVE",
"127 895 OFFCURVE",
"103 859 CURVE",
"153 795 LINE",
"174 812 OFFCURVE",
"189 820 OFFCURVE",
"212 820 CURVE SMOOTH",
"238 820 OFFCURVE",
"261 810 OFFCURVE",
"290 798 CURVE SMOOTH",
"315 787 OFFCURVE",
"337 778 OFFCURVE",
"367 778 CURVE SMOOTH"
);
},
{
closed = 1;
nodes = (
"572 0 LINE",
"572 107 LINE",
"515 107 LINE",
"515 333 LINE SMOOTH",
"515 463 OFFCURVE",
"431 528 OFFCURVE",
"290 528 CURVE SMOOTH",
"175 528 OFFCURVE",
"100 485 OFFCURVE",
"66 427 CURVE",
"147 355 LINE",
"175 393 OFFCURVE",
"211 420 OFFCURVE",
"273 420 CURVE SMOOTH",
"341 420 OFFCURVE",
"367 388 OFFCURVE",
"367 327 CURVE SMOOTH",
"367 301 LINE",
"284 301 LINE SMOOTH",
"133 301 OFFCURVE",
"52 250 OFFCURVE",
"52 142 CURVE SMOOTH",
"52 45 OFFCURVE",
"118 -12 OFFCURVE",
"218 -12 CURVE SMOOTH",
"297 -12 OFFCURVE",
"357 24 OFFCURVE",
"375 91 CURVE",
"380 91 LINE",
"386 33 OFFCURVE",
"426 0 OFFCURVE",
"487 0 CURVE SMOOTH"
);
},
{
closed = 1;
nodes = (
"227 85 OFFCURVE",
"197 104 OFFCURVE",
"197 140 CURVE SMOOTH",
"197 160 LINE SMOOTH",
"197 200 OFFCURVE",
"229 221 OFFCURVE",
"288 221 CURVE SMOOTH",
"367 221 LINE",
"367 159 LINE SMOOTH",
"367 111 OFFCURVE",
"326 85 OFFCURVE",
"274 85 CURVE SMOOTH"
);
}
);
width = 600;
}
);
note = uni1EB5;
unicode = 1EB5;
},
{
glyphname = uni1EA5;
lastChange = "2017-11-24 19:45:46 +0000";
layers = (
{
layerId = "6530489A-D9A3-4CD8-A5AD-1BA8F3B39EAA";
paths = (
{
closed = 1;
nodes = (
"599 900 LINE",
"485 957 LINE",
"386 763 LINE",
"465 724 LINE"
);
},
{
closed = 1;
nodes = (
"245 772 LINE",
"100 625 LINE",
"166 561 LINE",
"290 665 LINE",
"414 561 LINE",
"484 625 LINE",
"339 772 LINE"
);
},
{
closed = 1;
nodes = (
"572 0 LINE",
"572 107 LINE",
"515 107 LINE",
"515 333 LINE SMOOTH",
"515 463 OFFCURVE",
"431 528 OFFCURVE",
"290 528 CURVE SMOOTH",
"175 528 OFFCURVE",
"100 485 OFFCURVE",
"66 427 CURVE",
"147 355 LINE",
"175 393 OFFCURVE",
"211 420 OFFCURVE",
"273 420 CURVE SMOOTH",
"341 420 OFFCURVE",
"367 388 OFFCURVE",
"367 327 CURVE SMOOTH",
"367 301 LINE",
"284 301 LINE SMOOTH",
"133 301 OFFCURVE",
"52 250 OFFCURVE",
"52 142 CURVE SMOOTH",
"52 45 OFFCURVE",
"118 -12 OFFCURVE",
"218 -12 CURVE SMOOTH",
"297 -12 OFFCURVE",
"357 24 OFFCURVE",
"375 91 CURVE",
"380 91 LINE",
"386 33 OFFCURVE",
"426 0 OFFCURVE",
"487 0 CURVE SMOOTH"
);
},
{
closed = 1;
nodes = (
"227 85 OFFCURVE",
"197 104 OFFCURVE",
"197 140 CURVE SMOOTH",
"197 160 LINE SMOOTH",
"197 200 OFFCURVE",
"229 221 OFFCURVE",
"288 221 CURVE SMOOTH",
"367 221 LINE",
"367 159 LINE SMOOTH",
"367 111 OFFCURVE",
"326 85 OFFCURVE",
"274 85 CURVE SMOOTH"
);
}
);
width = 600;
}
);
note = uni1EA5;
unicode = 1EA5;
},
{
glyphname = uni1EAD;
lastChange = "2017-11-24 19:45:46 +0000";
layers = (
{
layerId = "6530489A-D9A3-4CD8-A5AD-1BA8F3B39EAA";
paths = (
{
closed = 1;
nodes = (
"351 -203 OFFCURVE",
"373 -176 OFFCURVE",
"373 -141 CURVE SMOOTH",
"373 -115 LINE SMOOTH",
"373 -79 OFFCURVE",
"351 -52 OFFCURVE",
"292 -52 CURVE SMOOTH",
"233 -52 OFFCURVE",
"211 -79 OFFCURVE",
"211 -115 CURVE SMOOTH",
"211 -141 LINE SMOOTH",
"211 -176 OFFCURVE",
"233 -203 OFFCURVE",
"292 -203 CURVE SMOOTH"
);
},
{
closed = 1;
nodes = (
"230 786 LINE",
"98 627 LINE",
"169 569 LINE",
"290 684 LINE",
"411 569 LINE",
"486 627 LINE",
"354 786 LINE"
);
},
{
closed = 1;
nodes = (
"572 0 LINE",
"572 107 LINE",
"515 107 LINE",
"515 333 LINE SMOOTH",
"515 463 OFFCURVE",
"431 528 OFFCURVE",
"290 528 CURVE SMOOTH",
"175 528 OFFCURVE",
"100 485 OFFCURVE",
"66 427 CURVE",
"147 355 LINE",
"175 393 OFFCURVE",
"211 420 OFFCURVE",
"273 420 CURVE SMOOTH",
"341 420 OFFCURVE",
"367 388 OFFCURVE",
"367 327 CURVE SMOOTH",
"367 301 LINE",
"284 301 LINE SMOOTH",
"133 301 OFFCURVE",
"52 250 OFFCURVE",
"52 142 CURVE SMOOTH",
"52 45 OFFCURVE",
"118 -12 OFFCURVE",
"218 -12 CURVE SMOOTH",
"297 -12 OFFCURVE",
"357 24 OFFCURVE",
"375 91 CURVE",
"380 91 LINE",
"386 33 OFFCURVE",
"426 0 OFFCURVE",
"487 0 CURVE SMOOTH"
);
},
{
closed = 1;
nodes = (
"227 85 OFFCURVE",
"197 104 OFFCURVE",
"197 140 CURVE SMOOTH",
"197 160 LINE SMOOTH",
"197 200 OFFCURVE",
"229 221 OFFCURVE",
"288 221 CURVE SMOOTH",
"367 221 LINE",
"367 159 LINE SMOOTH",
"367 111 OFFCURVE",
"326 85 OFFCURVE",
"274 85 CURVE SMOOTH"
);
}
);
width = 600;
}
);
note = uni1EAD;
unicode = 1EAD;
},
{
glyphname = uni1EA7;
lastChange = "2017-11-24 19:45:46 +0000";
layers = (
{
layerId = "6530489A-D9A3-4CD8-A5AD-1BA8F3B39EAA";
paths = (
{
closed = 1;
nodes = (
"119 724 LINE",
"198 763 LINE",
"99 957 LINE",
"-15 900 LINE"
);
},
{
closed = 1;
nodes = (
"245 772 LINE",
"100 625 LINE",
"166 561 LINE",
"290 665 LINE",
"414 561 LINE",
"484 625 LINE",
"339 772 LINE"
);
},
{
closed = 1;
nodes = (
"572 0 LINE",
"572 107 LINE",
"515 107 LINE",
"515 333 LINE SMOOTH",
"515 463 OFFCURVE",
"431 528 OFFCURVE",
"290 528 CURVE SMOOTH",
"175 528 OFFCURVE",
"100 485 OFFCURVE",
"66 427 CURVE",
"147 355 LINE",
"175 393 OFFCURVE",
"211 420 OFFCURVE",
"273 420 CURVE SMOOTH",
"341 420 OFFCURVE",
"367 388 OFFCURVE",
"367 327 CURVE SMOOTH",
"367 301 LINE",
"284 301 LINE SMOOTH",
"133 301 OFFCURVE",
"52 250 OFFCURVE",
"52 142 CURVE SMOOTH",
"52 45 OFFCURVE",
"118 -12 OFFCURVE",
"218 -12 CURVE SMOOTH",
"297 -12 OFFCURVE",
"357 24 OFFCURVE",
"375 91 CURVE",
"380 91 LINE",
"386 33 OFFCURVE",
"426 0 OFFCURVE",
"487 0 CURVE SMOOTH"
);
},
{
closed = 1;
nodes = (
"227 85 OFFCURVE",
"197 104 OFFCURVE",
"197 140 CURVE SMOOTH",
"197 160 LINE SMOOTH",
"197 200 OFFCURVE",
"229 221 OFFCURVE",
"288 221 CURVE SMOOTH",
"367 221 LINE",
"367 159 LINE SMOOTH",
"367 111 OFFCURVE",
"326 85 OFFCURVE",
"274 85 CURVE SMOOTH"
);
}
);
width = 600;
}
);
note = uni1EA7;
unicode = 1EA7;
},
{
glyphname = uni1EA9;
lastChange = "2017-11-24 19:45:46 +0000";
layers = (
{
layerId = "6530489A-D9A3-4CD8-A5AD-1BA8F3B39EAA";
paths = (
{
closed = 1;
nodes = (
"330 842 LINE",
"449 842 LINE",
"406 745 LINE",
"472 711 LINE",
"499 744 LINE SMOOTH",
"532 784 OFFCURVE",
"562 831 OFFCURVE",
"562 871 CURVE SMOOTH",
"562 909 OFFCURVE",
"538 943 OFFCURVE",
"464 943 CURVE SMOOTH",
"330 943 LINE"
);
},
{
closed = 1;
nodes = (
"245 772 LINE",
"100 625 LINE",
"166 561 LINE",
"290 665 LINE",
"414 561 LINE",
"484 625 LINE",
"339 772 LINE"
);
},
{
closed = 1;
nodes = (
"572 0 LINE",
"572 107 LINE",
"515 107 LINE",
"515 333 LINE SMOOTH",
"515 463 OFFCURVE",
"431 528 OFFCURVE",
"290 528 CURVE SMOOTH",
"175 528 OFFCURVE",
"100 485 OFFCURVE",
"66 427 CURVE",
"147 355 LINE",
"175 393 OFFCURVE",
"211 420 OFFCURVE",
"273 420 CURVE SMOOTH",
"341 420 OFFCURVE",
"367 388 OFFCURVE",
"367 327 CURVE SMOOTH",
"367 301 LINE",
"284 301 LINE SMOOTH",
"133 301 OFFCURVE",
"52 250 OFFCURVE",
"52 142 CURVE SMOOTH",
"52 45 OFFCURVE",
"118 -12 OFFCURVE",
"218 -12 CURVE SMOOTH",
"297 -12 OFFCURVE",
"357 24 OFFCURVE",
"375 91 CURVE",
"380 91 LINE",
"386 33 OFFCURVE",
"426 0 OFFCURVE",
"487 0 CURVE SMOOTH"
);
},
{
closed = 1;
nodes = (
"227 85 OFFCURVE",
"197 104 OFFCURVE",
"197 140 CURVE SMOOTH",
"197 160 LINE SMOOTH",
"197 200 OFFCURVE",
"229 221 OFFCURVE",
"288 221 CURVE SMOOTH",
"367 221 LINE",
"367 159 LINE SMOOTH",
"367 111 OFFCURVE",
"326 85 OFFCURVE",
"274 85 CURVE SMOOTH"
);
}
);
width = 600;
}
);
note = uni1EA9;
unicode = 1EA9;
},
{
glyphname = uni1EAB;
lastChange = "2017-11-24 19:45:46 +0000";
layers = (
{
layerId = "6530489A-D9A3-4CD8-A5AD-1BA8F3B39EAA";
paths = (
{
closed = 1;
nodes = (
"164 933 OFFCURVE",
"127 905 OFFCURVE",
"103 869 CURVE",
"153 805 LINE",
"174 822 OFFCURVE",
"189 830 OFFCURVE",
"212 830 CURVE SMOOTH",
"238 830 OFFCURVE",
"261 820 OFFCURVE",
"290 808 CURVE SMOOTH",
"315 797 OFFCURVE",
"337 788 OFFCURVE",
"367 788 CURVE SMOOTH",
"420 788 OFFCURVE",
"457 816 OFFCURVE",
"481 852 CURVE",
"431 916 LINE",
"410 899 OFFCURVE",
"395 891 OFFCURVE",
"372 891 CURVE SMOOTH",
"346 891 OFFCURVE",
"323 901 OFFCURVE",
"294 913 CURVE SMOOTH",
"269 924 OFFCURVE",
"247 933 OFFCURVE",
"217 933 CURVE SMOOTH"
);
},
{
closed = 1;
nodes = (
"244 759 LINE",
"102 625 LINE",
"167 561 LINE",
"291 656 LINE",
"415 561 LINE",
"482 625 LINE",
"340 759 LINE"
);
},
{
closed = 1;
nodes = (
"572 0 LINE",
"572 107 LINE",
"515 107 LINE",
"515 333 LINE SMOOTH",
"515 463 OFFCURVE",
"431 528 OFFCURVE",
"290 528 CURVE SMOOTH",
"175 528 OFFCURVE",
"100 485 OFFCURVE",
"66 427 CURVE",
"147 355 LINE",
"175 393 OFFCURVE",
"211 420 OFFCURVE",
"273 420 CURVE SMOOTH",
"341 420 OFFCURVE",
"367 388 OFFCURVE",
"367 327 CURVE SMOOTH",
"367 301 LINE",
"284 301 LINE SMOOTH",
"133 301 OFFCURVE",
"52 250 OFFCURVE",
"52 142 CURVE SMOOTH",
"52 45 OFFCURVE",
"118 -12 OFFCURVE",
"218 -12 CURVE SMOOTH",
"297 -12 OFFCURVE",
"357 24 OFFCURVE",
"375 91 CURVE",
"380 91 LINE",
"386 33 OFFCURVE",
"426 0 OFFCURVE",
"487 0 CURVE SMOOTH"
);
},
{
closed = 1;
nodes = (
"227 85 OFFCURVE",
"197 104 OFFCURVE",
"197 140 CURVE SMOOTH",
"197 160 LINE SMOOTH",
"197 200 OFFCURVE",
"229 221 OFFCURVE",
"288 221 CURVE SMOOTH",
"367 221 LINE",
"367 159 LINE SMOOTH",
"367 111 OFFCURVE",
"326 85 OFFCURVE",
"274 85 CURVE SMOOTH"
);
}
);
width = 600;
}
);
note = uni1EAB;
unicode = 1EAB;
},
{
glyphname = aacute.alt01;
lastChange = "2017-11-24 19:45:46 +0000";
layers = (
{
layerId = "6530489A-D9A3-4CD8-A5AD-1BA8F3B39EAA";
paths = (
{
closed = 1;
nodes = (
"441 746 LINE",
"318 807 LINE",
"219 613 LINE",
"307 570 LINE"
);
},
{
closed = 1;
nodes = (
"393 0 LINE",
"541 0 LINE",
"541 516 LINE",
"393 516 LINE",
"393 422 LINE",
"386 422 LINE",
"360 484 OFFCURVE",
"316 528 OFFCURVE",
"233 528 CURVE SMOOTH",
"119 528 OFFCURVE",
"39 445 OFFCURVE",
"39 258 CURVE SMOOTH",
"39 71 OFFCURVE",
"119 -12 OFFCURVE",
"233 -12 CURVE SMOOTH",
"316 -12 OFFCURVE",
"360 32 OFFCURVE",
"386 94 CURVE",
"393 94 LINE"
);
},
{
closed = 1;
nodes = (
"231 103 OFFCURVE",
"193 146 OFFCURVE",
"193 218 CURVE SMOOTH",
"193 298 LINE SMOOTH",
"193 370 OFFCURVE",
"231 413 OFFCURVE",
"297 413 CURVE SMOOTH",
"349 413 OFFCURVE",
"393 388 OFFCURVE",
"393 334 CURVE SMOOTH",
"393 182 LINE SMOOTH",
"393 128 OFFCURVE",
"349 103 OFFCURVE",
"297 103 CURVE SMOOTH"
);
}
);
width = 600;
}
);
note = aacute.alt01;
},
{
glyphname = abreve.alt01;
lastChange = "2017-11-24 19:45:46 +0000";
layers = (
{
layerId = "6530489A-D9A3-4CD8-A5AD-1BA8F3B39EAA";
paths = (
{
closed = 1;
nodes = (
"411 570 OFFCURVE",
"460 668 OFFCURVE",
"485 740 CURVE",
"402 782 LINE",
"381 750 LINE SMOOTH",
"350 702 OFFCURVE",
"330 673 OFFCURVE",
"291 673 CURVE SMOOTH",
"252 673 OFFCURVE",
"232 702 OFFCURVE",
"201 750 CURVE SMOOTH",
"180 782 LINE",
"97 740 LINE",
"122 668 OFFCURVE",
"171 570 OFFCURVE",
"291 570 CURVE SMOOTH"
);
},
{
closed = 1;
nodes = (
"393 0 LINE",
"541 0 LINE",
"541 516 LINE",
"393 516 LINE",
"393 422 LINE",
"386 422 LINE",
"360 484 OFFCURVE",
"316 528 OFFCURVE",
"233 528 CURVE SMOOTH",
"119 528 OFFCURVE",
"39 445 OFFCURVE",
"39 258 CURVE SMOOTH",
"39 71 OFFCURVE",
"119 -12 OFFCURVE",
"233 -12 CURVE SMOOTH",
"316 -12 OFFCURVE",
"360 32 OFFCURVE",
"386 94 CURVE",
"393 94 LINE"
);
},
{
closed = 1;
nodes = (
"231 103 OFFCURVE",
"193 146 OFFCURVE",
"193 218 CURVE SMOOTH",
"193 298 LINE SMOOTH",
"193 370 OFFCURVE",
"231 413 OFFCURVE",
"297 413 CURVE SMOOTH",
"349 413 OFFCURVE",
"393 388 OFFCURVE",
"393 334 CURVE SMOOTH",
"393 182 LINE SMOOTH",
"393 128 OFFCURVE",
"349 103 OFFCURVE",
"297 103 CURVE SMOOTH"
);
}
);
width = 600;
}
);
note = abreve.alt01;
},
{
glyphname = acircumflex.alt01;
lastChange = "2017-11-24 19:45:46 +0000";
layers = (
{
layerId = "6530489A-D9A3-4CD8-A5AD-1BA8F3B39EAA";
paths = (
{
closed = 1;
nodes = (
"229 786 LINE",
"97 627 LINE",
"168 569 LINE",
"289 684 LINE",
"410 569 LINE",
"485 627 LINE",
"353 786 LINE"
);
},
{
closed = 1;
nodes = (
"393 0 LINE",
"541 0 LINE",
"541 516 LINE",
"393 516 LINE",
"393 422 LINE",
"386 422 LINE",
"360 484 OFFCURVE",
"316 528 OFFCURVE",
"233 528 CURVE SMOOTH",
"119 528 OFFCURVE",
"39 445 OFFCURVE",
"39 258 CURVE SMOOTH",
"39 71 OFFCURVE",
"119 -12 OFFCURVE",
"233 -12 CURVE SMOOTH",
"316 -12 OFFCURVE",
"360 32 OFFCURVE",
"386 94 CURVE",
"393 94 LINE"
);
},
{
closed = 1;
nodes = (
"231 103 OFFCURVE",
"193 146 OFFCURVE",
"193 218 CURVE SMOOTH",
"193 298 LINE SMOOTH",
"193 370 OFFCURVE",
"231 413 OFFCURVE",
"297 413 CURVE SMOOTH",
"349 413 OFFCURVE",
"393 388 OFFCURVE",
"393 334 CURVE SMOOTH",
"393 182 LINE SMOOTH",
"393 128 OFFCURVE",
"349 103 OFFCURVE",
"297 103 CURVE SMOOTH"
);
}
);
width = 600;
}
);
note = acircumflex.alt01;
},
{
glyphname = adieresis.alt01;
lastChange = "2017-11-24 19:45:46 +0000";
layers = (
{
layerId = "6530489A-D9A3-4CD8-A5AD-1BA8F3B39EAA";
paths = (
{
closed = 1;
nodes = (
"241 591 OFFCURVE",
"262 619 OFFCURVE",
"262 654 CURVE SMOOTH",
"262 680 LINE SMOOTH",
"262 715 OFFCURVE",
"241 742 OFFCURVE",
"181 742 CURVE SMOOTH",
"122 742 OFFCURVE",
"101 715 OFFCURVE",
"101 680 CURVE SMOOTH",
"101 654 LINE SMOOTH",
"101 619 OFFCURVE",
"122 591 OFFCURVE",
"181 591 CURVE SMOOTH"
);
},
{
closed = 1;
nodes = (
"460 591 OFFCURVE",
"481 619 OFFCURVE",
"481 654 CURVE SMOOTH",
"481 680 LINE SMOOTH",
"481 715 OFFCURVE",
"460 742 OFFCURVE",
"401 742 CURVE SMOOTH",
"341 742 OFFCURVE",
"320 715 OFFCURVE",
"320 680 CURVE SMOOTH",
"320 654 LINE SMOOTH",
"320 619 OFFCURVE",
"341 591 OFFCURVE",
"401 591 CURVE SMOOTH"
);
},
{
closed = 1;
nodes = (
"393 0 LINE",
"541 0 LINE",
"541 516 LINE",
"393 516 LINE",
"393 422 LINE",
"386 422 LINE",
"360 484 OFFCURVE",
"316 528 OFFCURVE",
"233 528 CURVE SMOOTH",
"119 528 OFFCURVE",
"39 445 OFFCURVE",
"39 258 CURVE SMOOTH",
"39 71 OFFCURVE",
"119 -12 OFFCURVE",
"233 -12 CURVE SMOOTH",
"316 -12 OFFCURVE",
"360 32 OFFCURVE",
"386 94 CURVE",
"393 94 LINE"
);
},
{
closed = 1;
nodes = (
"231 103 OFFCURVE",
"193 146 OFFCURVE",
"193 218 CURVE SMOOTH",
"193 298 LINE SMOOTH",
"193 370 OFFCURVE",
"231 413 OFFCURVE",
"297 413 CURVE SMOOTH",
"349 413 OFFCURVE",
"393 388 OFFCURVE",
"393 334 CURVE SMOOTH",
"393 182 LINE SMOOTH",
"393 128 OFFCURVE",
"349 103 OFFCURVE",
"297 103 CURVE SMOOTH"
);
}
);
width = 600;
}
);
note = adieresis.alt01;
},
{
glyphname = uni1EA1.alt01;
lastChange = "2017-11-24 19:45:46 +0000";
layers = (
{
layerId = "6530489A-D9A3-4CD8-A5AD-1BA8F3B39EAA";
paths = (
{
closed = 1;
nodes = (
"350 -203 OFFCURVE",
"372 -176 OFFCURVE",
"372 -141 CURVE SMOOTH",
"372 -115 LINE SMOOTH",
"372 -79 OFFCURVE",
"350 -52 OFFCURVE",
"291 -52 CURVE SMOOTH",
"232 -52 OFFCURVE",
"210 -79 OFFCURVE",
"210 -115 CURVE SMOOTH",
"210 -141 LINE SMOOTH",
"210 -176 OFFCURVE",
"232 -203 OFFCURVE",
"291 -203 CURVE SMOOTH"
);
},
{
closed = 1;
nodes = (
"393 0 LINE",
"541 0 LINE",
"541 516 LINE",
"393 516 LINE",
"393 422 LINE",
"386 422 LINE",
"360 484 OFFCURVE",
"316 528 OFFCURVE",
"233 528 CURVE SMOOTH",
"119 528 OFFCURVE",
"39 445 OFFCURVE",
"39 258 CURVE SMOOTH",
"39 71 OFFCURVE",
"119 -12 OFFCURVE",
"233 -12 CURVE SMOOTH",
"316 -12 OFFCURVE",
"360 32 OFFCURVE",
"386 94 CURVE",
"393 94 LINE"
);
},
{
closed = 1;
nodes = (
"231 103 OFFCURVE",
"193 146 OFFCURVE",
"193 218 CURVE SMOOTH",
"193 298 LINE SMOOTH",
"193 370 OFFCURVE",
"231 413 OFFCURVE",
"297 413 CURVE SMOOTH",
"349 413 OFFCURVE",
"393 388 OFFCURVE",
"393 334 CURVE SMOOTH",
"393 182 LINE SMOOTH",
"393 128 OFFCURVE",
"349 103 OFFCURVE",
"297 103 CURVE SMOOTH"
);
}
);
width = 600;
}
);
note = uni1EA1.alt01;
},
{
glyphname = agrave.alt01;
lastChange = "2017-11-24 19:45:46 +0000";
layers = (
{
layerId = "6530489A-D9A3-4CD8-A5AD-1BA8F3B39EAA";
paths = (
{
closed = 1;
nodes = (
"275 570 LINE",
"363 613 LINE",
"264 807 LINE",
"141 746 LINE"
);
},
{
closed = 1;
nodes = (
"393 0 LINE",
"541 0 LINE",
"541 516 LINE",
"393 516 LINE",
"393 422 LINE",
"386 422 LINE",
"360 484 OFFCURVE",
"316 528 OFFCURVE",
"233 528 CURVE SMOOTH",
"119 528 OFFCURVE",
"39 445 OFFCURVE",
"39 258 CURVE SMOOTH",
"39 71 OFFCURVE",
"119 -12 OFFCURVE",
"233 -12 CURVE SMOOTH",
"316 -12 OFFCURVE",
"360 32 OFFCURVE",
"386 94 CURVE",
"393 94 LINE"
);
},
{
closed = 1;
nodes = (
"231 103 OFFCURVE",
"193 146 OFFCURVE",
"193 218 CURVE SMOOTH",
"193 298 LINE SMOOTH",
"193 370 OFFCURVE",
"231 413 OFFCURVE",
"297 413 CURVE SMOOTH",
"349 413 OFFCURVE",
"393 388 OFFCURVE",
"393 334 CURVE SMOOTH",
"393 182 LINE SMOOTH",
"393 128 OFFCURVE",
"349 103 OFFCURVE",
"297 103 CURVE SMOOTH"
);
}
);
width = 600;
}
);
note = agrave.alt01;
},
{
glyphname = uni1EA3.alt01;
lastChange = "2017-11-24 19:45:46 +0000";
layers = (
{
layerId = "6530489A-D9A3-4CD8-A5AD-1BA8F3B39EAA";
paths = (
{
closed = 1;
nodes = (
"171 687 LINE",
"293 687 LINE",
"252 595 LINE",
"327 560 LINE",
"355 594 LINE SMOOTH",
"388 634 OFFCURVE",
"412 681 OFFCURVE",
"412 720 CURVE SMOOTH",
"412 759 OFFCURVE",
"389 793 OFFCURVE",
"314 793 CURVE SMOOTH",
"171 793 LINE"
);
},
{
closed = 1;
nodes = (
"393 0 LINE",
"541 0 LINE",
"541 516 LINE",
"393 516 LINE",
"393 422 LINE",
"386 422 LINE",
"360 484 OFFCURVE",
"316 528 OFFCURVE",
"233 528 CURVE SMOOTH",
"119 528 OFFCURVE",
"39 445 OFFCURVE",
"39 258 CURVE SMOOTH",
"39 71 OFFCURVE",
"119 -12 OFFCURVE",
"233 -12 CURVE SMOOTH",
"316 -12 OFFCURVE",
"360 32 OFFCURVE",
"386 94 CURVE",
"393 94 LINE"
);
},
{
closed = 1;
nodes = (
"231 103 OFFCURVE",
"193 146 OFFCURVE",
"193 218 CURVE SMOOTH",
"193 298 LINE SMOOTH",
"193 370 OFFCURVE",
"231 413 OFFCURVE",
"297 413 CURVE SMOOTH",
"349 413 OFFCURVE",
"393 388 OFFCURVE",
"393 334 CURVE SMOOTH",
"393 182 LINE SMOOTH",
"393 128 OFFCURVE",
"349 103 OFFCURVE",
"297 103 CURVE SMOOTH"
);
}
);
width = 600;
}
);
note = uni1EA3.alt01;
},
{
glyphname = amacron.alt01;
lastChange = "2017-11-24 19:45:46 +0000";
layers = (
{
layerId = "6530489A-D9A3-4CD8-A5AD-1BA8F3B39EAA";
paths = (
{
closed = 1;
nodes = (
"138 615 LINE",
"444 615 LINE",
"444 718 LINE",
"138 718 LINE"
);
},
{
closed = 1;
nodes = (
"393 0 LINE",
"541 0 LINE",
"541 516 LINE",
"393 516 LINE",
"393 422 LINE",
"386 422 LINE",
"360 484 OFFCURVE",
"316 528 OFFCURVE",
"233 528 CURVE SMOOTH",
"119 528 OFFCURVE",
"39 445 OFFCURVE",
"39 258 CURVE SMOOTH",
"39 71 OFFCURVE",
"119 -12 OFFCURVE",
"233 -12 CURVE SMOOTH",
"316 -12 OFFCURVE",
"360 32 OFFCURVE",
"386 94 CURVE",
"393 94 LINE"
);
},
{
closed = 1;
nodes = (
"231 103 OFFCURVE",
"193 146 OFFCURVE",
"193 218 CURVE SMOOTH",
"193 298 LINE SMOOTH",
"193 370 OFFCURVE",
"231 413 OFFCURVE",
"297 413 CURVE SMOOTH",
"349 413 OFFCURVE",
"393 388 OFFCURVE",
"393 334 CURVE SMOOTH",
"393 182 LINE SMOOTH",
"393 128 OFFCURVE",
"349 103 OFFCURVE",
"297 103 CURVE SMOOTH"
);
}
);
width = 600;
}
);
note = amacron.alt01;
},
{
glyphname = aogonek.alt01;
lastChange = "2017-11-24 19:45:46 +0000";
layers = (
{
layerId = "6530489A-D9A3-4CD8-A5AD-1BA8F3B39EAA";
paths = (
{
closed = 1;
nodes = (
"514 -212 OFFCURVE",
"556 -193 OFFCURVE",
"573 -161 CURVE",
"520 -110 LINE",
"506 -126 OFFCURVE",
"489 -138 OFFCURVE",
"465 -138 CURVE SMOOTH",
"445 -138 OFFCURVE",
"427 -130 OFFCURVE",
"427 -105 CURVE SMOOTH",
"427 -81 OFFCURVE",
"443 -60 OFFCURVE",
"541 0 CURVE",
"541 516 LINE",
"393 516 LINE",
"393 422 LINE",
"386 422 LINE",
"360 484 OFFCURVE",
"316 528 OFFCURVE",
"233 528 CURVE SMOOTH",
"119 528 OFFCURVE",
"39 445 OFFCURVE",
"39 258 CURVE SMOOTH",
"39 71 OFFCURVE",
"119 -12 OFFCURVE",
"233 -12 CURVE SMOOTH",
"316 -12 OFFCURVE",
"360 32 OFFCURVE",
"386 94 CURVE",
"393 94 LINE",
"393 0 LINE",
"445 0 LINE",
"446 -4 LINE",
"372 -38 OFFCURVE",
"327 -71 OFFCURVE",
"327 -127 CURVE SMOOTH",
"327 -191 OFFCURVE",
"385 -212 OFFCURVE",
"451 -212 CURVE SMOOTH"
);
},
{
closed = 1;
nodes = (
"231 103 OFFCURVE",
"193 146 OFFCURVE",
"193 218 CURVE SMOOTH",
"193 298 LINE SMOOTH",
"193 370 OFFCURVE",
"231 413 OFFCURVE",
"297 413 CURVE SMOOTH",
"349 413 OFFCURVE",
"393 388 OFFCURVE",
"393 334 CURVE SMOOTH",
"393 182 LINE SMOOTH",
"393 128 OFFCURVE",
"349 103 OFFCURVE",
"297 103 CURVE SMOOTH"
);
}
);
width = 600;
}
);
note = aogonek.alt01;
},
{
glyphname = aring.alt01;
lastChange = "2017-11-24 19:45:46 +0000";
layers = (
{
layerId = "6530489A-D9A3-4CD8-A5AD-1BA8F3B39EAA";
paths = (
{
closed = 1;
nodes = (
"374 549 OFFCURVE",
"439 610 OFFCURVE",
"439 692 CURVE SMOOTH",
"439 775 OFFCURVE",
"374 835 OFFCURVE",
"291 835 CURVE SMOOTH",
"208 835 OFFCURVE",
"143 774 OFFCURVE",
"143 692 CURVE SMOOTH",
"143 609 OFFCURVE",
"208 549 OFFCURVE",
"291 549 CURVE SMOOTH"
);
},
{
closed = 1;
nodes = (
"258 624 OFFCURVE",
"240 643 OFFCURVE",
"240 675 CURVE SMOOTH",
"240 709 LINE SMOOTH",
"240 740 OFFCURVE",
"258 760 OFFCURVE",
"291 760 CURVE SMOOTH",
"324 760 OFFCURVE",
"342 741 OFFCURVE",
"342 709 CURVE SMOOTH",
"342 675 LINE SMOOTH",
"342 644 OFFCURVE",
"324 624 OFFCURVE",
"291 624 CURVE SMOOTH"
);
},
{
closed = 1;
nodes = (
"393 0 LINE",
"541 0 LINE",
"541 516 LINE",
"393 516 LINE",
"393 422 LINE",
"386 422 LINE",
"360 484 OFFCURVE",
"316 528 OFFCURVE",
"233 528 CURVE SMOOTH",
"119 528 OFFCURVE",
"39 445 OFFCURVE",
"39 258 CURVE SMOOTH",
"39 71 OFFCURVE",
"119 -12 OFFCURVE",
"233 -12 CURVE SMOOTH",
"316 -12 OFFCURVE",
"360 32 OFFCURVE",
"386 94 CURVE",
"393 94 LINE"
);
},
{
closed = 1;
nodes = (
"231 103 OFFCURVE",
"193 146 OFFCURVE",
"193 218 CURVE SMOOTH",
"193 298 LINE SMOOTH",
"193 370 OFFCURVE",
"231 413 OFFCURVE",
"297 413 CURVE SMOOTH",
"349 413 OFFCURVE",
"393 388 OFFCURVE",
"393 334 CURVE SMOOTH",
"393 182 LINE SMOOTH",
"393 128 OFFCURVE",
"349 103 OFFCURVE",
"297 103 CURVE SMOOTH"
);
}
);
width = 600;
}
);
note = aring.alt01;
},
{
glyphname = aringacute.alt01;
lastChange = "2017-11-24 19:45:46 +0000";
layers = (
{
layerId = "6530489A-D9A3-4CD8-A5AD-1BA8F3B39EAA";
paths = (
{
closed = 1;
nodes = (
"434 899 LINE",
"360 980 LINE",
"231 863 LINE",
"284 806 LINE"
);
},
{
closed = 1;
nodes = (
"376 555 OFFCURVE",
"443 600 OFFCURVE",
"443 675 CURVE SMOOTH",
"443 751 OFFCURVE",
"376 795 OFFCURVE",
"291 795 CURVE SMOOTH",
"206 795 OFFCURVE",
"139 750 OFFCURVE",
"139 675 CURVE SMOOTH",
"139 599 OFFCURVE",
"206 555 OFFCURVE",
"291 555 CURVE SMOOTH"
);
},
{
closed = 1;
nodes = (
"255 625 OFFCURVE",
"236 638 OFFCURVE",
"236 670 CURVE SMOOTH",
"236 680 LINE SMOOTH",
"236 711 OFFCURVE",
"255 725 OFFCURVE",
"291 725 CURVE SMOOTH",
"327 725 OFFCURVE",
"346 712 OFFCURVE",
"346 680 CURVE SMOOTH",
"346 670 LINE SMOOTH",
"346 639 OFFCURVE",
"327 625 OFFCURVE",
"291 625 CURVE SMOOTH"
);
},
{
closed = 1;
nodes = (
"393 0 LINE",
"541 0 LINE",
"541 516 LINE",
"393 516 LINE",
"393 422 LINE",
"386 422 LINE",
"360 484 OFFCURVE",
"316 528 OFFCURVE",
"233 528 CURVE SMOOTH",
"119 528 OFFCURVE",
"39 445 OFFCURVE",
"39 258 CURVE SMOOTH",
"39 71 OFFCURVE",
"119 -12 OFFCURVE",
"233 -12 CURVE SMOOTH",
"316 -12 OFFCURVE",
"360 32 OFFCURVE",
"386 94 CURVE",
"393 94 LINE"
);
},
{
closed = 1;
nodes = (
"231 103 OFFCURVE",
"193 146 OFFCURVE",
"193 218 CURVE SMOOTH",
"193 298 LINE SMOOTH",
"193 370 OFFCURVE",
"231 413 OFFCURVE",
"297 413 CURVE SMOOTH",
"349 413 OFFCURVE",
"393 388 OFFCURVE",
"393 334 CURVE SMOOTH",
"393 182 LINE SMOOTH",
"393 128 OFFCURVE",
"349 103 OFFCURVE",
"297 103 CURVE SMOOTH"
);
}
);
width = 600;
}
);
note = aringacute.alt01;
},
{
glyphname = atilde.alt01;
lastChange = "2017-11-24 19:45:46 +0000";
layers = (
{
layerId = "6530489A-D9A3-4CD8-A5AD-1BA8F3B39EAA";
paths = (
{
closed = 1;
nodes = (
"420 592 OFFCURVE",
"457 620 OFFCURVE",
"481 656 CURVE",
"429 724 LINE",
"408 707 OFFCURVE",
"393 699 OFFCURVE",
"370 699 CURVE SMOOTH",
"344 699 OFFCURVE",
"321 709 OFFCURVE",
"292 721 CURVE SMOOTH",
"267 732 OFFCURVE",
"245 741 OFFCURVE",
"215 741 CURVE SMOOTH",
"162 741 OFFCURVE",
"125 713 OFFCURVE",
"101 677 CURVE",
"153 609 LINE",
"174 626 OFFCURVE",
"189 634 OFFCURVE",
"212 634 CURVE SMOOTH",
"238 634 OFFCURVE",
"261 624 OFFCURVE",
"290 612 CURVE SMOOTH",
"315 601 OFFCURVE",
"337 592 OFFCURVE",
"367 592 CURVE SMOOTH"
);
},
{
closed = 1;
nodes = (
"393 0 LINE",
"541 0 LINE",
"541 516 LINE",
"393 516 LINE",
"393 422 LINE",
"386 422 LINE",
"360 484 OFFCURVE",
"316 528 OFFCURVE",
"233 528 CURVE SMOOTH",
"119 528 OFFCURVE",
"39 445 OFFCURVE",
"39 258 CURVE SMOOTH",
"39 71 OFFCURVE",
"119 -12 OFFCURVE",
"233 -12 CURVE SMOOTH",
"316 -12 OFFCURVE",
"360 32 OFFCURVE",
"386 94 CURVE",
"393 94 LINE"
);
},
{
closed = 1;
nodes = (
"231 103 OFFCURVE",
"193 146 OFFCURVE",
"193 218 CURVE SMOOTH",
"193 298 LINE SMOOTH",
"193 370 OFFCURVE",
"231 413 OFFCURVE",
"297 413 CURVE SMOOTH",
"349 413 OFFCURVE",
"393 388 OFFCURVE",
"393 334 CURVE SMOOTH",
"393 182 LINE SMOOTH",
"393 128 OFFCURVE",
"349 103 OFFCURVE",
"297 103 CURVE SMOOTH"
);
}
);
width = 600;
}
);
note = atilde.alt01;
},
{
glyphname = uni1EAF.alt01;
lastChange = "2017-11-24 19:45:46 +0000";
layers = (
{
layerId = "6530489A-D9A3-4CD8-A5AD-1BA8F3B39EAA";
paths = (
{
closed = 1;
nodes = (
"413 563 OFFCURVE",
"467 644 OFFCURVE",
"493 712 CURVE",
"418 759 LINE",
"397 731 LINE SMOOTH",
"358 679 OFFCURVE",
"333 664 OFFCURVE",
"291 664 CURVE SMOOTH",
"249 664 OFFCURVE",
"224 679 OFFCURVE",
"185 731 CURVE SMOOTH",
"164 759 LINE",
"89 712 LINE",
"115 644 OFFCURVE",
"169 563 OFFCURVE",
"291 563 CURVE SMOOTH"
);
},
{
closed = 1;
nodes = (
"444 900 LINE",
"330 957 LINE",
"231 763 LINE",
"310 724 LINE"
);
},
{
closed = 1;
nodes = (
"393 0 LINE",
"541 0 LINE",
"541 516 LINE",
"393 516 LINE",
"393 422 LINE",
"386 422 LINE",
"360 484 OFFCURVE",
"316 528 OFFCURVE",
"233 528 CURVE SMOOTH",
"119 528 OFFCURVE",
"39 445 OFFCURVE",
"39 258 CURVE SMOOTH",
"39 71 OFFCURVE",
"119 -12 OFFCURVE",
"233 -12 CURVE SMOOTH",
"316 -12 OFFCURVE",
"360 32 OFFCURVE",
"386 94 CURVE",
"393 94 LINE"
);
},
{
closed = 1;
nodes = (
"231 103 OFFCURVE",
"193 146 OFFCURVE",
"193 218 CURVE SMOOTH",
"193 298 LINE SMOOTH",
"193 370 OFFCURVE",
"231 413 OFFCURVE",
"297 413 CURVE SMOOTH",
"349 413 OFFCURVE",
"393 388 OFFCURVE",
"393 334 CURVE SMOOTH",
"393 182 LINE SMOOTH",
"393 128 OFFCURVE",
"349 103 OFFCURVE",
"297 103 CURVE SMOOTH"
);
}
);
width = 600;
}
);
note = uni1EAF.alt01;
},
{
glyphname = uni1EB7.alt01;
lastChange = "2017-11-24 19:45:46 +0000";
layers = (
{
layerId = "6530489A-D9A3-4CD8-A5AD-1BA8F3B39EAA";
paths = (
{
closed = 1;
nodes = (
"350 -203 OFFCURVE",
"372 -176 OFFCURVE",
"372 -141 CURVE SMOOTH",
"372 -115 LINE SMOOTH",
"372 -79 OFFCURVE",
"350 -52 OFFCURVE",
"291 -52 CURVE SMOOTH",
"232 -52 OFFCURVE",
"210 -79 OFFCURVE",
"210 -115 CURVE SMOOTH",
"210 -141 LINE SMOOTH",
"210 -176 OFFCURVE",
"232 -203 OFFCURVE",
"291 -203 CURVE SMOOTH"
);
},
{
closed = 1;
nodes = (
"411 570 OFFCURVE",
"460 668 OFFCURVE",
"485 740 CURVE",
"402 782 LINE",
"381 750 LINE SMOOTH",
"350 702 OFFCURVE",
"330 673 OFFCURVE",
"291 673 CURVE SMOOTH",
"252 673 OFFCURVE",
"232 702 OFFCURVE",
"201 750 CURVE SMOOTH",
"180 782 LINE",
"97 740 LINE",
"122 668 OFFCURVE",
"171 570 OFFCURVE",
"291 570 CURVE SMOOTH"
);
},
{
closed = 1;
nodes = (
"393 0 LINE",
"541 0 LINE",
"541 516 LINE",
"393 516 LINE",
"393 422 LINE",
"386 422 LINE",
"360 484 OFFCURVE",
"316 528 OFFCURVE",
"233 528 CURVE SMOOTH",
"119 528 OFFCURVE",
"39 445 OFFCURVE",
"39 258 CURVE SMOOTH",
"39 71 OFFCURVE",
"119 -12 OFFCURVE",
"233 -12 CURVE SMOOTH",
"316 -12 OFFCURVE",
"360 32 OFFCURVE",
"386 94 CURVE",
"393 94 LINE"
);
},
{
closed = 1;
nodes = (
"231 103 OFFCURVE",
"193 146 OFFCURVE",
"193 218 CURVE SMOOTH",
"193 298 LINE SMOOTH",
"193 370 OFFCURVE",
"231 413 OFFCURVE",
"297 413 CURVE SMOOTH",
"349 413 OFFCURVE",
"393 388 OFFCURVE",
"393 334 CURVE SMOOTH",
"393 182 LINE SMOOTH",
"393 128 OFFCURVE",
"349 103 OFFCURVE",
"297 103 CURVE SMOOTH"
);
}
);
width = 600;
}
);
note = uni1EB7.alt01;
},
{
glyphname = uni1EB1.alt01;
lastChange = "2017-11-24 19:45:46 +0000";
layers = (
{
layerId = "6530489A-D9A3-4CD8-A5AD-1BA8F3B39EAA";
paths = (
{
closed = 1;
nodes = (
"413 563 OFFCURVE",
"467 644 OFFCURVE",
"493 712 CURVE",
"418 759 LINE",
"397 731 LINE SMOOTH",
"358 679 OFFCURVE",
"333 664 OFFCURVE",
"291 664 CURVE SMOOTH",
"249 664 OFFCURVE",
"224 679 OFFCURVE",
"185 731 CURVE SMOOTH",
"164 759 LINE",
"89 712 LINE",
"115 644 OFFCURVE",
"169 563 OFFCURVE",
"291 563 CURVE SMOOTH"
);
},
{
closed = 1;
nodes = (
"272 724 LINE",
"351 763 LINE",
"252 957 LINE",
"138 900 LINE"
);
},
{
closed = 1;
nodes = (
"393 0 LINE",
"541 0 LINE",
"541 516 LINE",
"393 516 LINE",
"393 422 LINE",
"386 422 LINE",
"360 484 OFFCURVE",
"316 528 OFFCURVE",
"233 528 CURVE SMOOTH",
"119 528 OFFCURVE",
"39 445 OFFCURVE",
"39 258 CURVE SMOOTH",
"39 71 OFFCURVE",
"119 -12 OFFCURVE",
"233 -12 CURVE SMOOTH",
"316 -12 OFFCURVE",
"360 32 OFFCURVE",
"386 94 CURVE",
"393 94 LINE"
);
},
{
closed = 1;
nodes = (
"231 103 OFFCURVE",
"193 146 OFFCURVE",
"193 218 CURVE SMOOTH",
"193 298 LINE SMOOTH",
"193 370 OFFCURVE",
"231 413 OFFCURVE",
"297 413 CURVE SMOOTH",
"349 413 OFFCURVE",
"393 388 OFFCURVE",
"393 334 CURVE SMOOTH",
"393 182 LINE SMOOTH",
"393 128 OFFCURVE",
"349 103 OFFCURVE",
"297 103 CURVE SMOOTH"
);
}
);
width = 600;
}
);
note = uni1EB1.alt01;
},
{
glyphname = uni1EB3.alt01;
lastChange = "2017-11-24 19:45:46 +0000";
layers = (
{
layerId = "6530489A-D9A3-4CD8-A5AD-1BA8F3B39EAA";
paths = (
{
closed = 1;
nodes = (
"413 563 OFFCURVE",
"467 644 OFFCURVE",
"493 712 CURVE",
"418 759 LINE",
"397 731 LINE SMOOTH",
"358 679 OFFCURVE",
"333 664 OFFCURVE",
"291 664 CURVE SMOOTH",
"249 664 OFFCURVE",
"224 679 OFFCURVE",
"185 731 CURVE SMOOTH",
"164 759 LINE",
"89 712 LINE",
"115 644 OFFCURVE",
"169 563 OFFCURVE",
"291 563 CURVE SMOOTH"
);
},
{
closed = 1;
nodes = (
"161 842 LINE",
"283 842 LINE",
"240 743 LINE",
"306 711 LINE",
"333 744 LINE SMOOTH",
"366 785 OFFCURVE",
"395 831 OFFCURVE",
"395 871 CURVE SMOOTH",
"395 909 OFFCURVE",
"372 943 OFFCURVE",
"297 943 CURVE SMOOTH",
"161 943 LINE"
);
},
{
closed = 1;
nodes = (
"393 0 LINE",
"541 0 LINE",
"541 516 LINE",
"393 516 LINE",
"393 422 LINE",
"386 422 LINE",
"360 484 OFFCURVE",
"316 528 OFFCURVE",
"233 528 CURVE SMOOTH",
"119 528 OFFCURVE",
"39 445 OFFCURVE",
"39 258 CURVE SMOOTH",
"39 71 OFFCURVE",
"119 -12 OFFCURVE",
"233 -12 CURVE SMOOTH",
"316 -12 OFFCURVE",
"360 32 OFFCURVE",
"386 94 CURVE",
"393 94 LINE"
);
},
{
closed = 1;
nodes = (
"231 103 OFFCURVE",
"193 146 OFFCURVE",
"193 218 CURVE SMOOTH",
"193 298 LINE SMOOTH",
"193 370 OFFCURVE",
"231 413 OFFCURVE",
"297 413 CURVE SMOOTH",
"349 413 OFFCURVE",
"393 388 OFFCURVE",
"393 334 CURVE SMOOTH",
"393 182 LINE SMOOTH",
"393 128 OFFCURVE",
"349 103 OFFCURVE",
"297 103 CURVE SMOOTH"
);
}
);
width = 600;
}
);
note = uni1EB3.alt01;
},
{
glyphname = uni1EB5.alt01;
lastChange = "2017-11-24 19:45:46 +0000";
layers = (
{
layerId = "6530489A-D9A3-4CD8-A5AD-1BA8F3B39EAA";
paths = (
{
closed = 1;
nodes = (
"413 563 OFFCURVE",
"467 644 OFFCURVE",
"493 712 CURVE",
"418 759 LINE",
"397 731 LINE SMOOTH",
"358 679 OFFCURVE",
"333 664 OFFCURVE",
"291 664 CURVE SMOOTH",
"249 664 OFFCURVE",
"224 679 OFFCURVE",
"185 731 CURVE SMOOTH",
"164 759 LINE",
"89 712 LINE",
"115 644 OFFCURVE",
"169 563 OFFCURVE",
"291 563 CURVE SMOOTH"
);
},
{
closed = 1;
nodes = (
"419 778 OFFCURVE",
"456 806 OFFCURVE",
"480 842 CURVE",
"430 906 LINE",
"409 889 OFFCURVE",
"394 881 OFFCURVE",
"371 881 CURVE SMOOTH",
"345 881 OFFCURVE",
"322 891 OFFCURVE",
"293 903 CURVE SMOOTH",
"268 914 OFFCURVE",
"246 923 OFFCURVE",
"216 923 CURVE SMOOTH",
"163 923 OFFCURVE",
"126 895 OFFCURVE",
"102 859 CURVE",
"152 795 LINE",
"173 812 OFFCURVE",
"188 820 OFFCURVE",
"211 820 CURVE SMOOTH",
"237 820 OFFCURVE",
"260 810 OFFCURVE",
"289 798 CURVE SMOOTH",
"314 787 OFFCURVE",
"336 778 OFFCURVE",
"366 778 CURVE SMOOTH"
);
},
{
closed = 1;
nodes = (
"393 0 LINE",
"541 0 LINE",
"541 516 LINE",
"393 516 LINE",
"393 422 LINE",
"386 422 LINE",
"360 484 OFFCURVE",
"316 528 OFFCURVE",
"233 528 CURVE SMOOTH",
"119 528 OFFCURVE",
"39 445 OFFCURVE",
"39 258 CURVE SMOOTH",
"39 71 OFFCURVE",
"119 -12 OFFCURVE",
"233 -12 CURVE SMOOTH",
"316 -12 OFFCURVE",
"360 32 OFFCURVE",
"386 94 CURVE",
"393 94 LINE"
);
},
{
closed = 1;
nodes = (
"231 103 OFFCURVE",
"193 146 OFFCURVE",
"193 218 CURVE SMOOTH",
"193 298 LINE SMOOTH",
"193 370 OFFCURVE",
"231 413 OFFCURVE",
"297 413 CURVE SMOOTH",
"349 413 OFFCURVE",
"393 388 OFFCURVE",
"393 334 CURVE SMOOTH",
"393 182 LINE SMOOTH",
"393 128 OFFCURVE",
"349 103 OFFCURVE",
"297 103 CURVE SMOOTH"
);
}
);
width = 600;
}
);
note = uni1EB5.alt01;
},
{
glyphname = uni1EA5.alt01;
lastChange = "2017-11-24 19:45:46 +0000";
layers = (
{
layerId = "6530489A-D9A3-4CD8-A5AD-1BA8F3B39EAA";
paths = (
{
closed = 1;
nodes = (
"598 900 LINE",
"484 957 LINE",
"385 763 LINE",
"464 724 LINE"
);
},
{
closed = 1;
nodes = (
"244 772 LINE",
"99 625 LINE",
"165 561 LINE",
"289 665 LINE",
"413 561 LINE",
"483 625 LINE",
"338 772 LINE"
);
},
{
closed = 1;
nodes = (
"393 0 LINE",
"541 0 LINE",
"541 516 LINE",
"393 516 LINE",
"393 422 LINE",
"386 422 LINE",
"360 484 OFFCURVE",
"316 528 OFFCURVE",
"233 528 CURVE SMOOTH",
"119 528 OFFCURVE",
"39 445 OFFCURVE",
"39 258 CURVE SMOOTH",
"39 71 OFFCURVE",
"119 -12 OFFCURVE",
"233 -12 CURVE SMOOTH",
"316 -12 OFFCURVE",
"360 32 OFFCURVE",
"386 94 CURVE",
"393 94 LINE"
);
},
{
closed = 1;
nodes = (
"231 103 OFFCURVE",
"193 146 OFFCURVE",
"193 218 CURVE SMOOTH",
"193 298 LINE SMOOTH",
"193 370 OFFCURVE",
"231 413 OFFCURVE",
"297 413 CURVE SMOOTH",
"349 413 OFFCURVE",
"393 388 OFFCURVE",
"393 334 CURVE SMOOTH",
"393 182 LINE SMOOTH",
"393 128 OFFCURVE",
"349 103 OFFCURVE",
"297 103 CURVE SMOOTH"
);
}
);
width = 600;
}
);
note = uni1EA5.alt01;
},
{
glyphname = uni1EAD.alt01;
lastChange = "2017-11-24 19:45:46 +0000";
layers = (
{
layerId = "6530489A-D9A3-4CD8-A5AD-1BA8F3B39EAA";
paths = (
{
closed = 1;
nodes = (
"350 -203 OFFCURVE",
"372 -176 OFFCURVE",
"372 -141 CURVE SMOOTH",
"372 -115 LINE SMOOTH",
"372 -79 OFFCURVE",
"350 -52 OFFCURVE",
"291 -52 CURVE SMOOTH",
"232 -52 OFFCURVE",
"210 -79 OFFCURVE",
"210 -115 CURVE SMOOTH",
"210 -141 LINE SMOOTH",
"210 -176 OFFCURVE",
"232 -203 OFFCURVE",
"291 -203 CURVE SMOOTH"
);
},
{
closed = 1;
nodes = (
"229 786 LINE",
"97 627 LINE",
"168 569 LINE",
"289 684 LINE",
"410 569 LINE",
"485 627 LINE",
"353 786 LINE"
);
},
{
closed = 1;
nodes = (
"393 0 LINE",
"541 0 LINE",
"541 516 LINE",
"393 516 LINE",
"393 422 LINE",
"386 422 LINE",
"360 484 OFFCURVE",
"316 528 OFFCURVE",
"233 528 CURVE SMOOTH",
"119 528 OFFCURVE",
"39 445 OFFCURVE",
"39 258 CURVE SMOOTH",
"39 71 OFFCURVE",
"119 -12 OFFCURVE",
"233 -12 CURVE SMOOTH",
"316 -12 OFFCURVE",
"360 32 OFFCURVE",
"386 94 CURVE",
"393 94 LINE"
);
},
{
closed = 1;
nodes = (
"231 103 OFFCURVE",
"193 146 OFFCURVE",
"193 218 CURVE SMOOTH",
"193 298 LINE SMOOTH",
"193 370 OFFCURVE",
"231 413 OFFCURVE",
"297 413 CURVE SMOOTH",
"349 413 OFFCURVE",
"393 388 OFFCURVE",
"393 334 CURVE SMOOTH",
"393 182 LINE SMOOTH",
"393 128 OFFCURVE",
"349 103 OFFCURVE",
"297 103 CURVE SMOOTH"
);
}
);
width = 600;
}
);
note = uni1EAD.alt01;
},
{
glyphname = uni1EA7.alt01;
lastChange = "2017-11-24 19:45:46 +0000";
layers = (
{
layerId = "6530489A-D9A3-4CD8-A5AD-1BA8F3B39EAA";
paths = (
{
closed = 1;
nodes = (
"118 724 LINE",
"197 763 LINE",
"98 957 LINE",
"-16 900 LINE"
);
},
{
closed = 1;
nodes = (
"244 772 LINE",
"99 625 LINE",
"165 561 LINE",
"289 665 LINE",
"413 561 LINE",
"483 625 LINE",
"338 772 LINE"
);
},
{
closed = 1;
nodes = (
"393 0 LINE",
"541 0 LINE",
"541 516 LINE",
"393 516 LINE",
"393 422 LINE",
"386 422 LINE",
"360 484 OFFCURVE",
"316 528 OFFCURVE",
"233 528 CURVE SMOOTH",
"119 528 OFFCURVE",
"39 445 OFFCURVE",
"39 258 CURVE SMOOTH",
"39 71 OFFCURVE",
"119 -12 OFFCURVE",
"233 -12 CURVE SMOOTH",
"316 -12 OFFCURVE",
"360 32 OFFCURVE",
"386 94 CURVE",
"393 94 LINE"
);
},
{
closed = 1;
nodes = (
"231 103 OFFCURVE",
"193 146 OFFCURVE",
"193 218 CURVE SMOOTH",
"193 298 LINE SMOOTH",
"193 370 OFFCURVE",
"231 413 OFFCURVE",
"297 413 CURVE SMOOTH",
"349 413 OFFCURVE",
"393 388 OFFCURVE",
"393 334 CURVE SMOOTH",
"393 182 LINE SMOOTH",
"393 128 OFFCURVE",
"349 103 OFFCURVE",
"297 103 CURVE SMOOTH"
);
}
);
width = 600;
}
);
note = uni1EA7.alt01;
},
{
glyphname = uni1EA9.alt01;
lastChange = "2017-11-24 19:45:46 +0000";
layers = (
{
layerId = "6530489A-D9A3-4CD8-A5AD-1BA8F3B39EAA";
paths = (
{
closed = 1;
nodes = (
"329 842 LINE",
"448 842 LINE",
"405 745 LINE",
"471 711 LINE",
"498 744 LINE SMOOTH",
"531 784 OFFCURVE",
"561 831 OFFCURVE",
"561 871 CURVE SMOOTH",
"561 909 OFFCURVE",
"537 943 OFFCURVE",
"463 943 CURVE SMOOTH",
"329 943 LINE"
);
},
{
closed = 1;
nodes = (
"244 772 LINE",
"99 625 LINE",
"165 561 LINE",
"289 665 LINE",
"413 561 LINE",
"483 625 LINE",
"338 772 LINE"
);
},
{
closed = 1;
nodes = (
"393 0 LINE",
"541 0 LINE",
"541 516 LINE",
"393 516 LINE",
"393 422 LINE",
"386 422 LINE",
"360 484 OFFCURVE",
"316 528 OFFCURVE",
"233 528 CURVE SMOOTH",
"119 528 OFFCURVE",
"39 445 OFFCURVE",
"39 258 CURVE SMOOTH",
"39 71 OFFCURVE",
"119 -12 OFFCURVE",
"233 -12 CURVE SMOOTH",
"316 -12 OFFCURVE",
"360 32 OFFCURVE",
"386 94 CURVE",
"393 94 LINE"
);
},
{
closed = 1;
nodes = (
"231 103 OFFCURVE",
"193 146 OFFCURVE",
"193 218 CURVE SMOOTH",
"193 298 LINE SMOOTH",
"193 370 OFFCURVE",
"231 413 OFFCURVE",
"297 413 CURVE SMOOTH",
"349 413 OFFCURVE",
"393 388 OFFCURVE",
"393 334 CURVE SMOOTH",
"393 182 LINE SMOOTH",
"393 128 OFFCURVE",
"349 103 OFFCURVE",
"297 103 CURVE SMOOTH"
);
}
);
width = 600;
}
);
note = uni1EA9.alt01;
},
{
glyphname = uni1EAB.alt01;
lastChange = "2017-11-24 19:45:46 +0000";
layers = (
{
layerId = "6530489A-D9A3-4CD8-A5AD-1BA8F3B39EAA";
paths = (
{
closed = 1;
nodes = (
"163 933 OFFCURVE",
"126 905 OFFCURVE",
"102 869 CURVE",
"152 805 LINE",
"173 822 OFFCURVE",
"188 830 OFFCURVE",
"211 830 CURVE SMOOTH",
"237 830 OFFCURVE",
"260 820 OFFCURVE",
"289 808 CURVE SMOOTH",
"314 797 OFFCURVE",
"336 788 OFFCURVE",
"366 788 CURVE SMOOTH",
"419 788 OFFCURVE",
"456 816 OFFCURVE",
"480 852 CURVE",
"430 916 LINE",
"409 899 OFFCURVE",
"394 891 OFFCURVE",
"371 891 CURVE SMOOTH",
"345 891 OFFCURVE",
"322 901 OFFCURVE",
"293 913 CURVE SMOOTH",
"268 924 OFFCURVE",
"246 933 OFFCURVE",
"216 933 CURVE SMOOTH"
);
},
{
closed = 1;
nodes = (
"243 759 LINE",
"101 625 LINE",
"166 561 LINE",
"290 656 LINE",
"414 561 LINE",
"481 625 LINE",
"339 759 LINE"
);
},
{
closed = 1;
nodes = (
"393 0 LINE",
"541 0 LINE",
"541 516 LINE",
"393 516 LINE",
"393 422 LINE",
"386 422 LINE",
"360 484 OFFCURVE",
"316 528 OFFCURVE",
"233 528 CURVE SMOOTH",
"119 528 OFFCURVE",
"39 445 OFFCURVE",
"39 258 CURVE SMOOTH",
"39 71 OFFCURVE",
"119 -12 OFFCURVE",
"233 -12 CURVE SMOOTH",
"316 -12 OFFCURVE",
"360 32 OFFCURVE",
"386 94 CURVE",
"393 94 LINE"
);
},
{
closed = 1;
nodes = (
"231 103 OFFCURVE",
"193 146 OFFCURVE",
"193 218 CURVE SMOOTH",
"193 298 LINE SMOOTH",
"193 370 OFFCURVE",
"231 413 OFFCURVE",
"297 413 CURVE SMOOTH",
"349 413 OFFCURVE",
"393 388 OFFCURVE",
"393 334 CURVE SMOOTH",
"393 182 LINE SMOOTH",
"393 128 OFFCURVE",
"349 103 OFFCURVE",
"297 103 CURVE SMOOTH"
);
}
);
width = 600;
}
);
note = uni1EAB.alt01;
},
{
glyphname = ae;
lastChange = "2017-11-24 19:45:46 +0000";
layers = (
{
layerId = "6530489A-D9A3-4CD8-A5AD-1BA8F3B39EAA";
paths = (
{
closed = 1;
nodes = (
"200 -12 OFFCURVE",
"246 24 OFFCURVE",
"258 105 CURVE",
"262 105 LINE",
"286 23 OFFCURVE",
"349 -12 OFFCURVE",
"419 -12 CURVE SMOOTH",
"511 -12 OFFCURVE",
"558 51 OFFCURVE",
"578 129 CURVE",
"481 156 LINE",
"471 117 OFFCURVE",
"454 84 OFFCURVE",
"417 84 CURVE SMOOTH",
"370 84 OFFCURVE",
"345 136 OFFCURVE",
"345 213 CURVE SMOOTH",
"345 228 LINE",
"584 228 LINE",
"584 289 LINE SMOOTH",
"584 435 OFFCURVE",
"518 528 OFFCURVE",
"416 528 CURVE SMOOTH",
"365 528 OFFCURVE",
"325 504 OFFCURVE",
"297 455 CURVE",
"293 455 LINE",
"270 502 OFFCURVE",
"229 528 OFFCURVE",
"168 528 CURVE SMOOTH",
"91 528 OFFCURVE",
"35 487 OFFCURVE",
"13 401 CURVE",
"105 368 LINE",
"117 410 OFFCURVE",
"132 436 OFFCURVE",
"167 436 CURVE SMOOTH",
"206 436 OFFCURVE",
"226 405 OFFCURVE",
"226 348 CURVE SMOOTH",
"226 305 LINE",
"186 305 LINE SMOOTH",
"69 305 OFFCURVE",
"4 248 OFFCURVE",
"4 141 CURVE SMOOTH",
"4 39 OFFCURVE",
"62 -12 OFFCURVE",
"137 -12 CURVE SMOOTH"
);
},
{
closed = 1;
nodes = (
"136 78 OFFCURVE",
"120 101 OFFCURVE",
"120 138 CURVE SMOOTH",
"120 157 LINE SMOOTH",
"120 204 OFFCURVE",
"148 228 OFFCURVE",
"197 228 CURVE SMOOTH",
"226 228 LINE",
"226 179 LINE SMOOTH",
"226 114 OFFCURVE",
"211 78 OFFCURVE",
"169 78 CURVE SMOOTH"
);
},
{
closed = 1;
nodes = (
"454 438 OFFCURVE",
"475 393 OFFCURVE",
"475 337 CURVE SMOOTH",
"475 305 LINE",
"345 305 LINE",
"345 337 LINE SMOOTH",
"345 393 OFFCURVE",
"366 438 OFFCURVE",
"410 438 CURVE SMOOTH"
);
}
);
width = 600;
}
);
note = ae;
unicode = 00E6;
},
{
glyphname = aeacute;
lastChange = "2017-11-24 19:45:46 +0000";
layers = (
{
layerId = "6530489A-D9A3-4CD8-A5AD-1BA8F3B39EAA";
paths = (
{
closed = 1;
nodes = (
"448 746 LINE",
"325 807 LINE",
"226 613 LINE",
"314 570 LINE"
);
},
{
closed = 1;
nodes = (
"200 -12 OFFCURVE",
"246 24 OFFCURVE",
"258 105 CURVE",
"262 105 LINE",
"286 23 OFFCURVE",
"349 -12 OFFCURVE",
"419 -12 CURVE SMOOTH",
"511 -12 OFFCURVE",
"558 51 OFFCURVE",
"578 129 CURVE",
"481 156 LINE",
"471 117 OFFCURVE",
"454 84 OFFCURVE",
"417 84 CURVE SMOOTH",
"370 84 OFFCURVE",
"345 136 OFFCURVE",
"345 213 CURVE SMOOTH",
"345 228 LINE",
"584 228 LINE",
"584 289 LINE SMOOTH",
"584 435 OFFCURVE",
"518 528 OFFCURVE",
"416 528 CURVE SMOOTH",
"365 528 OFFCURVE",
"325 504 OFFCURVE",
"297 455 CURVE",
"293 455 LINE",
"270 502 OFFCURVE",
"229 528 OFFCURVE",
"168 528 CURVE SMOOTH",
"91 528 OFFCURVE",
"35 487 OFFCURVE",
"13 401 CURVE",
"105 368 LINE",
"117 410 OFFCURVE",
"132 436 OFFCURVE",
"167 436 CURVE SMOOTH",
"206 436 OFFCURVE",
"226 405 OFFCURVE",
"226 348 CURVE SMOOTH",
"226 305 LINE",
"186 305 LINE SMOOTH",
"69 305 OFFCURVE",
"4 248 OFFCURVE",
"4 141 CURVE SMOOTH",
"4 39 OFFCURVE",
"62 -12 OFFCURVE",
"137 -12 CURVE SMOOTH"
);
},
{
closed = 1;
nodes = (
"136 78 OFFCURVE",
"120 101 OFFCURVE",
"120 138 CURVE SMOOTH",
"120 157 LINE SMOOTH",
"120 204 OFFCURVE",
"148 228 OFFCURVE",
"197 228 CURVE SMOOTH",
"226 228 LINE",
"226 179 LINE SMOOTH",
"226 114 OFFCURVE",
"211 78 OFFCURVE",
"169 78 CURVE SMOOTH"
);
},
{
closed = 1;
nodes = (
"454 438 OFFCURVE",
"475 393 OFFCURVE",
"475 337 CURVE SMOOTH",
"475 305 LINE",
"345 305 LINE",
"345 337 LINE SMOOTH",
"345 393 OFFCURVE",
"366 438 OFFCURVE",
"410 438 CURVE SMOOTH"
);
}
);
width = 600;
}
);
note = aeacute;
unicode = 01FD;
},
{
glyphname = cacute;
lastChange = "2017-11-24 19:45:46 +0000";
layers = (
{
layerId = "6530489A-D9A3-4CD8-A5AD-1BA8F3B39EAA";
paths = (
{
closed = 1;
nodes = (
"464 746 LINE",
"341 807 LINE",
"242 613 LINE",
"330 570 LINE"
);
},
{
closed = 1;
nodes = (
"436 -12 OFFCURVE",
"506 39 OFFCURVE",
"543 114 CURVE",
"431 178 LINE",
"409 136 OFFCURVE",
"379 106 OFFCURVE",
"322 106 CURVE SMOOTH",
"252 106 OFFCURVE",
"214 148 OFFCURVE",
"214 216 CURVE SMOOTH",
"214 300 LINE SMOOTH",
"214 368 OFFCURVE",
"253 410 OFFCURVE",
"320 410 CURVE SMOOTH",
"375 410 OFFCURVE",
"403 380 OFFCURVE",
"421 340 CURVE",
"535 402 LINE",
"499 477 OFFCURVE",
"433 528 OFFCURVE",
"320 528 CURVE SMOOTH",
"159 528 OFFCURVE",
"60 425 OFFCURVE",
"60 258 CURVE SMOOTH",
"60 91 OFFCURVE",
"158 -12 OFFCURVE",
"321 -12 CURVE SMOOTH"
);
}
);
width = 600;
}
);
note = cacute;
unicode = 0107;
},
{
glyphname = ccaron;
lastChange = "2017-11-24 19:45:46 +0000";
layers = (
{
layerId = "6530489A-D9A3-4CD8-A5AD-1BA8F3B39EAA";
paths = (
{
closed = 1;
nodes = (
"376 578 LINE",
"508 737 LINE",
"437 795 LINE",
"316 680 LINE",
"195 795 LINE",
"120 737 LINE",
"252 578 LINE"
);
},
{
closed = 1;
nodes = (
"436 -12 OFFCURVE",
"506 39 OFFCURVE",
"543 114 CURVE",
"431 178 LINE",
"409 136 OFFCURVE",
"379 106 OFFCURVE",
"322 106 CURVE SMOOTH",
"252 106 OFFCURVE",
"214 148 OFFCURVE",
"214 216 CURVE SMOOTH",
"214 300 LINE SMOOTH",
"214 368 OFFCURVE",
"253 410 OFFCURVE",
"320 410 CURVE SMOOTH",
"375 410 OFFCURVE",
"403 380 OFFCURVE",
"421 340 CURVE",
"535 402 LINE",
"499 477 OFFCURVE",
"433 528 OFFCURVE",
"320 528 CURVE SMOOTH",
"159 528 OFFCURVE",
"60 425 OFFCURVE",
"60 258 CURVE SMOOTH",
"60 91 OFFCURVE",
"158 -12 OFFCURVE",
"321 -12 CURVE SMOOTH"
);
}
);
width = 600;
}
);
note = ccaron;
unicode = 010D;
},
{
glyphname = ccedilla;
lastChange = "2017-11-24 19:45:46 +0000";
layers = (
{
layerId = "6530489A-D9A3-4CD8-A5AD-1BA8F3B39EAA";
paths = (
{
closed = 1;
nodes = (
"159 528 OFFCURVE",
"60 425 OFFCURVE",
"60 258 CURVE SMOOTH",
"60 111 OFFCURVE",
"136 14 OFFCURVE",
"265 -7 CURVE",
"251 -74 LINE",
"272 -76 LINE SMOOTH",
"334 -82 OFFCURVE",
"347 -101 OFFCURVE",
"347 -116 CURVE SMOOTH",
"347 -133 OFFCURVE",
"328 -141 OFFCURVE",
"303 -141 CURVE SMOOTH",
"272 -141 OFFCURVE",
"250 -128 OFFCURVE",
"237 -112 CURVE",
"191 -168 LINE",
"208 -188 OFFCURVE",
"246 -212 OFFCURVE",
"315 -212 CURVE SMOOTH",
"383 -212 OFFCURVE",
"447 -189 OFFCURVE",
"447 -121 CURVE SMOOTH",
"447 -72 OFFCURVE",
"414 -52 OFFCURVE",
"374 -52 CURVE SMOOTH",
"358 -52 OFFCURVE",
"342 -55 OFFCURVE",
"326 -59 CURVE",
"322 -55 LINE",
"331 -12 LINE",
"440 -9 OFFCURVE",
"507 41 OFFCURVE",
"543 114 CURVE",
"431 178 LINE",
"409 136 OFFCURVE",
"379 106 OFFCURVE",
"322 106 CURVE SMOOTH",
"252 106 OFFCURVE",
"214 148 OFFCURVE",
"214 216 CURVE SMOOTH",
"214 300 LINE SMOOTH",
"214 368 OFFCURVE",
"253 410 OFFCURVE",
"320 410 CURVE SMOOTH",
"375 410 OFFCURVE",
"403 380 OFFCURVE",
"421 340 CURVE",
"535 402 LINE",
"499 477 OFFCURVE",
"433 528 OFFCURVE",
"320 528 CURVE SMOOTH"
);
}
);
width = 600;
}
);
note = ccedilla;
unicode = 00E7;
},
{
glyphname = ccircumflex;
lastChange = "2017-11-24 19:45:46 +0000";
layers = (
{
layerId = "6530489A-D9A3-4CD8-A5AD-1BA8F3B39EAA";
paths = (
{
closed = 1;
nodes = (
"252 786 LINE",
"120 627 LINE",
"191 569 LINE",
"312 684 LINE",
"433 569 LINE",
"508 627 LINE",
"376 786 LINE"
);
},
{
closed = 1;
nodes = (
"436 -12 OFFCURVE",
"506 39 OFFCURVE",
"543 114 CURVE",
"431 178 LINE",
"409 136 OFFCURVE",
"379 106 OFFCURVE",
"322 106 CURVE SMOOTH",
"252 106 OFFCURVE",
"214 148 OFFCURVE",
"214 216 CURVE SMOOTH",
"214 300 LINE SMOOTH",
"214 368 OFFCURVE",
"253 410 OFFCURVE",
"320 410 CURVE SMOOTH",
"375 410 OFFCURVE",
"403 380 OFFCURVE",
"421 340 CURVE",
"535 402 LINE",
"499 477 OFFCURVE",
"433 528 OFFCURVE",
"320 528 CURVE SMOOTH",
"159 528 OFFCURVE",
"60 425 OFFCURVE",
"60 258 CURVE SMOOTH",
"60 91 OFFCURVE",
"158 -12 OFFCURVE",
"321 -12 CURVE SMOOTH"
);
}
);
width = 600;
}
);
note = ccircumflex;
unicode = 0109;
},
{
glyphname = cdotaccent;
lastChange = "2017-11-24 19:45:46 +0000";
layers = (
{
layerId = "6530489A-D9A3-4CD8-A5AD-1BA8F3B39EAA";
paths = (
{
closed = 1;
nodes = (
"380 582 OFFCURVE",
"403 613 OFFCURVE",
"403 652 CURVE SMOOTH",
"403 681 LINE SMOOTH",
"403 721 OFFCURVE",
"380 751 OFFCURVE",
"314 751 CURVE SMOOTH",
"248 751 OFFCURVE",
"225 721 OFFCURVE",
"225 681 CURVE SMOOTH",
"225 652 LINE SMOOTH",
"225 613 OFFCURVE",
"248 582 OFFCURVE",
"314 582 CURVE SMOOTH"
);
},
{
closed = 1;
nodes = (
"436 -12 OFFCURVE",
"506 39 OFFCURVE",
"543 114 CURVE",
"431 178 LINE",
"409 136 OFFCURVE",
"379 106 OFFCURVE",
"322 106 CURVE SMOOTH",
"252 106 OFFCURVE",
"214 148 OFFCURVE",
"214 216 CURVE SMOOTH",
"214 300 LINE SMOOTH",
"214 368 OFFCURVE",
"253 410 OFFCURVE",
"320 410 CURVE SMOOTH",
"375 410 OFFCURVE",
"403 380 OFFCURVE",
"421 340 CURVE",
"535 402 LINE",
"499 477 OFFCURVE",
"433 528 OFFCURVE",
"320 528 CURVE SMOOTH",
"159 528 OFFCURVE",
"60 425 OFFCURVE",
"60 258 CURVE SMOOTH",
"60 91 OFFCURVE",
"158 -12 OFFCURVE",
"321 -12 CURVE SMOOTH"
);
}
);
width = 600;
}
);
note = cdotaccent;
unicode = 010B;
},
{
glyphname = dcaron;
lastChange = "2017-11-24 19:45:46 +0000";
layers = (
{
layerId = "6530489A-D9A3-4CD8-A5AD-1BA8F3B39EAA";
paths = (
{
closed = 1;
nodes = (
"254 -12 OFFCURVE",
"286 31 OFFCURVE",
"306 93 CURVE",
"314 93 LINE",
"314 0 LINE",
"455 0 LINE",
"455 740 LINE",
"314 740 LINE",
"314 423 LINE",
"306 423 LINE",
"286 485 OFFCURVE",
"254 528 OFFCURVE",
"185 528 CURVE SMOOTH",
"86 528 OFFCURVE",
"27 443 OFFCURVE",
"27 258 CURVE SMOOTH",
"27 73 OFFCURVE",
"86 -12 OFFCURVE",
"185 -12 CURVE SMOOTH"
);
},
{
closed = 1;
nodes = (
"200 97 OFFCURVE",
"174 127 OFFCURVE",
"174 200 CURVE SMOOTH",
"174 316 LINE SMOOTH",
"174 389 OFFCURVE",
"200 419 OFFCURVE",
"244 419 CURVE SMOOTH",
"285 419 OFFCURVE",
"314 392 OFFCURVE",
"314 336 CURVE SMOOTH",
"314 180 LINE SMOOTH",
"314 124 OFFCURVE",
"285 97 OFFCURVE",
"244 97 CURVE SMOOTH"
);
},
{
closed = 1;
nodes = (
"506 529 LINE",
"583 529 LINE",
"637 740 LINE",
"508 740 LINE"
);
}
);
width = 600;
}
);
note = dcaron;
unicode = 010F;
},
{
glyphname = dcroat;
lastChange = "2017-11-24 19:45:46 +0000";
layers = (
{
layerId = "6530489A-D9A3-4CD8-A5AD-1BA8F3B39EAA";
paths = (
{
closed = 1;
nodes = (
"393 0 LINE",
"541 0 LINE",
"541 580 LINE",
"596 580 LINE",
"596 690 LINE",
"541 690 LINE",
"541 740 LINE",
"393 740 LINE",
"393 690 LINE",
"253 690 LINE",
"253 580 LINE",
"393 580 LINE",
"393 422 LINE",
"386 422 LINE",
"360 484 OFFCURVE",
"316 528 OFFCURVE",
"233 528 CURVE SMOOTH",
"119 528 OFFCURVE",
"39 445 OFFCURVE",
"39 258 CURVE SMOOTH",
"39 71 OFFCURVE",
"119 -12 OFFCURVE",
"233 -12 CURVE SMOOTH",
"316 -12 OFFCURVE",
"360 32 OFFCURVE",
"386 94 CURVE",
"393 94 LINE"
);
},
{
closed = 1;
nodes = (
"231 103 OFFCURVE",
"193 146 OFFCURVE",
"193 218 CURVE SMOOTH",
"193 298 LINE SMOOTH",
"193 370 OFFCURVE",
"231 413 OFFCURVE",
"297 413 CURVE SMOOTH",
"349 413 OFFCURVE",
"393 388 OFFCURVE",
"393 334 CURVE SMOOTH",
"393 182 LINE SMOOTH",
"393 128 OFFCURVE",
"349 103 OFFCURVE",
"297 103 CURVE SMOOTH"
);
}
);
width = 600;
}
);
note = dcroat;
unicode = 0111;
},
